<svg width="600" height="250" viewBox="0 0 600 250" fill="none" xmlns="http://www.w3.org/2000/svg">
<path d="M176.542 163H74.1421V60.6H94.6221V142.52H156.062V60.6H176.542V163ZM204.682 60.6H225.162V163H204.682V60.6ZM351.622 163H249.222V60.6H269.702V142.52H331.142V60.6H351.622V163ZM379.762 60.6H420.722V101.56H441.202V60.6H482.162V81.08H461.682V142.52H482.162V163H441.202V122.04H420.722V163H379.762V142.52H400.242V81.08H379.762V60.6Z" fill="white"/>
<path d="M330.618 155.56C329.058 155.88 327.818 156.12 326.898 156.28C325.978 156.44 325.258 156.56 324.738 156.64C324.258 156.68 323.938 156.66 323.778 156.58C323.618 156.5 323.498 156.38 323.418 156.22C323.378 156.14 323.358 155.88 323.358 155.44C323.358 155 323.378 154.5 323.418 153.94C323.498 153.02 323.578 152.44 323.658 152.2C323.738 151.92 323.918 151.64 324.198 151.36C324.678 150.84 325.438 150.26 326.478 149.62C327.518 148.98 328.738 148.32 330.138 147.64C331.578 146.96 333.138 146.28 334.818 145.6C336.498 144.92 338.238 144.3 340.038 143.74C341.398 143.3 343.058 142.84 345.018 142.36C346.978 141.84 349.058 141.36 351.258 140.92C353.458 140.48 355.658 140.08 357.858 139.72C360.098 139.32 362.158 139 364.038 138.76C365.478 138.56 366.678 138.42 367.638 138.34C368.598 138.22 369.478 138.14 370.278 138.1C371.078 138.06 371.838 138.04 372.558 138.04C373.318 138 374.198 137.98 375.198 137.98C377.558 137.98 379.298 138.06 380.418 138.22C381.578 138.38 382.378 138.66 382.818 139.06C383.138 139.38 383.358 139.8 383.478 140.32C383.638 140.8 383.638 141.16 383.478 141.4C383.358 141.6 383.318 141.86 383.358 142.18C383.398 142.46 383.498 142.64 383.658 142.72C383.778 142.76 383.838 142.9 383.838 143.14C383.838 143.38 383.798 143.66 383.718 143.98C383.678 144.26 383.598 144.54 383.478 144.82C383.358 145.06 383.218 145.22 383.058 145.3C382.938 145.38 382.458 145.44 381.618 145.48C380.778 145.48 379.798 145.48 378.678 145.48C377.518 145.48 376.458 145.5 375.498 145.54C374.538 145.54 373.538 145.58 372.498 145.66C371.498 145.74 370.398 145.86 369.198 146.02C368.038 146.14 366.658 146.3 365.058 146.5C363.978 146.62 362.818 146.78 361.578 146.98C360.378 147.14 359.238 147.3 358.158 147.46C357.078 147.62 356.158 147.76 355.398 147.88C354.638 148 354.178 148.1 354.018 148.18C353.818 148.22 353.818 148.3 354.018 148.42C354.178 148.54 354.238 148.86 354.198 149.38C354.158 149.62 354.018 150.04 353.778 150.64C353.538 151.2 353.238 151.88 352.878 152.68C352.518 153.48 352.098 154.34 351.618 155.26C351.178 156.18 350.718 157.1 350.238 158.02C349.478 159.42 348.578 161.18 347.538 163.3C346.498 165.42 345.438 167.58 344.358 169.78C343.318 171.98 342.318 174.08 341.358 176.08C340.438 178.04 339.738 179.62 339.258 180.82C338.818 181.9 338.358 183.12 337.878 184.48C337.438 185.8 337.018 187.14 336.618 188.5C336.258 189.82 335.938 191.1 335.658 192.34C335.418 193.54 335.238 194.58 335.118 195.46C335.038 196.38 334.918 197.18 334.758 197.86C334.598 198.58 334.478 199.02 334.398 199.18C334.038 199.54 333.578 199.48 333.018 199C332.858 198.92 332.698 198.84 332.538 198.76C332.378 198.68 332.258 198.64 332.178 198.64C332.058 198.64 331.838 198.52 331.518 198.28C331.238 198.04 330.938 197.76 330.618 197.44C330.298 197.12 329.998 196.78 329.718 196.42C329.438 196.1 329.238 195.82 329.118 195.58C328.238 193.58 328.238 190.68 329.118 186.88C330.038 183.04 331.878 178.1 334.638 172.06C334.878 171.54 335.318 170.66 335.958 169.42C336.598 168.18 337.298 166.84 338.058 165.4C338.858 163.92 339.638 162.46 340.398 161.02C341.198 159.58 341.858 158.42 342.378 157.54C343.138 156.22 343.598 155.36 343.758 154.96C343.958 154.56 343.998 154.32 343.878 154.24C343.758 154.16 343.398 154.12 342.798 154.12C342.238 154.12 341.558 154.14 340.758 154.18C339.958 154.22 339.118 154.28 338.238 154.36C337.398 154.44 336.658 154.52 336.018 154.6C335.458 154.68 334.638 154.82 333.558 155.02C332.518 155.18 331.538 155.36 330.618 155.56ZM328.038 154.9C328.318 154.9 328.418 154.86 328.338 154.78C328.218 154.74 328.078 154.74 327.918 154.78C327.758 154.86 327.798 154.9 328.038 154.9ZM329.238 154.66C329.558 154.66 329.678 154.64 329.598 154.6C329.438 154.52 329.238 154.52 328.998 154.6C328.918 154.6 328.898 154.62 328.938 154.66C328.978 154.66 329.078 154.66 329.238 154.66ZM330.498 151.54C330.258 151.66 330.078 151.76 329.958 151.84C329.878 151.88 329.938 151.88 330.138 151.84C330.378 151.76 330.798 151.62 331.398 151.42C332.038 151.18 332.958 150.86 334.158 150.46C335.118 150.14 336.158 149.82 337.278 149.5C338.398 149.14 339.538 148.8 340.698 148.48C341.858 148.16 342.998 147.86 344.118 147.58C345.238 147.3 346.238 147.06 347.118 146.86C348.158 146.62 348.778 146.46 348.978 146.38C349.218 146.26 348.838 146.3 347.838 146.5C346.598 146.74 345.118 147.08 343.398 147.52C341.678 147.96 339.978 148.44 338.298 148.96C336.618 149.44 335.058 149.92 333.618 150.4C332.218 150.84 331.178 151.22 330.498 151.54ZM347.178 155.68C347.178 155.76 347.178 155.82 347.178 155.86C347.218 155.86 347.298 155.78 347.418 155.62C347.538 155.42 347.738 155.1 348.018 154.66C348.298 154.22 348.698 153.56 349.218 152.68C349.738 151.8 350.218 151.02 350.658 150.34C351.098 149.62 351.358 149.2 351.438 149.08C351.638 148.8 351.678 148.66 351.558 148.66C351.478 148.66 351.198 149 350.718 149.68C350.238 150.36 349.738 151.12 349.218 151.96C348.698 152.8 348.218 153.6 347.778 154.36C347.378 155.08 347.178 155.52 347.178 155.68ZM349.818 146.26C350.058 146.26 350.138 146.22 350.058 146.14C349.978 146.06 349.858 146.06 349.698 146.14C349.458 146.22 349.498 146.26 349.818 146.26ZM349.578 150.4C349.458 150.52 349.278 150.76 349.038 151.12C348.798 151.48 348.558 151.86 348.318 152.26C348.078 152.62 347.858 152.96 347.658 153.28C347.458 153.6 347.358 153.78 347.358 153.82C347.358 153.98 347.438 153.96 347.598 153.76C347.758 153.52 348.038 153.06 348.438 152.38C348.718 151.98 348.958 151.58 349.158 151.18C349.398 150.78 349.558 150.52 349.638 150.4L349.998 149.92L349.578 150.4ZM330.438 154.48C330.838 154.48 330.958 154.44 330.798 154.36C330.718 154.36 330.618 154.36 330.498 154.36C330.378 154.32 330.278 154.32 330.198 154.36C329.958 154.44 330.038 154.48 330.438 154.48ZM331.758 154.3C332.038 154.3 332.138 154.26 332.058 154.18C331.978 154.1 331.838 154.1 331.638 154.18C331.478 154.26 331.518 154.3 331.758 154.3ZM333.138 154.12C333.418 154.12 333.518 154.08 333.438 154C333.318 153.96 333.178 153.96 333.018 154C332.858 154.08 332.898 154.12 333.138 154.12ZM334.158 153.52C334.398 153.52 334.478 153.48 334.398 153.4C334.318 153.32 334.198 153.32 334.038 153.4C333.798 153.48 333.838 153.52 334.158 153.52ZM335.718 153.7C335.918 153.7 335.998 153.68 335.958 153.64C335.878 153.52 335.758 153.5 335.598 153.58C335.358 153.66 335.398 153.7 335.718 153.7ZM336.858 153.1C337.178 153.18 337.278 153.16 337.158 153.04C337.078 153 336.938 152.98 336.738 152.98C336.658 153.06 336.698 153.1 336.858 153.1ZM339.138 153.28C339.378 153.28 339.458 153.26 339.378 153.22C339.218 153.14 339.058 153.14 338.898 153.22C338.818 153.26 338.898 153.28 339.138 153.28ZM339.318 152.92C339.718 152.92 339.798 152.88 339.558 152.8C339.438 152.72 339.278 152.72 339.078 152.8C338.918 152.88 338.998 152.92 339.318 152.92ZM341.298 152.68C341.658 152.68 341.778 152.66 341.658 152.62C341.418 152.54 341.178 152.54 340.938 152.62C340.818 152.66 340.938 152.68 341.298 152.68ZM340.158 151.9C341.238 151.82 342.098 151.78 342.738 151.78C343.418 151.78 343.978 151.82 344.418 151.9L345.618 152.08L346.518 150.82C346.758 150.5 346.958 150.22 347.118 149.98C347.278 149.7 347.338 149.54 347.298 149.5C347.258 149.46 346.938 149.5 346.338 149.62C345.778 149.74 345.078 149.9 344.238 150.1C343.398 150.3 342.478 150.52 341.478 150.76C340.518 150.96 339.598 151.18 338.718 151.42C337.878 151.62 337.158 151.82 336.558 152.02C335.958 152.18 335.638 152.28 335.598 152.32C335.558 152.36 335.618 152.38 335.778 152.38C335.938 152.38 336.118 152.34 336.318 152.26C336.518 152.22 336.998 152.18 337.758 152.14C338.518 152.06 339.318 151.98 340.158 151.9ZM341.718 163.96C341.318 164.72 340.978 165.36 340.698 165.88C340.458 166.4 340.358 166.66 340.398 166.66C340.438 166.66 340.598 166.38 340.878 165.82C341.198 165.26 341.578 164.58 342.018 163.78C342.458 162.98 342.878 162.2 343.278 161.44C343.678 160.64 343.978 160.08 344.178 159.76C344.378 159.44 344.538 159.16 344.658 158.92C344.778 158.68 344.818 158.54 344.778 158.5C344.698 158.42 344.438 158.8 343.998 159.64C343.558 160.48 342.798 161.92 341.718 163.96ZM338.538 170.08C338.418 170.2 338.358 170.3 338.358 170.38C338.358 170.7 338.458 170.66 338.658 170.26C338.738 170.06 338.698 170 338.538 170.08ZM336.798 173.8C336.678 173.84 336.618 173.94 336.618 174.1C336.618 174.26 336.638 174.34 336.678 174.34C336.718 174.3 336.778 174.18 336.858 173.98C336.938 173.78 336.918 173.72 336.798 173.8ZM335.898 175.78C335.818 175.86 335.738 175.96 335.658 176.08C335.618 176.2 335.598 176.28 335.598 176.32C335.598 176.6 335.738 176.46 336.018 175.9C336.098 175.66 336.138 175.54 336.138 175.54C336.138 175.5 336.058 175.58 335.898 175.78ZM330.738 192.52C330.738 193.04 330.758 193.26 330.798 193.18C330.838 193.1 330.918 192.66 331.038 191.86C331.118 191.38 331.218 190.8 331.338 190.12C331.458 189.4 331.578 188.76 331.698 188.2C331.858 187.6 332.058 186.9 332.298 186.1C332.538 185.26 332.778 184.42 333.018 183.58C333.298 182.74 333.578 181.92 333.858 181.12C334.178 180.28 334.478 179.54 334.758 178.9C334.998 178.34 335.198 177.84 335.358 177.4C335.518 176.96 335.578 176.74 335.538 176.74C335.498 176.7 335.358 176.94 335.118 177.46C334.918 177.94 334.658 178.56 334.338 179.32C334.058 180.08 333.758 180.9 333.438 181.78C333.118 182.66 332.838 183.46 332.598 184.18C332.038 185.82 331.578 187.44 331.218 189.04C330.898 190.6 330.738 191.76 330.738 192.52ZM331.878 191.98C332.118 190.14 332.558 188.12 333.198 185.92C333.878 183.68 334.778 181.2 335.898 178.48C337.058 175.72 338.458 172.66 340.098 169.3C341.778 165.94 343.738 162.22 345.978 158.14L346.398 157.36L345.918 157.96C345.758 158.12 345.498 158.52 345.138 159.16C344.778 159.76 344.398 160.4 343.998 161.08C343.598 161.84 343.038 162.92 342.318 164.32C341.638 165.68 340.938 167.08 340.218 168.52C339.498 169.92 338.838 171.22 338.238 172.42C337.678 173.58 337.298 174.38 337.098 174.82C335.098 179.3 333.658 183 332.778 185.92C331.898 188.8 331.478 191.26 331.518 193.3C331.558 193.82 331.578 194.2 331.578 194.44C331.578 194.64 331.598 194.62 331.638 194.38C331.678 194.18 331.718 193.84 331.758 193.36C331.798 192.88 331.838 192.42 331.878 191.98ZM333.378 189.46C333.698 187.94 334.198 186.18 334.878 184.18C335.558 182.18 336.298 180.22 337.098 178.3C337.538 177.3 338.098 176.08 338.778 174.64C339.458 173.16 340.218 171.58 341.058 169.9C341.898 168.22 342.778 166.48 343.698 164.68C344.658 162.84 345.598 161.06 346.518 159.34C347.478 157.58 348.378 155.94 349.218 154.42C350.098 152.9 350.878 151.58 351.558 150.46C351.838 150.02 352.058 149.64 352.218 149.32C352.378 148.96 352.438 148.76 352.398 148.72C352.398 148.68 352.278 148.84 352.038 149.2C351.798 149.52 351.478 150 351.078 150.64C350.718 151.28 350.278 152.02 349.758 152.86C349.278 153.7 348.758 154.62 348.198 155.62C347.718 156.46 347.158 157.48 346.518 158.68C345.878 159.84 345.218 161.08 344.538 162.4C343.858 163.72 343.158 165.08 342.438 166.48C341.718 167.88 341.038 169.22 340.398 170.5C339.758 171.78 339.178 172.96 338.658 174.04C338.178 175.12 337.778 176 337.458 176.68C336.738 178.32 336.058 179.98 335.418 181.66C334.818 183.3 334.318 184.76 333.918 186.04C333.718 186.68 333.518 187.36 333.318 188.08C333.158 188.8 333.018 189.5 332.898 190.18C332.778 190.82 332.678 191.4 332.598 191.92C332.518 192.44 332.478 192.82 332.478 193.06C332.518 193.38 332.538 193.52 332.538 193.48C332.578 193.44 332.638 193.2 332.718 192.76C332.758 192.44 332.838 191.96 332.958 191.32C333.118 190.68 333.258 190.06 333.378 189.46ZM335.118 190.72C335.318 189.92 335.458 189.32 335.538 188.92C335.618 188.48 335.678 188.16 335.718 187.96C335.758 187.76 335.778 187.66 335.778 187.66C335.778 187.62 335.758 187.62 335.718 187.66C335.678 187.74 335.578 188.08 335.418 188.68C335.258 189.28 335.078 189.98 334.878 190.78C334.718 191.54 334.558 192.32 334.398 193.12C334.278 193.92 334.198 194.58 334.158 195.1C334.118 195.42 334.078 195.74 334.038 196.06C333.998 196.38 333.958 196.64 333.918 196.84C333.838 197.32 333.878 197.46 334.038 197.26C334.078 197.18 334.118 196.94 334.158 196.54C334.238 196.18 334.298 195.78 334.338 195.34C334.378 194.9 334.458 194.24 334.578 193.36C334.738 192.44 334.918 191.56 335.118 190.72ZM336.978 179.98C337.098 179.86 337.158 179.7 337.158 179.5C337.158 179.38 337.098 179.42 336.978 179.62C336.858 179.74 336.798 179.9 336.798 180.1C336.798 180.18 336.858 180.14 336.978 179.98ZM337.578 178.6C337.698 178.48 337.758 178.32 337.758 178.12C337.758 178 337.698 178.04 337.578 178.24C337.458 178.4 337.398 178.56 337.398 178.72C337.398 178.8 337.458 178.76 337.578 178.6ZM338.358 176.74C338.358 176.66 338.258 176.76 338.058 177.04C337.978 177.2 337.898 177.34 337.818 177.46C337.778 177.58 337.758 177.68 337.758 177.76C337.758 177.8 337.778 177.8 337.818 177.76C337.898 177.68 337.978 177.58 338.058 177.46C338.258 177.14 338.358 176.9 338.358 176.74ZM339.318 174.58C339.318 174.5 339.218 174.6 339.018 174.88C338.858 175.28 338.778 175.52 338.778 175.6C338.778 175.72 338.858 175.62 339.018 175.3C339.218 174.98 339.318 174.74 339.318 174.58ZM340.278 172.54C340.398 172.3 340.458 172.18 340.458 172.18C340.458 172.14 340.378 172.22 340.218 172.42C340.018 172.7 339.918 172.9 339.918 173.02C339.918 173.3 340.038 173.14 340.278 172.54ZM341.118 170.98C341.198 170.74 341.238 170.62 341.238 170.62C341.238 170.58 341.158 170.66 340.998 170.86C340.918 170.98 340.838 171.1 340.758 171.22C340.718 171.3 340.698 171.38 340.698 171.46C340.698 171.7 340.838 171.54 341.118 170.98ZM341.478 170.2C341.598 170 341.658 169.84 341.658 169.72C341.658 169.64 341.598 169.66 341.478 169.78C341.438 169.86 341.398 169.96 341.358 170.08C341.318 170.16 341.298 170.24 341.298 170.32C341.298 170.36 341.318 170.38 341.358 170.38C341.398 170.34 341.438 170.28 341.478 170.2ZM343.098 166.9C343.258 166.74 343.298 166.62 343.218 166.54C343.138 166.46 343.058 166.54 342.978 166.78C342.858 167.06 342.898 167.1 343.098 166.9ZM349.038 158.5C349.118 158.3 349.078 158.24 348.918 158.32C348.798 158.44 348.738 158.54 348.738 158.62C348.738 158.78 348.758 158.86 348.798 158.86C348.878 158.82 348.958 158.7 349.038 158.5ZM351.378 154.06C351.938 153.02 352.398 152.14 352.758 151.42C353.118 150.7 353.278 150.32 353.238 150.28C353.198 150.28 352.978 150.66 352.578 151.42C352.178 152.18 351.698 153.1 351.138 154.18C350.578 155.26 350.098 156.18 349.698 156.94C349.338 157.7 349.198 158.04 349.278 157.96C349.358 157.88 349.598 157.48 349.998 156.76C350.398 156 350.858 155.1 351.378 154.06ZM363.918 143.08C364.118 143.12 364.238 143.14 364.278 143.14C364.358 143.1 364.358 143.06 364.278 143.02C364.158 142.94 363.958 142.94 363.678 143.02C363.558 143.06 363.638 143.08 363.918 143.08ZM365.598 142.9C365.838 142.9 365.918 142.88 365.838 142.84C365.678 142.76 365.518 142.76 365.358 142.84C365.278 142.88 365.358 142.9 365.598 142.9ZM350.898 143.38C350.658 143.46 350.678 143.5 350.958 143.5C351.278 143.58 351.378 143.56 351.258 143.44C351.138 143.32 351.018 143.3 350.898 143.38ZM349.878 143.62C349.798 143.66 349.838 143.7 349.998 143.74C350.318 143.74 350.398 143.7 350.238 143.62C350.198 143.54 350.078 143.54 349.878 143.62ZM346.938 142.84C346.858 142.88 346.898 142.92 347.058 142.96C347.378 142.96 347.458 142.92 347.298 142.84C347.258 142.76 347.138 142.76 346.938 142.84ZM360.978 142.3C359.938 142.42 358.778 142.58 357.498 142.78C356.258 142.98 354.978 143.2 353.658 143.44C352.378 143.64 351.118 143.86 349.878 144.1C348.638 144.34 347.538 144.58 346.578 144.82C345.898 144.98 345.058 145.2 344.058 145.48C343.058 145.72 342.078 145.98 341.118 146.26C340.198 146.54 339.398 146.78 338.718 146.98C338.038 147.18 337.658 147.32 337.578 147.4C337.498 147.48 337.618 147.48 337.938 147.4C338.258 147.32 338.998 147.12 340.158 146.8C341.878 146.32 343.818 145.84 345.978 145.36C348.178 144.84 350.278 144.4 352.278 144.04C352.918 143.92 353.718 143.78 354.678 143.62C355.638 143.46 356.578 143.3 357.498 143.14C358.458 142.98 359.318 142.84 360.078 142.72C360.878 142.6 361.418 142.52 361.698 142.48C362.018 142.4 362.298 142.36 362.538 142.36C362.818 142.32 363.018 142.28 363.138 142.24C363.218 142.24 363.578 142.2 364.218 142.12C364.858 142.04 365.578 141.96 366.378 141.88C367.898 141.68 368.858 141.54 369.258 141.46C369.658 141.34 369.218 141.34 367.938 141.46C367.618 141.5 367.178 141.56 366.618 141.64C366.058 141.68 365.438 141.74 364.758 141.82C364.118 141.9 363.458 141.98 362.778 142.06C362.138 142.14 361.538 142.22 360.978 142.3ZM345.978 143.02C345.738 143.1 345.778 143.14 346.098 143.14C346.338 143.14 346.418 143.1 346.338 143.02C346.258 142.94 346.138 142.94 345.978 143.02ZM345.198 143.2C344.958 143.28 344.998 143.32 345.318 143.32C345.558 143.32 345.638 143.28 345.558 143.2C345.478 143.12 345.358 143.12 345.198 143.2ZM344.418 143.38C344.178 143.46 344.218 143.5 344.538 143.5C344.618 143.54 344.678 143.56 344.718 143.56C344.798 143.52 344.818 143.48 344.778 143.44C344.658 143.32 344.538 143.3 344.418 143.38ZM343.878 143.62C343.798 143.58 343.338 143.68 342.498 143.92C341.698 144.12 340.818 144.38 339.858 144.7C338.938 144.98 338.098 145.26 337.338 145.54C336.578 145.78 336.198 145.94 336.198 146.02C336.198 146.1 336.298 146.1 336.498 146.02C336.578 145.98 336.938 145.86 337.578 145.66C338.218 145.46 338.938 145.22 339.738 144.94C340.578 144.66 341.358 144.42 342.078 144.22C342.798 144.02 343.258 143.88 343.458 143.8C343.658 143.76 343.798 143.72 343.878 143.68C343.958 143.64 343.958 143.62 343.878 143.62ZM328.278 151.78C327.838 152.02 327.718 152.1 327.918 152.02C328.118 151.94 328.978 151.62 330.498 151.06C332.578 150.26 334.618 149.54 336.618 148.9C338.618 148.26 340.818 147.66 343.218 147.1C345.618 146.5 348.318 145.92 351.318 145.36C354.358 144.76 357.918 144.1 361.998 143.38L363.138 143.2L361.878 143.26C361.518 143.3 360.758 143.4 359.598 143.56C358.478 143.72 357.218 143.92 355.818 144.16C354.418 144.4 353.018 144.64 351.618 144.88C350.258 145.12 349.178 145.32 348.378 145.48C346.618 145.84 344.718 146.3 342.678 146.86C340.678 147.38 338.738 147.94 336.858 148.54C334.978 149.1 333.278 149.68 331.758 150.28C330.238 150.84 329.078 151.34 328.278 151.78ZM384.774 170.8C385.174 170.64 385.414 170.56 385.494 170.56C385.614 170.56 385.754 170.64 385.914 170.8C386.194 171.04 386.214 171.5 385.974 172.18C385.774 172.82 385.374 173.54 384.774 174.34C384.454 174.7 383.934 175.36 383.214 176.32C382.534 177.28 381.814 178.24 381.054 179.2C377.454 183.96 374.394 187.6 371.874 190.12C369.354 192.6 367.494 193.84 366.294 193.84C365.974 193.84 365.614 193.76 365.214 193.6C364.774 193.36 364.394 193.06 364.074 192.7C363.754 192.3 363.534 192.1 363.414 192.1C363.374 192.1 363.274 192.06 363.114 191.98C362.954 191.86 362.774 191.72 362.574 191.56C362.134 191.24 361.674 190.72 361.194 190C360.754 189.24 360.434 188.5 360.234 187.78L359.934 186.58L359.154 187.54C358.114 188.7 357.074 189.74 356.034 190.66C354.994 191.54 354.134 192.12 353.454 192.4C352.894 192.6 352.354 192.64 351.834 192.52C351.314 192.4 350.834 192.14 350.394 191.74C350.234 191.58 350.054 191.42 349.854 191.26C349.654 191.06 349.454 190.92 349.254 190.84C348.814 190.64 348.314 190.22 347.754 189.58C347.194 188.9 346.774 188.26 346.494 187.66C345.694 185.86 345.614 183.76 346.254 181.36C346.854 178.92 348.254 175.92 350.454 172.36C350.934 171.6 351.434 170.88 351.954 170.2C352.514 169.48 353.034 168.84 353.514 168.28C354.034 167.72 354.514 167.26 354.954 166.9C355.434 166.5 355.834 166.26 356.154 166.18C357.274 165.82 357.934 166.06 358.134 166.9C358.214 167.34 358.374 167.56 358.614 167.56C358.854 167.56 358.974 167.6 358.974 167.68C359.014 167.72 358.954 167.88 358.794 168.16C358.674 168.36 358.614 168.48 358.614 168.52C358.654 168.52 358.774 168.42 358.974 168.22C359.254 168.02 359.394 167.98 359.394 168.1C359.394 168.22 359.454 168.28 359.574 168.28C359.734 168.2 359.934 168.34 360.174 168.7C360.454 169.06 360.594 169.4 360.594 169.72C360.594 170.08 360.274 170.88 359.634 172.12C358.994 173.36 358.094 174.88 356.934 176.68C356.214 177.8 355.594 178.84 355.074 179.8C354.594 180.72 354.154 181.62 353.754 182.5C353.394 183.38 353.074 184.26 352.794 185.14C352.554 186.02 352.334 186.96 352.134 187.96C351.934 188.72 351.894 189.16 352.014 189.28C352.094 189.32 352.274 189.28 352.554 189.16C352.834 189 353.174 188.78 353.574 188.5C353.974 188.22 354.414 187.9 354.894 187.54C355.374 187.14 355.834 186.72 356.274 186.28C357.634 184.96 358.674 183.84 359.394 182.92C360.114 182 360.634 181.14 360.954 180.34C361.154 179.9 361.434 179.3 361.794 178.54C362.154 177.78 362.554 176.96 362.994 176.08C363.474 175.16 363.974 174.24 364.494 173.32C365.014 172.36 365.514 171.48 365.994 170.68C367.034 168.92 368.014 167.56 368.934 166.6C369.614 165.88 370.054 165.46 370.254 165.34C370.494 165.22 370.814 165.18 371.214 165.22C371.654 165.26 371.894 165.32 371.934 165.4C372.014 165.44 372.054 165.62 372.054 165.94C372.014 166.38 372.094 166.52 372.294 166.36C372.694 165.96 372.654 166.24 372.174 167.2L371.754 168.04L372.354 167.32C372.754 166.84 372.994 166.68 373.074 166.84C373.234 167 373.474 167.14 373.794 167.26C374.154 167.46 374.334 167.64 374.334 167.8C374.334 168 374.434 168.14 374.634 168.22C374.834 168.26 374.914 168.62 374.874 169.3C374.714 170.5 373.714 172.7 371.874 175.9C370.834 177.7 369.874 179.46 368.994 181.18C368.154 182.86 367.474 184.34 366.954 185.62C366.514 186.78 366.174 187.84 365.934 188.8C365.694 189.76 365.634 190.3 365.754 190.42C365.874 190.54 366.114 190.54 366.474 190.42C366.834 190.3 367.254 190.1 367.734 189.82C368.254 189.54 368.814 189.2 369.414 188.8C370.014 188.4 370.574 187.98 371.094 187.54C371.694 187.06 372.414 186.36 373.254 185.44C374.134 184.52 375.014 183.54 375.894 182.5C376.774 181.46 377.614 180.4 378.414 179.32C379.214 178.2 379.874 177.22 380.394 176.38C380.594 176.06 380.894 175.6 381.294 175C381.694 174.36 382.114 173.76 382.554 173.2C383.154 172.32 383.594 171.74 383.874 171.46C384.154 171.14 384.454 170.92 384.774 170.8ZM372.714 172.12C372.154 173.16 371.874 173.76 371.874 173.92C371.874 174.04 372.154 173.62 372.714 172.66C372.874 172.38 373.034 172.08 373.194 171.76C373.354 171.4 373.494 171.08 373.614 170.8C373.734 170.52 373.814 170.3 373.854 170.14C373.934 169.94 373.934 169.86 373.854 169.9C373.814 169.94 373.674 170.18 373.434 170.62C373.234 171.06 372.994 171.56 372.714 172.12ZM359.214 170.74C359.094 171.1 359.094 171.24 359.214 171.16C359.334 171.04 359.454 170.8 359.574 170.44C359.694 170.08 359.714 169.94 359.634 170.02C359.554 170.06 359.414 170.3 359.214 170.74ZM354.294 176.38C354.454 176.1 354.494 175.96 354.414 175.96C354.374 175.96 354.274 176.1 354.114 176.38C353.954 176.62 353.914 176.74 353.994 176.74C354.034 176.74 354.134 176.62 354.294 176.38ZM357.174 168.88C356.974 169 356.874 169.12 356.874 169.24C356.874 169.36 357.014 169.26 357.294 168.94C357.534 168.66 357.494 168.64 357.174 168.88ZM353.334 172.84C353.214 173.08 353.174 173.2 353.214 173.2C353.294 173.2 353.394 173.08 353.514 172.84C353.674 172.56 353.714 172.42 353.634 172.42C353.594 172.42 353.494 172.56 353.334 172.84ZM348.234 183.34C348.234 183.46 348.274 183.4 348.354 183.16C348.474 182.88 348.614 182.52 348.774 182.08C348.974 181.64 349.214 181.06 349.494 180.34C349.814 179.58 350.114 178.92 350.394 178.36C350.674 177.8 350.974 177.2 351.294 176.56C351.614 175.92 351.874 175.44 352.074 175.12C352.634 174.24 352.954 173.74 353.034 173.62C353.114 173.46 353.094 173.42 352.974 173.5C352.894 173.54 352.734 173.76 352.494 174.16C352.254 174.52 351.974 174.96 351.654 175.48C351.334 176 351.014 176.56 350.694 177.16C350.374 177.72 350.094 178.24 349.854 178.72C349.414 179.56 349.014 180.46 348.654 181.42C348.334 182.38 348.194 183.02 348.234 183.34ZM348.834 184.72C348.834 185.04 348.854 185.14 348.894 185.02C348.934 184.9 349.114 184.26 349.434 183.1C349.874 181.5 350.594 179.74 351.594 177.82C352.594 175.9 353.934 173.72 355.614 171.28C356.054 170.6 356.314 170.18 356.394 170.02C356.514 169.82 356.434 169.88 356.154 170.2C355.954 170.44 355.654 170.82 355.254 171.34C354.894 171.82 354.494 172.4 354.054 173.08C353.654 173.72 353.234 174.4 352.794 175.12C352.354 175.8 351.954 176.44 351.594 177.04C351.194 177.72 350.814 178.44 350.454 179.2C350.134 179.96 349.854 180.7 349.614 181.42C349.374 182.1 349.174 182.74 349.014 183.34C348.894 183.9 348.834 184.36 348.834 184.72ZM350.454 182.38C350.414 182.54 350.374 182.66 350.334 182.74C350.334 182.82 350.374 182.8 350.454 182.68C350.534 182.56 350.674 182.28 350.874 181.84C351.074 181.4 351.374 180.76 351.774 179.92C352.054 179.36 352.354 178.76 352.674 178.12C352.994 177.48 353.254 177 353.454 176.68C353.654 176.36 353.974 175.84 354.414 175.12C354.894 174.4 355.394 173.64 355.914 172.84C356.434 172.04 356.894 171.32 357.294 170.68C357.734 170.04 357.994 169.66 358.074 169.54C358.194 169.38 358.194 169.3 358.074 169.3C358.034 169.3 357.794 169.6 357.354 170.2C356.914 170.8 356.414 171.52 355.854 172.36C355.294 173.2 354.714 174.08 354.114 175C353.554 175.88 353.094 176.62 352.734 177.22C352.174 178.18 351.674 179.16 351.234 180.16C350.834 181.16 350.574 181.9 350.454 182.38ZM351.534 185.68C351.574 185.76 351.634 185.68 351.714 185.44C351.794 185.2 351.894 184.9 352.014 184.54C352.134 184.14 352.274 183.7 352.434 183.22C352.634 182.74 352.814 182.34 352.974 182.02C353.294 181.3 353.454 180.88 353.454 180.76C353.494 180.64 353.354 180.88 353.034 181.48C352.914 181.72 352.754 182.06 352.554 182.5C352.394 182.9 352.234 183.32 352.074 183.76C351.914 184.2 351.774 184.6 351.654 184.96C351.574 185.32 351.534 185.56 351.534 185.68ZM370.614 176.2C370.974 175.52 371.054 175.3 370.854 175.54C370.734 175.66 370.534 175.94 370.254 176.38C370.014 176.82 369.774 177.28 369.534 177.76C369.294 178.2 369.074 178.6 368.874 178.96C368.714 179.32 368.654 179.5 368.694 179.5C368.734 179.5 368.814 179.4 368.934 179.2C369.094 178.96 369.254 178.68 369.414 178.36C369.574 178.04 369.754 177.68 369.954 177.28C370.194 176.84 370.414 176.48 370.614 176.2ZM362.394 184.06C362.394 184.22 362.434 184.2 362.514 184C362.634 183.76 362.714 183.54 362.754 183.34C362.754 183.26 362.734 183.24 362.694 183.28C362.654 183.32 362.614 183.38 362.574 183.46C362.494 183.54 362.434 183.64 362.394 183.76C362.354 183.88 362.354 183.98 362.394 184.06ZM363.294 184.72C363.454 184.24 363.634 183.7 363.834 183.1C364.034 182.5 364.214 182.04 364.374 181.72C364.694 180.92 364.854 180.48 364.854 180.4C364.894 180.32 364.774 180.44 364.494 180.76C364.374 180.92 364.214 181.22 364.014 181.66C363.854 182.06 363.674 182.5 363.474 182.98C363.314 183.46 363.174 183.94 363.054 184.42C362.934 184.9 362.854 185.3 362.814 185.62C362.774 185.98 362.774 186.1 362.814 185.98C362.894 185.86 363.054 185.44 363.294 184.72ZM364.494 183.94C364.494 183.82 364.694 183.34 365.094 182.5C365.494 181.66 365.974 180.7 366.534 179.62C367.094 178.54 367.654 177.48 368.214 176.44C368.774 175.36 369.234 174.56 369.594 174.04C369.754 173.8 369.834 173.68 369.834 173.68C369.834 173.64 369.754 173.68 369.594 173.8C369.434 173.92 369.154 174.28 368.754 174.88C368.394 175.48 367.994 176.2 367.554 177.04C367.114 177.84 366.674 178.7 366.234 179.62C365.794 180.5 365.394 181.3 365.034 182.02C364.714 182.74 364.474 183.34 364.314 183.82C364.154 184.26 364.154 184.42 364.314 184.3C364.434 184.22 364.494 184.1 364.494 183.94ZM365.394 187.3C365.514 187.18 365.534 187.06 365.454 186.94C365.374 186.7 365.334 186.74 365.334 187.06C365.254 187.34 365.274 187.42 365.394 187.3ZM365.514 186.52C365.514 186.72 365.574 186.68 365.694 186.4C365.814 186.08 366.034 185.52 366.354 184.72C366.554 184.2 366.794 183.62 367.074 182.98C367.394 182.34 367.654 181.8 367.854 181.36C368.054 180.92 368.214 180.56 368.334 180.28C368.494 179.96 368.574 179.78 368.574 179.74C368.534 179.7 368.354 180 368.034 180.64C367.714 181.28 367.354 182.02 366.954 182.86C366.594 183.66 366.254 184.44 365.934 185.2C365.654 185.92 365.514 186.36 365.514 186.52ZM372.174 188.08C372.454 187.72 372.574 187.54 372.534 187.54C372.454 187.54 372.274 187.72 371.994 188.08C371.834 188.2 371.714 188.32 371.634 188.44C371.594 188.52 371.594 188.56 371.634 188.56C371.674 188.56 371.734 188.52 371.814 188.44C371.934 188.32 372.054 188.2 372.174 188.08ZM375.954 184.66C376.114 184.5 376.154 184.38 376.074 184.3C375.994 184.22 375.914 184.3 375.834 184.54C375.754 184.74 375.794 184.78 375.954 184.66ZM376.614 183.04C376.574 183.08 376.534 183.12 376.494 183.16C376.454 183.16 376.414 183.18 376.374 183.22C376.374 183.26 376.354 183.3 376.314 183.34C376.314 183.46 376.454 183.38 376.734 183.1C376.854 182.94 376.914 182.86 376.914 182.86C376.914 182.86 376.814 182.92 376.614 183.04ZM376.794 183.64C376.994 183.36 377.074 183.22 377.034 183.22C376.954 183.22 376.814 183.36 376.614 183.64C376.334 183.92 376.234 184.06 376.314 184.06C376.434 184.06 376.594 183.92 376.794 183.64ZM379.074 180.7C379.194 180.5 379.254 180.36 379.254 180.28C379.294 180.16 379.274 180.14 379.194 180.22C379.034 180.42 378.914 180.48 378.834 180.4C378.794 180.32 378.654 180.4 378.414 180.64C378.294 180.8 378.234 180.88 378.234 180.88C378.234 180.88 378.334 180.82 378.534 180.7C378.774 180.5 378.874 180.48 378.834 180.64C378.834 180.76 378.674 181.02 378.354 181.42C378.234 181.62 378.114 181.78 377.994 181.9C377.914 182.02 377.874 182.12 377.874 182.2C377.874 182.32 378.274 181.82 379.074 180.7ZM380.214 178.54C380.374 178.3 380.474 178.16 380.514 178.12C380.514 178.04 380.534 177.98 380.574 177.94C380.494 177.94 380.314 178.14 380.034 178.54C379.914 178.7 379.814 178.84 379.734 178.96C379.694 179.08 379.694 179.14 379.734 179.14L380.214 178.54ZM381.834 176.92C381.914 176.72 381.874 176.64 381.714 176.68C381.554 176.68 381.374 176.78 381.174 176.98C381.054 177.1 380.994 177.16 380.994 177.16C381.034 177.16 381.114 177.1 381.234 176.98C381.474 176.82 381.614 176.82 381.654 176.98C381.734 177.18 381.794 177.16 381.834 176.92ZM383.454 173.86C383.614 173.66 383.734 173.5 383.814 173.38C383.894 173.26 383.894 173.24 383.814 173.32C383.774 173.36 383.694 173.44 383.574 173.56C383.454 173.68 383.334 173.82 383.214 173.98C383.094 174.14 382.994 174.28 382.914 174.4C382.834 174.52 382.814 174.58 382.854 174.58C382.894 174.58 383.094 174.34 383.454 173.86ZM385.614 171.4C385.734 171.48 385.754 171.44 385.674 171.28C385.594 171.12 385.474 171.08 385.314 171.16C385.194 171.24 384.994 171.48 384.714 171.88C384.434 172.28 384.394 172.42 384.594 172.3C384.674 172.22 384.754 172.18 384.834 172.18C384.914 172.14 384.954 172.14 384.954 172.18C385.074 172.18 385.214 172.08 385.374 171.88C385.494 171.72 385.554 171.64 385.554 171.64C385.554 171.64 385.474 171.7 385.314 171.82C385.074 171.98 384.954 172 384.954 171.88C384.954 171.72 385.034 171.58 385.194 171.46C385.394 171.34 385.534 171.32 385.614 171.4ZM417.983 152.68C418.263 152.8 418.503 153.06 418.703 153.46C418.903 153.82 418.963 154.06 418.883 154.18C418.843 154.22 418.403 154.28 417.563 154.36C416.723 154.4 415.723 154.46 414.563 154.54C413.363 154.62 412.363 154.7 411.563 154.78C410.763 154.86 409.983 154.94 409.223 155.02C408.463 155.1 407.663 155.22 406.823 155.38C405.983 155.5 404.943 155.66 403.703 155.86C402.423 156.06 401.463 156.22 400.823 156.34C400.183 156.42 399.683 156.56 399.323 156.76C399.003 156.92 398.743 157.16 398.543 157.48C398.383 157.8 398.123 158.3 397.763 158.98C397.603 159.3 397.363 159.74 397.043 160.3C396.763 160.82 396.423 161.42 396.023 162.1C395.623 162.74 395.203 163.44 394.763 164.2C394.363 164.92 393.963 165.64 393.563 166.36C392.803 167.64 392.023 169.02 391.223 170.5C390.463 171.94 389.723 173.38 389.003 174.82C388.283 176.22 387.623 177.54 387.023 178.78C386.423 180.02 385.963 181.06 385.643 181.9C385.443 182.38 385.163 183.14 384.803 184.18C384.483 185.18 384.163 186.14 383.843 187.06C383.403 188.42 383.103 189.46 382.943 190.18C382.783 190.86 382.683 191.54 382.643 192.22C382.563 193.22 382.603 193.78 382.763 193.9C382.923 193.98 383.523 193.76 384.563 193.24C384.843 193.08 385.103 192.92 385.343 192.76C385.623 192.6 385.903 192.4 386.183 192.16C386.463 191.92 386.783 191.64 387.143 191.32C387.503 190.96 387.943 190.52 388.463 190C389.303 189.12 390.083 188.3 390.803 187.54C391.523 186.78 392.303 185.88 393.143 184.84C394.023 183.76 395.063 182.46 396.263 180.94C397.463 179.38 398.983 177.38 400.823 174.94C401.783 173.66 402.403 172.86 402.683 172.54C403.003 172.18 403.163 172.1 403.163 172.3C403.163 172.46 403.243 172.5 403.403 172.42C403.683 172.22 403.623 172.46 403.223 173.14C402.863 173.82 402.023 175.16 400.703 177.16C399.783 178.56 398.803 180.02 397.763 181.54C396.723 183.02 395.703 184.44 394.703 185.8C393.703 187.16 392.763 188.4 391.883 189.52C391.003 190.64 390.263 191.54 389.663 192.22C387.983 194.14 386.543 195.4 385.343 196C384.183 196.64 383.143 196.68 382.223 196.12C382.023 196 381.783 195.9 381.503 195.82C381.263 195.7 381.043 195.6 380.843 195.52C380.643 195.44 380.363 195.3 380.003 195.1C379.643 194.86 379.303 194.62 378.983 194.38C377.583 193.3 376.723 191.76 376.403 189.76C376.043 187.76 376.203 185.5 376.883 182.98C377.163 181.98 377.623 180.72 378.263 179.2C378.863 177.68 379.583 176.04 380.423 174.28C381.263 172.48 382.163 170.64 383.123 168.76C384.123 166.88 385.143 165.06 386.183 163.3C386.543 162.7 386.863 162.16 387.143 161.68C387.463 161.16 387.723 160.7 387.923 160.3C388.203 159.86 388.443 159.44 388.643 159.04C388.563 159.04 388.483 159.06 388.403 159.1C388.203 159.1 387.983 159.16 387.743 159.28C387.143 159.48 386.683 159.58 386.363 159.58C386.083 159.58 385.863 159.48 385.703 159.28C385.543 159.08 385.543 158.84 385.703 158.56C385.823 158.28 385.863 158.16 385.823 158.2C385.703 158.32 385.523 158.24 385.283 157.96C385.043 157.64 384.903 157.34 384.863 157.06C384.823 156.5 385.063 156.1 385.583 155.86C386.103 155.58 387.283 155.24 389.123 154.84C389.923 154.68 390.523 154.56 390.923 154.48C391.323 154.36 391.663 154.22 391.943 154.06C392.223 153.86 392.483 153.58 392.723 153.22C393.003 152.86 393.383 152.34 393.863 151.66C394.223 151.1 394.623 150.58 395.063 150.1C395.503 149.58 395.923 149.12 396.323 148.72C396.723 148.28 397.083 147.94 397.403 147.7C397.763 147.42 398.043 147.26 398.243 147.22C399.043 146.98 399.483 147.32 399.563 148.24C399.563 148.56 399.563 148.74 399.563 148.78C399.603 148.82 399.723 148.76 399.923 148.6C400.083 148.44 400.163 148.36 400.163 148.36C400.203 148.36 400.223 148.46 400.223 148.66C400.223 148.86 400.303 148.92 400.463 148.84C400.583 148.76 400.743 148.82 400.943 149.02C401.143 149.22 401.243 149.42 401.243 149.62C401.243 149.82 401.303 149.9 401.423 149.86C401.623 149.74 401.723 149.86 401.723 150.22C401.723 150.54 401.623 150.98 401.423 151.54C401.303 151.86 401.203 152.16 401.123 152.44C401.083 152.68 401.083 152.82 401.123 152.86C401.163 152.86 401.603 152.86 402.443 152.86C403.323 152.82 404.363 152.76 405.563 152.68C409.123 152.48 412.003 152.38 414.203 152.38C416.403 152.38 417.663 152.48 417.983 152.68ZM378.563 189.76C378.643 189.4 378.643 189 378.563 188.56C378.523 188.36 378.503 188.54 378.503 189.1C378.503 189.74 378.523 189.96 378.563 189.76ZM379.823 186.28C379.863 186.08 379.903 185.9 379.943 185.74C379.983 185.54 380.003 185.4 380.003 185.32C380.003 185.2 379.963 185.22 379.883 185.38C379.843 185.5 379.783 185.7 379.703 185.98C379.623 186.26 379.543 186.58 379.463 186.94C379.383 187.3 379.303 187.66 379.223 188.02C379.143 188.38 379.103 188.78 379.103 189.22C379.063 189.62 379.083 190 379.163 190.36C379.243 190.92 379.283 191.16 379.283 191.08C379.323 190.96 379.383 190.34 379.463 189.22C379.503 188.58 379.543 187.98 379.583 187.42C379.663 186.86 379.743 186.48 379.823 186.28ZM381.683 183.22C381.763 183.06 381.783 182.98 381.743 182.98C381.743 182.98 381.703 183.04 381.623 183.16C381.503 183.32 381.363 183.68 381.203 184.24C381.043 184.76 380.883 185.34 380.723 185.98C380.563 186.58 380.423 187.2 380.303 187.84C380.183 188.48 380.123 188.98 380.123 189.34L380.003 190.9L380.243 189.64C380.323 189.28 380.423 188.76 380.543 188.08C380.663 187.36 380.803 186.66 380.963 185.98C381.163 185.3 381.323 184.7 381.443 184.18C381.563 183.66 381.643 183.34 381.683 183.22ZM398.483 178.9C398.283 178.98 398.243 179.08 398.363 179.2C398.443 179.4 398.543 179.44 398.663 179.32C398.783 179.2 398.823 179.08 398.783 178.96C398.663 178.84 398.563 178.82 398.483 178.9ZM396.863 181.72C396.743 181.88 396.743 181.94 396.863 181.9C397.063 181.7 397.203 181.52 397.283 181.36C397.403 181.16 397.383 181.06 397.223 181.06C397.023 181.06 396.963 181.1 397.043 181.18C397.083 181.3 397.023 181.48 396.863 181.72ZM395.243 183.28C395.163 183.44 395.223 183.5 395.423 183.46C395.623 183.42 395.803 183.3 395.963 183.1C396.083 182.98 396.063 182.98 395.903 183.1C395.703 183.26 395.563 183.3 395.483 183.22C395.443 183.14 395.363 183.16 395.243 183.28ZM394.703 184.66C394.383 184.94 394.283 185.08 394.403 185.08C394.523 185.08 394.643 184.98 394.763 184.78C394.883 184.58 394.943 184.48 394.943 184.48C394.943 184.48 394.863 184.54 394.703 184.66ZM393.923 185.68C393.883 185.72 393.843 185.76 393.803 185.8C393.763 185.8 393.723 185.82 393.683 185.86C393.643 185.9 393.603 185.94 393.563 185.98C393.563 186.18 393.703 186.1 393.983 185.74C394.103 185.58 394.163 185.5 394.163 185.5C394.163 185.5 394.083 185.56 393.923 185.68ZM390.743 162.52C390.423 163.12 390.383 163.24 390.623 162.88C390.903 162.48 391.423 161.66 392.183 160.42C392.623 159.74 392.943 159.22 393.143 158.86C393.383 158.46 393.543 158.18 393.623 158.02C393.703 157.86 393.743 157.78 393.743 157.78C393.743 157.78 393.703 157.82 393.623 157.9C393.543 157.94 393.363 158.18 393.083 158.62C392.843 159.02 392.563 159.48 392.243 160C391.923 160.48 391.623 160.98 391.343 161.5C391.063 161.98 390.863 162.32 390.743 162.52ZM390.143 163.6C390.063 163.72 389.963 163.88 389.843 164.08C389.723 164.24 389.603 164.4 389.483 164.56C389.403 164.72 389.343 164.86 389.303 164.98C389.263 165.06 389.283 165.06 389.363 164.98C389.443 164.9 389.543 164.76 389.663 164.56C389.783 164.36 389.903 164.16 390.023 163.96C390.143 163.76 390.203 163.62 390.203 163.54C390.243 163.46 390.223 163.48 390.143 163.6ZM386.303 172.78C386.463 172.62 386.503 172.5 386.423 172.42C386.383 172.38 386.303 172.46 386.183 172.66C386.143 172.86 386.183 172.9 386.303 172.78ZM387.263 170.98C387.463 170.66 387.603 170.38 387.683 170.14C387.763 169.9 387.783 169.78 387.743 169.78C387.663 169.9 387.583 170.02 387.503 170.14C387.423 170.22 387.343 170.34 387.263 170.5C387.223 170.62 387.163 170.78 387.083 170.98C386.883 171.3 386.743 171.58 386.663 171.82C386.583 172.02 386.563 172.12 386.603 172.12C386.643 172.12 386.723 172.02 386.843 171.82C386.963 171.58 387.103 171.3 387.263 170.98ZM388.163 169.3C388.243 169.06 388.203 168.98 388.043 169.06C387.923 169.18 387.863 169.3 387.863 169.42C387.863 169.66 387.963 169.62 388.163 169.3ZM395.063 157.66C395.103 157.46 395.103 157.36 395.063 157.36C395.063 157.36 395.003 157.46 394.883 157.66C394.283 158.54 393.323 160.1 392.003 162.34C391.603 163.02 391.163 163.76 390.683 164.56C390.243 165.32 389.883 165.92 389.603 166.36C389.043 167.28 388.663 167.92 388.463 168.28C388.303 168.64 388.263 168.82 388.343 168.82C388.383 168.82 388.543 168.58 388.823 168.1C389.103 167.62 389.443 167.04 389.843 166.36C390.243 165.68 390.743 164.82 391.343 163.78C391.983 162.74 392.563 161.82 393.083 161.02C393.603 160.18 394.043 159.44 394.403 158.8C394.803 158.12 395.023 157.74 395.063 157.66ZM396.443 153.46C396.523 153.42 396.683 153.24 396.923 152.92C397.163 152.56 397.443 152.16 397.763 151.72C398.083 151.28 398.343 150.9 398.543 150.58C398.743 150.22 398.823 150.02 398.783 149.98C398.743 149.94 398.623 150.06 398.423 150.34C398.223 150.62 397.963 150.98 397.643 151.42C396.963 152.38 396.563 152.98 396.443 153.22C396.323 153.42 396.323 153.5 396.443 153.46ZM398.723 151.96C399.203 151.2 399.503 150.68 399.623 150.4C399.783 150.08 399.783 149.92 399.623 149.92C399.503 149.92 399.443 149.98 399.443 150.1C399.443 150.14 399.363 150.32 399.203 150.64C399.043 150.92 398.843 151.24 398.603 151.6C398.323 152 398.103 152.34 397.943 152.62C397.783 152.9 397.703 153.06 397.703 153.1C397.703 153.3 397.763 153.32 397.883 153.16C398.043 152.96 398.323 152.56 398.723 151.96ZM400.103 152.8C400.343 152.48 400.463 152.28 400.463 152.2C400.463 151.96 400.323 152.12 400.043 152.68C399.963 152.92 399.923 153.06 399.923 153.1C399.923 153.1 399.983 153 400.103 152.8ZM400.643 151.72C400.763 151.52 400.823 151.34 400.823 151.18C400.823 151.06 400.763 151.1 400.643 151.3C400.523 151.46 400.463 151.62 400.463 151.78C400.463 151.86 400.523 151.84 400.643 151.72ZM418.452 164.68C418.772 164.88 419.152 165.24 419.592 165.76C420.072 166.24 420.372 166.66 420.492 167.02C420.692 167.46 420.812 168.06 420.852 168.82C420.892 169.58 420.872 170.32 420.792 171.04C420.472 173.76 419.632 176.58 418.272 179.5C416.912 182.38 415.172 185.02 413.052 187.42C410.052 190.9 407.412 192.64 405.132 192.64C404.572 192.64 403.972 192.5 403.332 192.22C402.732 191.94 402.272 191.56 401.952 191.08C401.792 190.88 401.592 190.68 401.352 190.48C401.112 190.28 400.892 190.12 400.692 190C400.252 189.76 399.752 189.28 399.192 188.56C398.632 187.8 398.192 187.04 397.872 186.28C397.552 185.48 397.372 184.56 397.332 183.52C397.252 182.48 397.312 181.4 397.512 180.28C397.672 179.16 397.952 178.04 398.352 176.92C398.752 175.76 399.252 174.68 399.852 173.68C400.132 173.24 400.492 172.7 400.932 172.06C401.372 171.42 401.852 170.82 402.372 170.26C402.932 169.66 403.512 169.16 404.112 168.76C404.712 168.32 405.332 168.1 405.972 168.1C406.452 168.1 406.952 168.36 407.472 168.88C407.672 169.08 407.852 169.26 408.012 169.42C408.212 169.58 408.352 169.66 408.432 169.66C408.592 169.66 408.672 169.76 408.672 169.96C408.672 170.12 408.732 170.18 408.852 170.14C409.092 169.98 409.132 170.16 408.972 170.68C408.812 171.2 408.512 171.82 408.072 172.54C407.232 173.9 406.532 175.14 405.972 176.26C405.412 177.34 404.932 178.36 404.532 179.32C404.132 180.28 403.832 181.2 403.632 182.08C403.432 182.96 403.272 183.88 403.152 184.84C403.032 185.88 402.992 186.7 403.032 187.3C403.112 187.86 403.272 188.14 403.512 188.14C403.792 188.14 404.272 187.96 404.952 187.6C405.672 187.2 406.372 186.76 407.052 186.28C407.612 185.84 408.212 185.26 408.852 184.54C409.492 183.82 410.132 183.04 410.772 182.2C411.412 181.32 412.012 180.42 412.572 179.5C413.132 178.54 413.592 177.64 413.952 176.8C414.192 176.28 414.412 175.7 414.612 175.06C414.852 174.38 415.052 173.7 415.212 173.02C415.412 172.34 415.572 171.66 415.692 170.98C415.852 170.3 415.952 169.7 415.992 169.18C416.112 168.38 416.072 167.98 415.872 167.98C415.712 167.98 415.472 168.06 415.152 168.22C414.872 168.34 414.452 168.54 413.892 168.82C413.492 169.02 413.132 169.18 412.812 169.3C412.492 169.42 412.292 169.48 412.212 169.48C412.012 169.48 411.772 169.62 411.492 169.9C411.172 170.18 410.892 170.24 410.652 170.08C410.372 169.92 410.232 169.74 410.232 169.54C410.232 169.38 410.072 169.22 409.752 169.06C409.312 168.9 409.012 168.64 408.852 168.28C408.732 167.92 408.672 167.36 408.672 166.6C408.672 165.96 408.692 165.52 408.732 165.28C408.812 165 409.012 164.64 409.332 164.2C409.772 163.52 410.372 162.98 411.132 162.58C411.932 162.18 412.792 161.98 413.712 161.98C415.352 161.98 416.532 162.52 417.252 163.6C417.612 164 418.012 164.36 418.452 164.68ZM410.112 168.1C410.192 168.1 410.332 167.88 410.532 167.44L410.832 166.78L410.412 167.32C410.012 167.84 409.912 168.1 410.112 168.1ZM410.832 168.1C410.992 167.82 411.012 167.68 410.892 167.68C410.852 167.72 410.812 167.76 410.772 167.8C410.732 167.84 410.672 167.94 410.592 168.1C410.552 168.14 410.532 168.18 410.532 168.22C410.532 168.26 410.512 168.3 410.472 168.34C410.472 168.38 410.472 168.42 410.472 168.46C410.552 168.46 410.672 168.34 410.832 168.1ZM399.912 179.14C399.872 179.34 399.892 179.34 399.972 179.14C400.092 178.9 400.252 178.54 400.452 178.06C400.652 177.62 400.852 177.16 401.052 176.68C401.292 176.16 401.452 175.8 401.532 175.6C401.812 175.04 401.932 174.76 401.892 174.76C401.812 174.76 401.672 174.94 401.472 175.3C401.272 175.66 401.052 176.08 400.812 176.56C400.612 177.04 400.412 177.54 400.212 178.06C400.052 178.54 399.952 178.9 399.912 179.14ZM400.872 179.38C401.072 178.82 401.292 178.22 401.532 177.58C401.812 176.9 402.052 176.34 402.252 175.9C402.452 175.5 402.652 175.12 402.852 174.76C403.092 174.36 403.252 174.1 403.332 173.98C403.412 173.82 403.532 173.62 403.692 173.38C403.852 173.14 403.992 172.92 404.112 172.72L404.592 171.94L403.992 172.6C403.592 173.04 403.192 173.6 402.792 174.28C402.392 174.96 402.012 175.68 401.652 176.44C401.332 177.2 401.032 177.94 400.752 178.66C400.512 179.38 400.352 180.02 400.272 180.58C400.232 180.78 400.272 180.78 400.392 180.58C400.512 180.34 400.672 179.94 400.872 179.38ZM402.552 176.74C402.072 177.9 401.852 178.48 401.892 178.48C401.972 178.48 402.212 178.08 402.612 177.28C403.092 176.36 403.572 175.48 404.052 174.64C404.572 173.76 405.112 172.88 405.672 172C406.112 171.4 406.332 171.08 406.332 171.04C406.332 170.96 406.152 171.12 405.792 171.52C405.352 172 404.812 172.78 404.172 173.86C403.532 174.9 402.992 175.86 402.552 176.74ZM403.032 180.46C402.912 180.9 402.912 181.02 403.032 180.82C403.152 180.62 403.352 180.18 403.632 179.5C403.752 179.14 403.852 178.84 403.932 178.6C404.052 178.32 404.092 178.18 404.052 178.18C403.972 178.18 403.812 178.48 403.572 179.08C403.332 179.64 403.152 180.1 403.032 180.46ZM416.892 173.26C416.892 173.54 416.932 173.64 417.012 173.56C417.052 173.44 417.052 173.3 417.012 173.14C416.972 173.06 416.932 173.1 416.892 173.26ZM416.892 173.92C416.892 173.92 416.812 174.1 416.652 174.46C416.492 174.82 416.332 175.22 416.172 175.66C416.012 176.06 415.852 176.46 415.692 176.86C415.572 177.22 415.512 177.42 415.512 177.46V177.52C415.632 177.52 415.892 176.96 416.292 175.84C416.492 175.4 416.632 175 416.712 174.64C416.832 174.24 416.892 174 416.892 173.92ZM412.572 184.84C412.732 184.68 412.792 184.6 412.752 184.6C412.752 184.6 412.672 184.66 412.512 184.78C412.472 184.82 412.432 184.86 412.392 184.9C412.352 184.9 412.312 184.92 412.272 184.96C412.272 185 412.252 185.04 412.212 185.08C412.212 185.2 412.332 185.12 412.572 184.84ZM417.252 176.98C417.532 176.1 417.652 175.66 417.612 175.66C417.532 175.66 417.352 176 417.072 176.68C416.672 177.68 416.192 178.7 415.632 179.74C415.112 180.74 414.592 181.64 414.072 182.44C413.792 182.84 413.532 183.22 413.292 183.58C413.092 183.9 412.972 184.1 412.932 184.18C412.852 184.34 412.852 184.38 412.932 184.3C413.012 184.18 413.132 184.02 413.292 183.82C413.492 183.58 413.712 183.3 413.952 182.98C414.192 182.66 414.412 182.34 414.612 182.02C415.132 181.26 415.612 180.44 416.052 179.56C416.532 178.68 416.932 177.82 417.252 176.98ZM417.372 174.52C417.732 173.16 417.892 172.48 417.852 172.48C417.812 172.48 417.532 173.2 417.012 174.64C416.572 175.96 416.112 177.16 415.632 178.24C415.192 179.28 414.692 180.28 414.132 181.24C413.932 181.56 413.812 181.78 413.772 181.9C413.732 182.02 413.792 182 413.952 181.84C414.192 181.56 414.472 181.1 414.792 180.46C415.152 179.78 415.512 179.06 415.872 178.3C416.232 177.54 416.552 176.82 416.832 176.14C417.112 175.42 417.292 174.88 417.372 174.52ZM428.776 162.7C429.096 162.46 429.456 162.42 429.856 162.58C430.256 162.74 430.416 163 430.336 163.36C430.216 163.72 430.256 163.84 430.456 163.72C430.656 163.68 430.696 163.82 430.576 164.14C430.416 164.5 430.336 164.72 430.336 164.8C430.376 164.84 430.496 164.72 430.696 164.44C430.856 164.24 430.956 164.14 430.996 164.14C431.076 164.1 431.156 164.14 431.236 164.26C431.396 164.46 431.616 164.64 431.896 164.8C432.176 164.92 432.316 165.08 432.316 165.28C432.316 165.48 432.376 165.58 432.496 165.58C432.696 165.58 432.756 165.86 432.676 166.42C432.636 166.98 432.456 167.62 432.136 168.34C431.976 168.7 431.836 169.02 431.716 169.3C431.636 169.58 431.616 169.72 431.656 169.72C431.736 169.64 431.816 169.58 431.896 169.54L432.436 169C434.236 167.4 435.916 166.68 437.476 166.84C437.956 166.88 438.616 167.1 439.456 167.5C440.296 167.9 441.096 168.36 441.856 168.88C442.656 169.36 443.336 169.84 443.896 170.32C444.496 170.8 444.756 171.14 444.676 171.34C444.596 171.54 444.276 171.7 443.716 171.82C443.276 171.98 442.956 172.04 442.756 172C442.556 171.96 442.156 171.82 441.556 171.58C440.676 171.26 440.016 171.06 439.576 170.98C439.176 170.9 438.756 170.94 438.316 171.1C437.716 171.26 437.076 171.58 436.396 172.06C435.716 172.54 434.896 173.28 433.936 174.28C432.416 175.8 430.916 177.56 429.436 179.56C427.996 181.52 426.576 183.68 425.176 186.04C424.896 186.56 424.576 187.16 424.216 187.84C423.856 188.48 423.516 189.1 423.196 189.7C422.876 190.3 422.616 190.82 422.416 191.26C422.216 191.7 422.116 191.96 422.116 192.04C422.116 192.2 421.976 192.38 421.696 192.58C421.456 192.82 421.336 192.86 421.336 192.7C421.336 192.54 421.236 192.54 421.036 192.7C420.876 192.82 420.696 192.76 420.496 192.52C420.256 192.28 420.136 192.06 420.136 191.86C420.136 191.5 419.776 191.32 419.056 191.32C418.736 191.32 418.416 191.08 418.096 190.6C417.776 190.08 417.616 189.54 417.616 188.98C417.616 187.46 418.056 185.4 418.936 182.8C419.776 180.16 421.136 176.74 423.016 172.54C423.416 171.7 423.896 170.74 424.456 169.66C425.056 168.58 425.636 167.56 426.196 166.6C426.756 165.6 427.276 164.74 427.756 164.02C428.236 163.3 428.576 162.86 428.776 162.7ZM431.956 173.32C431.476 173.8 431.296 174.04 431.416 174.04L432.076 173.38L432.616 172.78L431.956 173.32ZM420.616 184.9C421.016 183.7 421.516 182.32 422.116 180.76C422.756 179.2 423.436 177.6 424.156 175.96C424.876 174.28 425.636 172.64 426.436 171.04C427.236 169.44 427.996 168 428.716 166.72C428.956 166.28 429.156 165.9 429.316 165.58C429.476 165.26 429.536 165.08 429.496 165.04C429.456 165 429.296 165.22 429.016 165.7C428.736 166.14 428.396 166.76 427.996 167.56C427.596 168.32 427.136 169.2 426.616 170.2C426.136 171.16 425.656 172.16 425.176 173.2C424.696 174.2 424.236 175.18 423.796 176.14C423.356 177.06 422.996 177.86 422.716 178.54C422.316 179.5 421.936 180.46 421.576 181.42C421.216 182.38 420.916 183.26 420.676 184.06C420.396 184.82 420.196 185.44 420.076 185.92C419.916 186.36 419.876 186.56 419.956 186.52C420.036 186.48 420.136 186.32 420.256 186.04C420.376 185.72 420.496 185.34 420.616 184.9ZM422.056 182.74C422.176 182.46 422.416 181.88 422.776 181C423.176 180.12 423.576 179.18 423.976 178.18C424.176 177.66 424.416 177.06 424.696 176.38C425.016 175.7 425.336 175 425.656 174.28C426.016 173.56 426.376 172.84 426.736 172.12C427.096 171.4 427.436 170.74 427.756 170.14C428.356 168.94 428.856 167.92 429.256 167.08C429.656 166.24 429.816 165.82 429.736 165.82C429.696 165.86 429.476 166.24 429.076 166.96C428.676 167.64 428.216 168.5 427.696 169.54C427.176 170.54 426.636 171.6 426.076 172.72C425.516 173.84 425.056 174.82 424.696 175.66C424.256 176.66 423.816 177.66 423.376 178.66C422.976 179.62 422.616 180.5 422.296 181.3C422.016 182.06 421.796 182.68 421.636 183.16C421.476 183.6 421.436 183.8 421.516 183.76C421.556 183.76 421.636 183.66 421.756 183.46C421.836 183.26 421.936 183.02 422.056 182.74ZM427.816 178.66L427.336 179.26C427.016 179.58 426.856 179.84 426.856 180.04C426.856 180.12 426.876 180.14 426.916 180.1C426.956 180.02 427.116 179.76 427.396 179.32L427.816 178.66ZM429.376 176.68C429.976 175.88 430.096 175.66 429.736 176.02C429.576 176.22 429.376 176.48 429.136 176.8C428.896 177.12 428.656 177.42 428.416 177.7C428.216 177.98 428.076 178.2 427.996 178.36C427.916 178.48 427.936 178.48 428.056 178.36C428.136 178.28 428.296 178.08 428.536 177.76C428.776 177.44 429.056 177.08 429.376 176.68ZM430.996 174.7C431.116 174.5 431.176 174.4 431.176 174.4C431.176 174.4 431.076 174.46 430.876 174.58C430.676 174.78 430.576 174.9 430.576 174.94C430.576 175.06 430.716 174.98 430.996 174.7ZM430.456 169.78C430.256 170.22 430.056 170.64 429.856 171.04C429.696 171.4 429.596 171.64 429.556 171.76C429.436 171.96 429.416 172.06 429.496 172.06C429.536 172.06 429.636 171.88 429.796 171.52C429.996 171.16 430.236 170.72 430.516 170.2C430.756 169.68 430.956 169.24 431.116 168.88C431.276 168.48 431.336 168.26 431.296 168.22C431.256 168.18 431.156 168.32 430.996 168.64C430.836 168.96 430.656 169.34 430.456 169.78ZM427.996 171.58C428.676 170.1 429.236 168.9 429.676 167.98C430.156 167.02 430.356 166.58 430.276 166.66C430.156 166.82 429.896 167.28 429.496 168.04C429.096 168.8 428.636 169.7 428.116 170.74C427.636 171.74 427.136 172.76 426.616 173.8C426.096 174.84 425.676 175.72 425.356 176.44C424.796 177.72 424.436 178.58 424.276 179.02C424.156 179.42 424.356 179.1 424.876 178.06C424.956 177.9 425.096 177.62 425.296 177.22C425.496 176.78 425.736 176.28 426.016 175.72C426.296 175.12 426.596 174.46 426.916 173.74C427.276 173.02 427.636 172.3 427.996 171.58ZM465.908 172.96C466.068 173.12 466.088 173.3 465.968 173.5C465.888 173.7 465.568 174.24 465.008 175.12C463.768 177 462.448 178.82 461.048 180.58C459.688 182.34 458.368 183.94 457.088 185.38C455.808 186.82 454.608 188.04 453.488 189.04C452.408 190.04 451.508 190.72 450.788 191.08C450.108 191.4 449.528 191.6 449.048 191.68C448.608 191.76 448.148 191.7 447.668 191.5C447.468 191.42 447.248 191.32 447.008 191.2C446.768 191.04 446.568 190.88 446.408 190.72C446.248 190.6 446.048 190.46 445.808 190.3C445.568 190.1 445.348 189.94 445.148 189.82C444.348 189.34 443.668 188.54 443.108 187.42C442.508 186.26 442.168 185.04 442.088 183.76C442.008 182.2 442.188 180.62 442.628 179.02C443.028 177.42 443.788 175.52 444.908 173.32C446.628 169.84 448.208 167.44 449.648 166.12C451.088 164.76 452.088 164.74 452.648 166.06C452.848 166.42 453.048 166.6 453.248 166.6C453.488 166.52 453.568 166.6 453.488 166.84C453.448 167.12 453.548 167.2 453.788 167.08C453.948 167.04 454.008 167.06 453.968 167.14C453.928 167.26 454.008 167.3 454.208 167.26C454.488 167.22 454.628 167.3 454.628 167.5C454.628 167.7 454.728 167.8 454.928 167.8C455.088 167.8 455.168 167.9 455.168 168.1C455.208 168.3 455.128 168.64 454.928 169.12C454.768 169.6 454.488 170.26 454.088 171.1C453.728 171.94 453.228 173 452.588 174.28C451.628 176.2 450.828 177.88 450.188 179.32C449.548 180.72 449.028 181.96 448.628 183.04C448.268 184.08 447.988 185 447.788 185.8C447.628 186.56 447.548 187.26 447.548 187.9V188.86L448.328 188.74C448.808 188.66 449.388 188.46 450.068 188.14C450.748 187.82 451.488 187.4 452.288 186.88C453.088 186.32 454.128 185.36 455.408 184C456.688 182.64 458.348 180.78 460.388 178.42C460.908 177.78 461.508 177.08 462.188 176.32C462.908 175.52 463.488 174.88 463.928 174.4C464.728 173.56 465.208 173.08 465.368 172.96C465.568 172.8 465.748 172.8 465.908 172.96ZM448.328 181.36C448.448 181.16 448.508 181 448.508 180.88C448.508 180.8 448.448 180.82 448.328 180.94C448.208 181.1 448.148 181.28 448.148 181.48C448.148 181.56 448.208 181.52 448.328 181.36ZM449.168 179.44C449.328 179.08 449.448 178.78 449.528 178.54C449.648 178.26 449.688 178.1 449.648 178.06C449.648 178.06 449.588 178.18 449.468 178.42C449.348 178.62 449.208 178.88 449.048 179.2C448.928 179.48 448.808 179.76 448.688 180.04C448.608 180.32 448.568 180.48 448.568 180.52C448.568 180.6 448.608 180.52 448.688 180.28C448.808 180.04 448.968 179.76 449.168 179.44ZM450.188 177.1C450.228 177.02 450.228 176.96 450.188 176.92C450.188 176.88 450.168 176.88 450.128 176.92C449.968 177 449.888 177.1 449.888 177.22C449.888 177.38 449.908 177.46 449.948 177.46C450.028 177.42 450.108 177.3 450.188 177.1ZM451.388 171.82C451.468 171.62 451.428 171.56 451.268 171.64C451.148 171.68 451.088 171.78 451.088 171.94C451.088 172.26 451.188 172.22 451.388 171.82ZM448.328 172.12C448.048 172.64 447.948 172.9 448.028 172.9C448.068 172.9 448.128 172.82 448.208 172.66C448.328 172.5 448.428 172.32 448.508 172.12C448.788 171.6 448.888 171.34 448.808 171.34C448.768 171.42 448.728 171.5 448.688 171.58C448.568 171.7 448.448 171.88 448.328 172.12ZM444.248 181.84C444.248 181.96 444.328 181.84 444.488 181.48C444.608 181.12 444.768 180.62 444.968 179.98C445.168 179.34 445.428 178.66 445.748 177.94C446.068 177.18 446.328 176.58 446.528 176.14C446.968 175.22 447.308 174.48 447.548 173.92C447.828 173.36 447.928 173.08 447.848 173.08C447.808 173.08 447.648 173.34 447.368 173.86C447.128 174.38 446.828 175 446.468 175.72C445.828 177.04 445.288 178.3 444.848 179.5C444.408 180.66 444.208 181.44 444.248 181.84ZM444.608 183.94C444.608 184.06 444.668 183.96 444.788 183.64C444.908 183.32 445.028 182.88 445.148 182.32C445.308 181.76 445.488 181.14 445.688 180.46C445.928 179.78 446.128 179.22 446.288 178.78C446.528 178.18 446.828 177.46 447.188 176.62C447.588 175.78 448.028 174.92 448.508 174.04C448.988 173.12 449.488 172.18 450.008 171.22C450.528 170.26 451.048 169.36 451.568 168.52L451.928 167.92L451.508 168.4C451.188 168.76 450.768 169.36 450.248 170.2C449.768 171 449.248 171.92 448.688 172.96C448.128 173.96 447.588 174.98 447.068 176.02C446.588 177.06 446.188 177.98 445.868 178.78C445.708 179.18 445.548 179.64 445.388 180.16C445.228 180.68 445.088 181.18 444.968 181.66C444.848 182.14 444.768 182.6 444.728 183.04C444.648 183.44 444.608 183.74 444.608 183.94ZM446.168 182.02C446.168 181.74 446.388 181.08 446.828 180.04C447.268 179 447.808 177.82 448.448 176.5C449.088 175.14 449.788 173.74 450.548 172.3C451.308 170.86 452.008 169.6 452.648 168.52C453.048 167.84 453.148 167.62 452.948 167.86C452.748 168.06 452.388 168.54 451.868 169.3C451.548 169.82 451.128 170.54 450.608 171.46C450.128 172.38 449.628 173.36 449.108 174.4C448.588 175.4 448.108 176.38 447.668 177.34C447.228 178.26 446.908 179.02 446.708 179.62C446.348 180.62 446.088 181.42 445.928 182.02C445.768 182.62 445.788 182.8 445.988 182.56C446.108 182.36 446.168 182.18 446.168 182.02ZM446.948 185.26C446.988 185.34 447.048 185.24 447.128 184.96C447.248 184.64 447.388 184.22 447.548 183.7C447.708 183.18 447.828 182.74 447.908 182.38C448.028 182.02 448.068 181.82 448.028 181.78C448.028 181.74 447.968 181.88 447.848 182.2C447.728 182.52 447.588 182.9 447.428 183.34C447.308 183.74 447.188 184.14 447.068 184.54C446.988 184.9 446.948 185.14 446.948 185.26ZM458.588 182.02C458.708 181.82 458.768 181.72 458.768 181.72C458.768 181.72 458.688 181.78 458.528 181.9C458.288 182.06 458.168 182.18 458.168 182.26C458.168 182.46 458.308 182.38 458.588 182.02ZM459.428 181.54C459.668 181.3 459.748 181.18 459.668 181.18L459.548 181.3C459.468 181.34 459.368 181.42 459.248 181.54C459.048 181.82 458.968 181.96 459.008 181.96C459.088 181.96 459.228 181.82 459.428 181.54ZM459.548 180.82C459.668 180.66 459.728 180.58 459.728 180.58C459.728 180.58 459.648 180.64 459.488 180.76C459.448 180.8 459.408 180.84 459.368 180.88C459.328 180.88 459.288 180.9 459.248 180.94C459.208 180.98 459.168 181.02 459.128 181.06C459.128 181.26 459.268 181.18 459.548 180.82ZM460.328 179.86C460.448 179.66 460.508 179.56 460.508 179.56C460.508 179.56 460.428 179.62 460.268 179.74C460.028 179.98 459.908 180.1 459.908 180.1C459.908 180.3 460.048 180.22 460.328 179.86ZM461.108 179.44C461.228 179.28 461.288 179.2 461.288 179.2C461.288 179.2 461.208 179.26 461.048 179.38C460.808 179.54 460.688 179.66 460.688 179.74C460.688 179.94 460.828 179.84 461.108 179.44ZM462.008 178.18C462.168 178.18 462.208 178.16 462.128 178.12C461.928 178.04 461.888 177.94 462.008 177.82C462.168 177.58 462.148 177.54 461.948 177.7C461.788 177.82 461.568 178.08 461.288 178.48C461.088 178.68 460.948 178.86 460.868 179.02C460.828 179.14 460.848 179.16 460.928 179.08C461.128 178.88 461.268 178.82 461.348 178.9C461.428 178.98 461.548 178.9 461.708 178.66C461.948 178.42 461.948 178.36 461.708 178.48C461.548 178.6 461.488 178.58 461.528 178.42C461.608 178.18 461.768 178.1 462.008 178.18ZM463.148 176.86C463.348 176.62 463.348 176.5 463.148 176.5C462.948 176.5 462.708 176.68 462.428 177.04C462.308 177.16 462.228 177.26 462.188 177.34C462.188 177.38 462.228 177.36 462.308 177.28C462.508 177.12 462.648 177.08 462.728 177.16C462.808 177.24 462.948 177.14 463.148 176.86ZM463.748 176.02C463.828 175.94 463.808 175.86 463.688 175.78C463.528 175.7 463.388 175.76 463.268 175.96C463.108 176.12 463.128 176.2 463.328 176.2C463.568 176.12 463.708 176.06 463.748 176.02ZM464.348 175C464.388 174.8 464.388 174.7 464.348 174.7C464.308 174.7 464.188 174.82 463.988 175.06C463.788 175.26 463.688 175.38 463.688 175.42C463.688 175.42 463.788 175.4 463.988 175.36C464.228 175.36 464.348 175.24 464.348 175ZM465.308 174.04C465.388 174 465.388 173.98 465.308 173.98C465.268 173.94 465.208 173.94 465.128 173.98C464.968 173.98 464.788 174.08 464.588 174.28C464.468 174.44 464.488 174.46 464.648 174.34C464.888 174.26 465.028 174.22 465.068 174.22C465.108 174.18 465.148 174.16 465.188 174.16C465.228 174.12 465.268 174.08 465.308 174.04ZM465.848 173.38C465.848 173.3 465.768 173.24 465.608 173.2C465.488 173.16 465.408 173.18 465.368 173.26C465.328 173.38 465.388 173.44 465.548 173.44C465.748 173.44 465.848 173.42 465.848 173.38ZM454.148 161.14C453.908 161.06 453.628 160.8 453.308 160.36C452.988 159.92 452.828 159.58 452.828 159.34C452.828 159.26 452.868 159.14 452.948 158.98C453.028 158.82 453.108 158.64 453.188 158.44C453.308 158.16 453.608 157.84 454.088 157.48C454.608 157.12 455.168 156.76 455.768 156.4C456.408 156.04 457.068 155.74 457.748 155.5C458.428 155.22 459.028 155.04 459.548 154.96C459.948 154.88 460.228 154.88 460.388 154.96C460.548 155 460.808 155.18 461.168 155.5C461.648 155.9 461.888 156.22 461.888 156.46C461.888 156.54 461.788 156.68 461.588 156.88C461.388 157.04 461.128 157.22 460.808 157.42C460.128 157.86 459.448 158.38 458.768 158.98C458.128 159.58 457.628 160.16 457.268 160.72C456.948 161.2 456.648 161.62 456.368 161.98C456.088 162.34 455.908 162.5 455.828 162.46C455.748 162.46 455.588 162.42 455.348 162.34C455.268 162.34 455.168 162.28 455.048 162.16C454.968 162.04 454.888 161.92 454.808 161.8C454.688 161.48 454.468 161.26 454.148 161.14ZM456.128 159.16C455.888 159.36 455.628 159.64 455.348 160C455.108 160.36 455.048 160.54 455.168 160.54C455.208 160.54 455.288 160.46 455.408 160.3C455.568 160.1 455.728 159.9 455.888 159.7C456.208 159.18 456.288 159 456.128 159.16ZM454.928 159.52C454.728 159.72 454.628 159.86 454.628 159.94C454.628 160.34 454.768 160.26 455.048 159.7C455.128 159.5 455.168 159.4 455.168 159.4C455.168 159.36 455.088 159.4 454.928 159.52ZM459.798 186.94C459.678 186.62 459.558 186.26 459.438 185.86C459.318 185.46 459.238 185.1 459.198 184.78C459.118 183.98 459.218 183.04 459.498 181.96C459.778 180.84 460.178 179.66 460.698 178.42C461.218 177.14 461.838 175.84 462.558 174.52C463.278 173.2 464.038 171.94 464.838 170.74C465.678 169.5 466.538 168.38 467.418 167.38C468.298 166.38 469.158 165.58 469.998 164.98C470.878 164.34 471.778 163.84 472.698 163.48C473.658 163.12 474.538 162.94 475.338 162.94C476.018 162.94 476.538 163.06 476.898 163.3C477.258 163.54 477.658 163.88 478.098 164.32C478.418 164.64 478.738 164.92 479.058 165.16C479.418 165.4 479.658 165.54 479.778 165.58C480.058 165.66 480.198 165.76 480.198 165.88C480.198 166.32 480.518 166.06 481.158 165.1C481.638 164.34 482.138 163.96 482.658 163.96C482.858 163.96 483.018 163.98 483.138 164.02C483.538 164.14 483.598 164.52 483.318 165.16C483.198 165.36 483.138 165.48 483.138 165.52C483.178 165.52 483.298 165.42 483.498 165.22C483.698 165.02 483.818 164.92 483.858 164.92C483.898 164.92 483.918 165 483.918 165.16C483.918 165.36 484.018 165.42 484.218 165.34C484.418 165.26 484.558 165.34 484.638 165.58C484.718 165.78 484.798 165.84 484.878 165.76C484.998 165.72 485.298 165.9 485.778 166.3C486.098 166.58 486.278 166.8 486.318 166.96C486.398 167.12 486.438 167.42 486.438 167.86C486.438 168.5 486.258 169.44 485.898 170.68C485.538 171.92 484.918 173.64 484.038 175.84C483.638 176.88 483.238 177.94 482.838 179.02C482.438 180.1 482.158 180.92 481.998 181.48C481.678 182.48 481.418 183.42 481.218 184.3C481.058 185.14 481.018 185.6 481.098 185.68C481.218 185.68 481.438 185.56 481.758 185.32C482.118 185.08 482.518 184.78 482.958 184.42C483.398 184.02 483.878 183.58 484.398 183.1C484.918 182.62 485.418 182.14 485.898 181.66C486.418 181.14 486.918 180.58 487.398 179.98C487.918 179.38 488.478 178.72 489.078 178C489.678 177.24 490.338 176.38 491.058 175.42C491.778 174.46 492.598 173.34 493.518 172.06C493.838 171.62 494.118 171.24 494.358 170.92C494.598 170.6 494.758 170.44 494.838 170.44C494.878 170.48 494.838 170.62 494.718 170.86C494.598 171.06 494.438 171.3 494.238 171.58C494.038 171.86 493.858 172.1 493.698 172.3C493.578 172.5 493.518 172.64 493.518 172.72C493.518 172.76 493.598 172.68 493.758 172.48C493.958 172.28 494.158 172.02 494.358 171.7C494.838 171.02 495.118 170.68 495.198 170.68C495.278 170.68 495.198 170.92 494.958 171.4C494.758 171.88 494.418 172.52 493.938 173.32C492.458 175.76 491.118 177.9 489.918 179.74C488.758 181.54 487.698 183.08 486.738 184.36C485.818 185.6 484.998 186.6 484.278 187.36C483.598 188.12 482.958 188.7 482.358 189.1C482.118 189.3 481.678 189.4 481.038 189.4C480.598 189.4 480.178 189.34 479.778 189.22C479.418 189.06 479.198 188.86 479.118 188.62C479.038 188.42 478.718 188.18 478.158 187.9C477.358 187.5 476.678 186.8 476.118 185.8C475.598 184.8 475.258 183.62 475.098 182.26L474.978 180.76L474.018 182.2C473.658 182.68 473.218 183.28 472.698 184C472.178 184.68 471.638 185.38 471.078 186.1C470.558 186.78 470.058 187.42 469.578 188.02C469.098 188.58 468.718 189.02 468.438 189.34C467.078 190.7 466.058 191.38 465.378 191.38C464.898 191.38 464.338 191.1 463.698 190.54C463.418 190.3 463.138 190.1 462.858 189.94C462.618 189.74 462.438 189.64 462.318 189.64C462.038 189.64 461.638 189.36 461.118 188.8C460.558 188.2 460.118 187.58 459.798 186.94ZM492.198 174.76C492.078 174.76 492.038 174.82 492.078 174.94C492.158 175.1 492.258 175.12 492.378 175C492.538 174.84 492.638 174.6 492.678 174.28C492.758 174.04 492.738 173.94 492.618 173.98C492.578 174.02 492.538 174.1 492.498 174.22C492.498 174.3 492.478 174.38 492.438 174.46C492.438 174.74 492.358 174.84 492.198 174.76ZM491.358 176.44C491.118 176.6 490.998 176.72 490.998 176.8C490.998 176.92 491.138 176.84 491.418 176.56C491.538 176.36 491.598 176.26 491.598 176.26C491.598 176.26 491.518 176.32 491.358 176.44ZM490.518 177.04C490.478 177.16 490.538 177.22 490.698 177.22C490.818 177.22 490.898 177.2 490.938 177.16C490.938 177.16 490.958 177.16 490.998 177.16C490.998 177.08 490.918 177.02 490.758 176.98C490.638 176.94 490.558 176.96 490.518 177.04ZM488.598 179.74C488.438 179.94 488.458 180.02 488.658 179.98C488.858 179.94 489.058 179.84 489.258 179.68C489.458 179.48 489.658 179.2 489.858 178.84C490.058 178.48 490.118 178.26 490.038 178.18C489.878 178.1 489.718 178.18 489.558 178.42C489.318 178.74 489.318 178.78 489.558 178.54C489.798 178.42 489.878 178.46 489.798 178.66C489.718 178.86 489.598 178.96 489.438 178.96C489.318 178.96 489.198 179.02 489.078 179.14C489.038 179.18 489.018 179.22 489.018 179.26C489.058 179.26 489.118 179.22 489.198 179.14C489.398 179.02 489.458 179.06 489.378 179.26C489.298 179.46 489.198 179.56 489.078 179.56C488.878 179.56 488.718 179.62 488.598 179.74ZM488.178 180.52C488.338 180.44 488.418 180.46 488.418 180.58C488.418 180.62 488.338 180.76 488.178 181C487.938 181.24 487.938 181.28 488.178 181.12C488.378 181 488.518 180.84 488.598 180.64C488.758 180.4 488.738 180.28 488.538 180.28C488.298 180.36 488.158 180.44 488.118 180.52C488.038 180.56 487.998 180.6 487.998 180.64C488.038 180.64 488.098 180.6 488.178 180.52ZM487.338 181.42C487.098 181.66 487.018 181.78 487.098 181.78C487.138 181.78 487.278 181.66 487.518 181.42C487.798 181.14 487.898 181 487.818 181C487.698 181 487.538 181.14 487.338 181.42ZM486.438 182.56C486.198 182.68 486.078 182.8 486.078 182.92C486.078 183.12 486.218 183.02 486.498 182.62C486.618 182.46 486.678 182.38 486.678 182.38C486.678 182.38 486.598 182.44 486.438 182.56ZM465.858 183.88L465.558 184.42C465.478 184.62 465.398 184.86 465.318 185.14C465.278 185.42 465.238 185.68 465.198 185.92L465.078 186.82L465.318 185.98C465.398 185.78 465.458 185.54 465.498 185.26C465.578 184.98 465.658 184.74 465.738 184.54L465.858 183.88ZM473.358 181.06C473.598 180.78 473.558 180.76 473.238 181C473.198 181.04 473.158 181.08 473.118 181.12C473.078 181.12 473.038 181.14 472.998 181.18C472.998 181.22 472.978 181.26 472.938 181.3C472.938 181.42 473.078 181.34 473.358 181.06ZM473.898 180.28C474.018 180.12 474.078 180.04 474.078 180.04C474.078 180 473.998 180.06 473.838 180.22C473.798 180.26 473.758 180.3 473.718 180.34C473.678 180.34 473.638 180.36 473.598 180.4C473.558 180.44 473.518 180.48 473.478 180.52C473.478 180.72 473.618 180.64 473.898 180.28ZM485.118 170.08C484.998 170.36 484.738 171 484.338 172C483.938 173 483.518 174.08 483.078 175.24C482.638 176.36 482.218 177.42 481.818 178.42C481.458 179.38 481.238 180.02 481.158 180.34C480.878 181.34 480.758 181.84 480.798 181.84C480.878 181.84 481.218 180.94 481.818 179.14C482.138 178.34 482.498 177.4 482.898 176.32C483.298 175.2 483.658 174.28 483.978 173.56C484.378 172.6 484.718 171.74 484.998 170.98C485.278 170.18 485.378 169.78 485.298 169.78L485.238 169.84C485.238 169.84 485.198 169.92 485.118 170.08ZM483.618 169.24C483.578 169.24 483.438 169.46 483.198 169.9C482.958 170.34 482.678 170.92 482.358 171.64C482.078 172.32 481.778 173.06 481.458 173.86C481.138 174.66 480.838 175.44 480.558 176.2C480.278 176.92 480.038 177.56 479.838 178.12C479.678 178.64 479.598 178.96 479.598 179.08C479.638 179.08 479.698 178.94 479.778 178.66C479.898 178.34 480.158 177.68 480.558 176.68C480.758 176.24 480.998 175.66 481.278 174.94C481.598 174.22 481.878 173.58 482.118 173.02C483.238 170.5 483.738 169.24 483.618 169.24ZM480.918 172.6C480.678 172.88 480.398 173.36 480.078 174.04C479.798 174.72 479.518 175.48 479.238 176.32C478.998 177.12 478.758 177.94 478.518 178.78C478.318 179.58 478.178 180.28 478.098 180.88C478.058 181.24 478.078 181.34 478.158 181.18C478.238 181.02 478.378 180.54 478.578 179.74C478.738 179.14 478.978 178.36 479.298 177.4C479.618 176.44 479.938 175.58 480.258 174.82C480.898 173.26 481.158 172.48 481.038 172.48L480.918 172.6ZM479.118 175.3C479.198 175.18 479.218 175.12 479.178 175.12C479.178 175.12 479.098 175.18 478.938 175.3C478.858 175.34 478.758 175.5 478.638 175.78C478.518 176.02 478.398 176.32 478.278 176.68C478.158 177 478.038 177.34 477.918 177.7C477.838 178.06 477.778 178.4 477.738 178.72C477.698 178.96 477.718 178.96 477.798 178.72C477.918 178.48 478.078 178.08 478.278 177.52C478.478 176.96 478.638 176.48 478.758 176.08C478.918 175.64 479.038 175.38 479.118 175.3ZM476.658 169.72C475.938 170.2 475.218 170.8 474.498 171.52C473.778 172.24 473.058 173.06 472.338 173.98C471.618 174.86 470.938 175.82 470.298 176.86C469.658 177.9 469.058 178.98 468.498 180.1C468.218 180.7 467.938 181.34 467.658 182.02C467.378 182.66 467.138 183.26 466.938 183.82C466.738 184.38 466.578 184.84 466.458 185.2C466.378 185.56 466.358 185.74 466.398 185.74C466.478 185.74 466.618 185.66 466.818 185.5C467.018 185.3 467.258 185.08 467.538 184.84C468.178 184.28 468.978 183.42 469.938 182.26C470.938 181.06 471.938 179.8 472.938 178.48C473.978 177.12 474.938 175.8 475.818 174.52C476.698 173.2 477.338 172.12 477.738 171.28C478.738 169.32 478.918 168.46 478.278 168.7C478.198 168.74 477.998 168.86 477.678 169.06C477.358 169.26 477.018 169.48 476.658 169.72ZM470.178 171.16C469.578 171.84 468.878 172.8 468.078 174.04C467.278 175.24 466.538 176.5 465.858 177.82C465.578 178.38 465.298 179 465.018 179.68C464.738 180.36 464.478 181.02 464.238 181.66C463.998 182.26 463.818 182.82 463.698 183.34C463.578 183.82 463.518 184.18 463.518 184.42V184.48C463.558 184.48 463.638 184.34 463.758 184.06C463.878 183.74 464.018 183.34 464.178 182.86C464.858 180.78 465.698 178.82 466.698 176.98C467.698 175.1 468.838 173.26 470.118 171.46L470.958 170.32L470.178 171.16ZM467.898 172.54C467.858 172.54 467.718 172.72 467.478 173.08C467.278 173.4 467.038 173.78 466.758 174.22C466.118 175.18 465.518 176.2 464.958 177.28C464.438 178.32 463.978 179.32 463.578 180.28C463.178 181.24 462.858 182.14 462.618 182.98C462.418 183.78 462.318 184.46 462.318 185.02C462.318 185.34 462.358 185.4 462.438 185.2C462.518 185 462.658 184.48 462.858 183.64C463.298 181.84 463.898 180.08 464.658 178.36C465.458 176.6 466.378 174.96 467.418 173.44C467.618 173.2 467.758 173 467.838 172.84C467.918 172.64 467.938 172.54 467.898 172.54ZM461.598 183.94C461.478 184.54 461.498 184.7 461.658 184.42C461.778 184.1 462.018 183.38 462.378 182.26C462.578 181.66 462.738 181.12 462.858 180.64C463.018 180.12 463.118 179.82 463.158 179.74C463.198 179.58 463.118 179.68 462.918 180.04C462.718 180.4 462.478 181 462.198 181.84C461.918 182.68 461.718 183.38 461.598 183.94ZM509.205 145.18C509.365 145.5 509.445 145.76 509.445 145.96C509.445 146.04 509.565 146.06 509.805 146.02C510.245 145.82 510.305 146.06 509.985 146.74C509.865 146.94 509.805 147.06 509.805 147.1C509.845 147.1 509.965 147 510.165 146.8C510.525 146.44 511.025 146.6 511.665 147.28C511.865 147.52 511.945 147.82 511.905 148.18C511.905 148.54 511.785 149.02 511.545 149.62C511.345 150.22 511.005 150.98 510.525 151.9C510.085 152.78 509.505 153.86 508.785 155.14C508.345 155.9 507.825 156.86 507.225 158.02C506.625 159.14 506.025 160.32 505.425 161.56C504.825 162.76 504.225 163.96 503.625 165.16C503.065 166.36 502.605 167.38 502.245 168.22C501.525 169.78 500.825 171.42 500.145 173.14C499.505 174.82 498.905 176.46 498.345 178.06C497.825 179.62 497.365 181.1 496.965 182.5C496.605 183.9 496.325 185.08 496.125 186.04C496.045 186.6 495.965 187.24 495.885 187.96C495.805 188.64 495.745 189.28 495.705 189.88C495.705 190.48 495.705 191 495.705 191.44C495.705 191.84 495.745 192.04 495.825 192.04C495.905 192.04 496.045 191.96 496.245 191.8C496.485 191.6 496.745 191.36 497.025 191.08C497.225 190.88 497.505 190.56 497.865 190.12C498.225 189.68 498.745 188.98 499.425 188.02C500.145 187.02 501.085 185.7 502.245 184.06C503.445 182.42 504.965 180.28 506.805 177.64C507.925 176.12 508.845 174.94 509.565 174.1C510.285 173.22 510.785 172.78 511.065 172.78C511.305 172.78 511.385 172.88 511.305 173.08C511.305 173.2 511.405 173.26 511.605 173.26C511.765 173.26 511.865 173.32 511.905 173.44C511.945 173.52 511.905 173.7 511.785 173.98C511.665 174.26 511.445 174.66 511.125 175.18C510.845 175.7 510.465 176.36 509.985 177.16C509.705 177.6 509.365 178.14 508.965 178.78C508.605 179.38 508.205 180.04 507.765 180.76C507.365 181.44 506.965 182.14 506.565 182.86C506.165 183.54 505.785 184.18 505.425 184.78C504.745 186.02 504.045 187.24 503.325 188.44C502.645 189.6 502.145 190.42 501.825 190.9C501.545 191.34 501.205 191.8 500.805 192.28C500.405 192.76 500.005 193.22 499.605 193.66C499.205 194.1 498.825 194.5 498.465 194.86C498.105 195.18 497.805 195.4 497.565 195.52C497.285 195.68 496.865 195.78 496.305 195.82C495.785 195.82 495.365 195.76 495.045 195.64C494.965 195.6 494.845 195.54 494.685 195.46C494.525 195.34 494.365 195.22 494.205 195.1C494.085 194.98 493.905 194.88 493.665 194.8C493.465 194.68 493.285 194.58 493.125 194.5C492.885 194.46 492.605 194.34 492.285 194.14C491.965 193.9 491.645 193.62 491.325 193.3C491.005 192.98 490.705 192.64 490.425 192.28C490.145 191.92 489.925 191.56 489.765 191.2C489.405 190.48 489.145 189.8 488.985 189.16C488.785 188.52 488.685 187.84 488.685 187.12C488.645 186.4 488.685 185.6 488.805 184.72C488.925 183.8 489.105 182.74 489.345 181.54C490.145 177.82 491.565 173.52 493.605 168.64C495.645 163.76 498.265 158.38 501.465 152.5C501.985 151.5 502.505 150.54 503.025 149.62C503.585 148.66 503.985 148 504.225 147.64C504.745 146.88 505.265 146.24 505.785 145.72C506.305 145.2 506.785 144.84 507.225 144.64C507.665 144.4 508.065 144.32 508.425 144.4C508.785 144.48 509.045 144.74 509.205 145.18ZM510.885 173.56C510.845 173.68 510.905 173.74 511.065 173.74C511.185 173.74 511.265 173.72 511.305 173.68C511.305 173.68 511.325 173.68 511.365 173.68C511.365 173.6 511.305 173.54 511.185 173.5C511.065 173.46 510.965 173.48 510.885 173.56ZM510.345 174.34C510.105 174.58 509.985 174.7 509.985 174.7C509.985 174.9 510.125 174.8 510.405 174.4C510.525 174.24 510.585 174.16 510.585 174.16C510.585 174.16 510.505 174.22 510.345 174.34ZM508.305 177.1C508.265 177.3 508.305 177.32 508.425 177.16C508.625 177.04 508.685 176.94 508.605 176.86C508.525 176.78 508.425 176.86 508.305 177.1ZM491.445 185.56C491.645 184.12 492.025 182.36 492.585 180.28C493.185 178.16 493.925 175.9 494.805 173.5C495.685 171.1 496.665 168.64 497.745 166.12C498.865 163.6 500.025 161.22 501.225 158.98C501.905 157.66 502.565 156.38 503.205 155.14C503.885 153.9 504.445 152.86 504.885 152.02C505.365 151.14 505.705 150.56 505.905 150.28C506.185 149.84 506.285 149.62 506.205 149.62C506.125 149.62 505.785 150.14 505.185 151.18C504.585 152.18 503.885 153.42 503.085 154.9C502.325 156.34 501.525 157.86 500.685 159.46C499.885 161.06 499.205 162.44 498.645 163.6C497.645 165.8 496.705 168 495.825 170.2C494.945 172.4 494.165 174.5 493.485 176.5C492.805 178.5 492.245 180.34 491.805 182.02C491.405 183.66 491.145 185.02 491.025 186.1C490.945 186.82 490.965 187.12 491.085 187C491.205 186.84 491.325 186.36 491.445 185.56ZM492.825 182.98C493.425 180.22 494.385 177.1 495.705 173.62C497.025 170.1 498.605 166.4 500.445 162.52C500.805 161.72 501.305 160.7 501.945 159.46C502.625 158.18 503.305 156.88 503.985 155.56C504.705 154.24 505.365 153.02 505.965 151.9C506.605 150.78 507.085 149.96 507.405 149.44C508.045 148.44 508.385 147.86 508.425 147.7C508.505 147.5 508.385 147.6 508.065 148C507.705 148.4 507.125 149.3 506.325 150.7C505.525 152.06 504.645 153.64 503.685 155.44C502.725 157.2 501.745 159.06 500.745 161.02C499.785 162.94 498.965 164.68 498.285 166.24C497.845 167.24 497.385 168.34 496.905 169.54C496.425 170.74 495.945 171.94 495.465 173.14C495.025 174.34 494.605 175.5 494.205 176.62C493.845 177.74 493.545 178.7 493.305 179.5C493.025 180.46 492.765 181.42 492.525 182.38C492.325 183.3 492.165 184.18 492.045 185.02C491.925 185.82 491.845 186.52 491.805 187.12C491.765 187.72 491.785 188.14 491.865 188.38C491.945 188.74 492.045 188.3 492.165 187.06C492.205 186.54 492.285 185.9 492.405 185.14C492.525 184.34 492.665 183.62 492.825 182.98ZM495.645 184.06C495.805 183.5 495.845 183.18 495.765 183.1C495.725 183.06 495.665 183.18 495.585 183.46C495.545 183.7 495.465 184.02 495.345 184.42C495.265 184.82 495.185 185.26 495.105 185.74C495.025 186.22 494.945 186.66 494.865 187.06C494.705 188.22 494.645 188.82 494.685 188.86C494.725 188.9 494.845 188.34 495.045 187.18C495.125 186.58 495.225 185.98 495.345 185.38C495.465 184.78 495.565 184.34 495.645 184.06ZM495.945 182.8C496.025 182.64 496.045 182.5 496.005 182.38C495.925 182.22 495.885 182.26 495.885 182.5C495.805 182.82 495.825 182.92 495.945 182.8ZM496.725 180.04C496.845 180 496.865 179.86 496.785 179.62C496.705 179.46 496.665 179.5 496.665 179.74C496.665 179.98 496.685 180.08 496.725 180.04ZM496.605 175.54C496.765 175.38 496.845 175.22 496.845 175.06C496.845 174.9 496.765 174.94 496.605 175.18C496.565 175.26 496.525 175.34 496.485 175.42C496.445 175.5 496.425 175.58 496.425 175.66C496.425 175.74 496.445 175.76 496.485 175.72C496.525 175.68 496.565 175.62 496.605 175.54ZM497.205 173.98C497.325 173.78 497.385 173.62 497.385 173.5C497.385 173.38 497.325 173.42 497.205 173.62C497.165 173.7 497.125 173.78 497.085 173.86C497.045 173.94 497.025 174.02 497.025 174.1C497.025 174.18 497.045 174.2 497.085 174.16C497.125 174.12 497.165 174.06 497.205 173.98ZM500.925 168.76C500.925 168.64 500.845 168.74 500.685 169.06C500.485 169.38 500.385 169.62 500.385 169.78C500.385 169.86 500.485 169.76 500.685 169.48C500.845 169.08 500.925 168.84 500.925 168.76ZM502.125 166.12C502.245 165.92 502.305 165.76 502.305 165.64C502.305 165.52 502.245 165.56 502.125 165.76C502.005 165.88 501.945 166.04 501.945 166.24C501.945 166.32 502.005 166.28 502.125 166.12ZM505.665 159.04C506.145 158.08 506.525 157.32 506.805 156.76C507.125 156.2 507.345 155.8 507.465 155.56C507.585 155.32 507.625 155.2 507.585 155.2C507.585 155.2 507.525 155.28 507.405 155.44C507.285 155.56 506.985 156.08 506.505 157C506.025 157.88 505.505 158.84 504.945 159.88C504.425 160.92 503.945 161.86 503.505 162.7C503.105 163.54 502.905 164 502.905 164.08C502.905 164.16 502.945 164.14 503.025 164.02C503.145 163.86 503.245 163.68 503.325 163.48C503.445 163.28 503.725 162.76 504.165 161.92C504.605 161.04 505.105 160.08 505.665 159.04ZM508.425 151C508.585 150.72 508.625 150.58 508.545 150.58C508.505 150.58 508.405 150.72 508.245 151C508.125 151.28 508.085 151.42 508.125 151.42C508.205 151.42 508.305 151.28 508.425 151ZM508.185 150.34C508.465 149.9 508.665 149.56 508.785 149.32C508.945 149.04 509.045 148.84 509.085 148.72C509.165 148.6 509.185 148.52 509.145 148.48C509.145 148.44 509.105 148.42 509.025 148.42C508.985 148.42 508.805 148.68 508.485 149.2C508.165 149.68 507.805 150.26 507.405 150.94C505.685 153.86 504.005 156.98 502.365 160.3C500.725 163.62 499.245 166.84 497.925 169.96C496.645 173.08 495.565 175.96 494.685 178.6C493.845 181.24 493.345 183.36 493.185 184.96C493.145 185.4 493.145 185.58 493.185 185.5C493.225 185.38 493.345 184.92 493.545 184.12C493.705 183.56 493.885 182.86 494.085 182.02C494.325 181.18 494.545 180.44 494.745 179.8C495.385 177.68 496.185 175.38 497.145 172.9C498.105 170.38 499.185 167.82 500.385 165.22C501.585 162.62 502.845 160.04 504.165 157.48C505.485 154.92 506.825 152.54 508.185 150.34ZM511.065 148.48C511.025 148.52 510.925 148.72 510.765 149.08C510.605 149.4 510.445 149.76 510.285 150.16C510.125 150.52 509.985 150.86 509.865 151.18C509.745 151.46 509.685 151.6 509.685 151.6C509.725 151.6 509.805 151.5 509.925 151.3C510.045 151.06 510.185 150.78 510.345 150.46C510.665 149.86 510.885 149.36 511.005 148.96C511.165 148.52 511.185 148.36 511.065 148.48ZM521.145 163.24C521.305 163.44 521.525 163.72 521.805 164.08C522.085 164.44 522.345 164.74 522.585 164.98C523.225 165.66 523.665 166.28 523.905 166.84C524.145 167.4 524.225 167.98 524.145 168.58C524.065 169.14 523.865 169.74 523.545 170.38C523.225 170.98 522.885 171.38 522.525 171.58C522.285 171.74 522.045 171.82 521.805 171.82C521.565 171.78 521.445 171.66 521.445 171.46C521.445 171.3 521.265 171.04 520.905 170.68C520.665 170.4 520.505 170.18 520.425 170.02C520.385 169.82 520.365 169.46 520.365 168.94C520.365 168.26 520.285 167.9 520.125 167.86C519.965 167.82 519.405 168.06 518.445 168.58C517.925 168.86 517.405 169.24 516.885 169.72C516.405 170.16 515.965 170.66 515.565 171.22C515.165 171.74 514.825 172.3 514.545 172.9C514.305 173.46 514.145 174 514.065 174.52C513.985 175.2 514.065 175.82 514.305 176.38C514.545 176.9 515.105 177.6 515.985 178.48C516.825 179.4 517.545 180.3 518.145 181.18C518.745 182.06 519.125 182.78 519.285 183.34C519.605 184.58 519.505 185.94 518.985 187.42C518.465 188.86 517.605 190.18 516.405 191.38C515.885 191.94 515.405 192.38 514.965 192.7C514.525 192.98 513.885 193.32 513.045 193.72C512.565 193.96 512.165 194.16 511.845 194.32C511.565 194.44 511.305 194.54 511.065 194.62C510.825 194.7 510.585 194.76 510.345 194.8C510.105 194.8 509.825 194.8 509.505 194.8C509.065 194.84 508.645 194.86 508.245 194.86C507.885 194.82 507.645 194.76 507.525 194.68C507.365 194.6 507.085 194.38 506.685 194.02C506.245 193.66 505.785 193.26 505.305 192.82C504.825 192.34 504.365 191.88 503.925 191.44C503.485 191 503.185 190.66 503.025 190.42C502.705 190.02 502.585 189.66 502.665 189.34C502.705 188.98 502.885 188.76 503.205 188.68C503.325 188.6 503.585 188.56 503.985 188.56C504.345 188.52 504.725 188.5 505.125 188.5C505.805 188.5 506.305 188.46 506.625 188.38C506.945 188.26 507.445 188.04 508.125 187.72C509.525 187.04 510.705 186.1 511.665 184.9C512.665 183.66 513.225 182.46 513.345 181.3C513.385 181.02 513.385 180.78 513.345 180.58C513.305 180.34 513.205 180.1 513.045 179.86C512.925 179.62 512.705 179.34 512.385 179.02C512.105 178.7 511.705 178.28 511.185 177.76C509.825 176.4 508.905 174.96 508.425 173.44C507.985 171.88 507.985 170.34 508.425 168.82C508.665 168.02 509.025 167.24 509.505 166.48C509.985 165.72 510.525 165.02 511.125 164.38C511.725 163.7 512.365 163.12 513.045 162.64C513.765 162.16 514.465 161.8 515.145 161.56C516.225 161.2 517.345 161.18 518.505 161.5C519.705 161.82 520.585 162.4 521.145 163.24ZM518.025 187.24C517.985 187.24 517.905 187.32 517.785 187.48C517.705 187.64 517.605 187.82 517.485 188.02C517.405 188.18 517.325 188.36 517.245 188.56C517.165 188.72 517.125 188.84 517.125 188.92C517.125 189.04 517.225 188.94 517.425 188.62C517.625 188.3 517.785 188 517.905 187.72C517.985 187.48 518.025 187.36 518.025 187.36C518.025 187.32 518.025 187.28 518.025 187.24ZM510.825 169.3C510.825 169.38 510.825 169.44 510.825 169.48C510.825 169.52 510.865 169.5 510.945 169.42C511.025 169.34 511.145 169.18 511.305 168.94C511.465 168.7 511.685 168.36 511.965 167.92C512.245 167.48 512.465 167.12 512.625 166.84C512.785 166.56 512.825 166.44 512.745 166.48C512.665 166.52 512.525 166.68 512.325 166.96C512.125 167.24 511.905 167.54 511.665 167.86C511.465 168.18 511.265 168.48 511.065 168.76C510.905 169.04 510.825 169.22 510.825 169.3ZM511.305 170.2C511.265 170.4 511.285 170.44 511.365 170.32C511.485 170.2 511.705 169.9 512.025 169.42C512.225 169.06 512.465 168.66 512.745 168.22C513.065 167.78 513.325 167.44 513.525 167.2C514.005 166.64 514.205 166.34 514.125 166.3C514.045 166.26 513.745 166.54 513.225 167.14C512.705 167.7 512.265 168.26 511.905 168.82C511.585 169.34 511.385 169.8 511.305 170.2ZM516.345 186.34C516.345 186.22 516.305 186.22 516.225 186.34C516.145 186.42 515.805 186.86 515.205 187.66C514.525 188.5 514.345 188.84 514.665 188.68C514.785 188.6 514.945 188.44 515.145 188.2C515.345 187.96 515.545 187.72 515.745 187.48C515.905 187.2 516.045 186.96 516.165 186.76C516.285 186.56 516.345 186.42 516.345 186.34ZM515.925 184.24C515.805 184.24 515.705 184.4 515.625 184.72C515.585 184.88 515.465 185.14 515.265 185.5C515.105 185.82 514.905 186.16 514.665 186.52C514.545 186.72 514.425 186.9 514.305 187.06C514.225 187.22 514.145 187.36 514.065 187.48C513.945 187.64 513.845 187.78 513.765 187.9C513.765 188.02 513.925 187.9 514.245 187.54C514.605 187.18 514.905 186.8 515.145 186.4C515.465 185.88 515.705 185.4 515.865 184.96C516.065 184.48 516.085 184.24 515.925 184.24ZM515.145 184.36C515.145 184.28 515.085 184.32 514.965 184.48C514.845 184.6 514.705 184.78 514.545 185.02C514.425 185.26 514.305 185.52 514.185 185.8C514.065 186.04 514.005 186.2 514.005 186.28C513.965 186.44 514.005 186.48 514.125 186.4C514.245 186.28 514.425 186 514.665 185.56C514.785 185.32 514.885 185.08 514.965 184.84C515.085 184.6 515.145 184.44 515.145 184.36ZM514.245 171.52C514.405 171.32 514.525 171.14 514.605 170.98C514.685 170.78 514.705 170.68 514.665 170.68C514.625 170.68 514.545 170.76 514.425 170.92C514.305 171.08 514.185 171.26 514.065 171.46C513.945 171.62 513.825 171.8 513.705 172C513.625 172.16 513.585 172.28 513.585 172.36C513.585 172.48 513.605 172.5 513.645 172.42C513.725 172.34 513.925 172.04 514.245 171.52ZM514.065 168.94C513.865 169.22 513.785 169.36 513.825 169.36C513.905 169.36 514.045 169.22 514.245 168.94C514.525 168.66 514.625 168.52 514.545 168.52C514.425 168.52 514.265 168.66 514.065 168.94ZM514.965 167.32C515.365 166.88 515.585 166.6 515.625 166.48C515.705 166.36 515.645 166.38 515.445 166.54C515.005 166.86 514.525 167.32 514.005 167.92C513.485 168.52 513.065 169.12 512.745 169.72C512.385 170.4 512.245 170.72 512.325 170.68C512.405 170.64 512.665 170.28 513.105 169.6C513.305 169.28 513.585 168.9 513.945 168.46C514.305 168.02 514.645 167.64 514.965 167.32Z" fill="white"/>
</svg>
