<svg width="429" height="132" viewBox="0 0 429 132" fill="none" xmlns="http://www.w3.org/2000/svg">
<path d="M15.688 37.728C12.36 38.4107 9.71467 38.9227 7.752 39.264C5.78933 39.6053 4.25333 39.8613 3.144 40.032C2.12 40.1173 1.43733 40.0747 1.096 39.904C0.754667 39.7333 0.498667 39.4773 0.328 39.136C0.242667 38.9653 0.2 38.4107 0.2 37.472C0.2 36.5333 0.242667 35.4667 0.328 34.272C0.498667 32.3093 0.669333 31.072 0.84 30.56C1.01067 29.9627 1.39467 29.3653 1.992 28.768C3.016 27.6587 4.63733 26.4213 6.856 25.056C9.07467 23.6907 11.6773 22.2827 14.664 20.832C17.736 19.3813 21.064 17.9307 24.648 16.48C28.232 15.0293 31.944 13.7067 35.784 12.512C38.6853 11.5733 42.2267 10.592 46.408 9.56799C50.5893 8.45866 55.0267 7.43466 59.72 6.49599C64.4133 5.55733 69.1067 4.704 73.8 3.936C78.5787 3.08266 82.9733 2.39999 86.984 1.88799C90.056 1.46133 92.616 1.16266 94.664 0.991997C96.712 0.735995 98.5893 0.565328 100.296 0.479996C102.003 0.394663 103.624 0.351997 105.16 0.351997C106.781 0.26666 108.659 0.223991 110.792 0.223991C115.827 0.223991 119.539 0.394658 121.928 0.735992C124.403 1.07733 126.109 1.67466 127.048 2.52799C127.731 3.21066 128.2 4.10666 128.456 5.216C128.797 6.23999 128.797 7.00799 128.456 7.52C128.2 7.94666 128.115 8.50133 128.2 9.184C128.285 9.78133 128.499 10.1653 128.84 10.336C129.096 10.4213 129.224 10.72 129.224 11.232C129.224 11.744 129.139 12.3413 128.968 13.024C128.883 13.6213 128.712 14.2187 128.456 14.816C128.2 15.328 127.901 15.6693 127.56 15.84C127.304 16.0107 126.28 16.1387 124.488 16.224C122.696 16.224 120.605 16.224 118.216 16.224C115.741 16.224 113.48 16.2667 111.432 16.352C109.384 16.352 107.251 16.4373 105.032 16.608C102.899 16.7787 100.552 17.0347 97.992 17.376C95.5173 17.632 92.5733 17.9733 89.16 18.4C86.856 18.656 84.3813 18.9973 81.736 19.424C79.176 19.7653 76.744 20.1067 74.44 20.448C72.136 20.7893 70.1733 21.088 68.552 21.344C66.9307 21.6 65.9493 21.8133 65.608 21.984C65.1813 22.0693 65.1813 22.24 65.608 22.496C65.9493 22.752 66.0773 23.4347 65.992 24.544C65.9067 25.056 65.608 25.952 65.096 27.232C64.584 28.4267 63.944 29.8773 63.176 31.584C62.408 33.2907 61.512 35.1253 60.488 37.088C59.5493 39.0507 58.568 41.0133 57.544 42.976C55.9227 45.9627 54.0027 49.7173 51.784 54.24C49.5653 58.7627 47.304 63.3707 45 68.064C42.7813 72.7573 40.648 77.2373 38.6 81.504C36.6373 85.6853 35.144 89.056 34.12 91.616C33.1813 93.92 32.2 96.5227 31.176 99.424C30.2373 102.24 29.3413 105.099 28.488 108C27.72 110.816 27.0373 113.547 26.44 116.192C25.928 118.752 25.544 120.971 25.288 122.848C25.1173 124.811 24.8613 126.517 24.52 127.968C24.1787 129.504 23.9227 130.443 23.752 130.784C22.984 131.552 22.0027 131.424 20.808 130.4C20.4667 130.229 20.1253 130.059 19.784 129.888C19.4427 129.717 19.1867 129.632 19.016 129.632C18.76 129.632 18.2907 129.376 17.608 128.864C17.0107 128.352 16.3707 127.755 15.688 127.072C15.0053 126.389 14.3653 125.664 13.768 124.896C13.1707 124.213 12.744 123.616 12.488 123.104C10.6107 118.837 10.6107 112.651 12.488 104.544C14.4507 96.352 18.376 85.8133 24.264 72.928C24.776 71.8187 25.7147 69.9413 27.08 67.296C28.4453 64.6507 29.9387 61.792 31.56 58.72C33.2667 55.5627 34.9307 52.448 36.552 49.376C38.2587 46.304 39.6667 43.8293 40.776 41.952C42.3973 39.136 43.3787 37.3013 43.72 36.448C44.1467 35.5947 44.232 35.0827 43.976 34.912C43.72 34.7413 42.952 34.656 41.672 34.656C40.4773 34.656 39.0267 34.6987 37.32 34.784C35.6133 34.8693 33.8213 34.9973 31.944 35.168C30.152 35.3387 28.5733 35.5093 27.208 35.68C26.0133 35.8507 24.264 36.1493 21.96 36.576C19.7413 36.9173 17.6507 37.3013 15.688 37.728ZM10.184 36.32C10.7813 36.32 10.9947 36.2347 10.824 36.064C10.568 35.9787 10.2693 35.9787 9.928 36.064C9.58667 36.2347 9.672 36.32 10.184 36.32ZM12.744 35.808C13.4267 35.808 13.6827 35.7653 13.512 35.68C13.1707 35.5093 12.744 35.5093 12.232 35.68C12.0613 35.68 12.0187 35.7227 12.104 35.808C12.1893 35.808 12.4027 35.808 12.744 35.808ZM15.432 29.152C14.92 29.408 14.536 29.6213 14.28 29.792C14.1093 29.8773 14.2373 29.8773 14.664 29.792C15.176 29.6213 16.072 29.3227 17.352 28.896C18.7173 28.384 20.68 27.7013 23.24 26.848C25.288 26.1653 27.5067 25.4827 29.896 24.8C32.2853 24.032 34.7173 23.3067 37.192 22.624C39.6667 21.9413 42.0987 21.3013 44.488 20.704C46.8773 20.1067 49.0107 19.5947 50.888 19.168C53.1067 18.656 54.4293 18.3147 54.856 18.144C55.368 17.888 54.5573 17.9733 52.424 18.4C49.7787 18.912 46.6213 19.6373 42.952 20.576C39.2827 21.5147 35.656 22.5387 32.072 23.648C28.488 24.672 25.16 25.696 22.088 26.72C19.1013 27.6587 16.8827 28.4693 15.432 29.152ZM51.016 37.984C51.016 38.1547 51.016 38.2827 51.016 38.368C51.1013 38.368 51.272 38.1973 51.528 37.856C51.784 37.4293 52.2107 36.7467 52.808 35.808C53.4053 34.8693 54.2587 33.4613 55.368 31.584C56.4773 29.7067 57.5013 28.0427 58.44 26.592C59.3787 25.056 59.9333 24.16 60.104 23.904C60.5307 23.3067 60.616 23.008 60.36 23.008C60.1893 23.008 59.592 23.7333 58.568 25.184C57.544 26.6347 56.4773 28.256 55.368 30.048C54.2587 31.84 53.2347 33.5467 52.296 35.168C51.4427 36.704 51.016 37.6427 51.016 37.984ZM56.648 17.888C57.16 17.888 57.3307 17.8027 57.16 17.632C56.9893 17.4613 56.7333 17.4613 56.392 17.632C55.88 17.8027 55.9653 17.888 56.648 17.888ZM56.136 26.72C55.88 26.976 55.496 27.488 54.984 28.256C54.472 29.024 53.96 29.8347 53.448 30.688C52.936 31.456 52.4667 32.1813 52.04 32.864C51.6133 33.5467 51.4 33.9307 51.4 34.016C51.4 34.3573 51.5707 34.3147 51.912 33.888C52.2533 33.376 52.8507 32.3947 53.704 30.944C54.3013 30.0907 54.8133 29.2373 55.24 28.384C55.752 27.5307 56.0933 26.976 56.264 26.72L57.032 25.696L56.136 26.72ZM15.304 35.424C16.1573 35.424 16.4133 35.3387 16.072 35.168C15.9013 35.168 15.688 35.168 15.432 35.168C15.176 35.0827 14.9627 35.0827 14.792 35.168C14.28 35.3387 14.4507 35.424 15.304 35.424ZM18.12 35.04C18.7173 35.04 18.9307 34.9547 18.76 34.784C18.5893 34.6133 18.2907 34.6133 17.864 34.784C17.5227 34.9547 17.608 35.04 18.12 35.04ZM21.064 34.656C21.6613 34.656 21.8747 34.5707 21.704 34.4C21.448 34.3147 21.1493 34.3147 20.808 34.4C20.4667 34.5707 20.552 34.656 21.064 34.656ZM23.24 33.376C23.752 33.376 23.9227 33.2907 23.752 33.12C23.5813 32.9493 23.3253 32.9493 22.984 33.12C22.472 33.2907 22.5573 33.376 23.24 33.376ZM26.568 33.76C26.9947 33.76 27.1653 33.7173 27.08 33.632C26.9093 33.376 26.6533 33.3333 26.312 33.504C25.8 33.6747 25.8853 33.76 26.568 33.76ZM29 32.48C29.6827 32.6507 29.896 32.608 29.64 32.352C29.4693 32.2667 29.1707 32.224 28.744 32.224C28.5733 32.3947 28.6587 32.48 29 32.48ZM33.864 32.864C34.376 32.864 34.5467 32.8213 34.376 32.736C34.0347 32.5653 33.6933 32.5653 33.352 32.736C33.1813 32.8213 33.352 32.864 33.864 32.864ZM34.248 32.096C35.1013 32.096 35.272 32.0107 34.76 31.84C34.504 31.6693 34.1627 31.6693 33.736 31.84C33.3947 32.0107 33.5653 32.096 34.248 32.096ZM38.472 31.584C39.24 31.584 39.496 31.5413 39.24 31.456C38.728 31.2853 38.216 31.2853 37.704 31.456C37.448 31.5413 37.704 31.584 38.472 31.584ZM36.04 29.92C38.344 29.7493 40.1787 29.664 41.544 29.664C42.9947 29.664 44.1893 29.7493 45.128 29.92L47.688 30.304L49.608 27.616C50.12 26.9333 50.5467 26.336 50.888 25.824C51.2293 25.2267 51.3573 24.8853 51.272 24.8C51.1867 24.7147 50.504 24.8 49.224 25.056C48.0293 25.312 46.536 25.6533 44.744 26.08C42.952 26.5067 40.9893 26.976 38.856 27.488C36.808 27.9147 34.8453 28.384 32.968 28.896C31.176 29.3227 29.64 29.7493 28.36 30.176C27.08 30.5173 26.3973 30.7307 26.312 30.816C26.2267 30.9013 26.3547 30.944 26.696 30.944C27.0373 30.944 27.4213 30.8587 27.848 30.688C28.2747 30.6027 29.2987 30.5173 30.92 30.432C32.5413 30.2613 34.248 30.0907 36.04 29.92ZM39.368 55.648C38.5147 57.2693 37.7893 58.6347 37.192 59.744C36.68 60.8533 36.4667 61.408 36.552 61.408C36.6373 61.408 36.9787 60.8107 37.576 59.616C38.2587 58.4213 39.0693 56.9707 40.008 55.264C40.9467 53.5573 41.8427 51.8933 42.696 50.272C43.5493 48.5653 44.1893 47.3707 44.616 46.688C45.0427 46.0053 45.384 45.408 45.64 44.896C45.896 44.384 45.9813 44.0853 45.896 44C45.7253 43.8293 45.1707 44.64 44.232 46.432C43.2933 48.224 41.672 51.296 39.368 55.648ZM32.584 68.704C32.328 68.96 32.2 69.1733 32.2 69.344C32.2 70.0267 32.4133 69.9413 32.84 69.088C33.0107 68.6613 32.9253 68.5333 32.584 68.704ZM28.872 76.64C28.616 76.7253 28.488 76.9387 28.488 77.28C28.488 77.6213 28.5307 77.792 28.616 77.792C28.7013 77.7067 28.8293 77.4507 29 77.024C29.1707 76.5973 29.128 76.4693 28.872 76.64ZM26.952 80.864C26.7813 81.0347 26.6107 81.248 26.44 81.504C26.3547 81.76 26.312 81.9307 26.312 82.016C26.312 82.6133 26.6107 82.3147 27.208 81.12C27.3787 80.608 27.464 80.352 27.464 80.352C27.464 80.2667 27.2933 80.4373 26.952 80.864ZM15.944 116.576C15.944 117.685 15.9867 118.155 16.072 117.984C16.1573 117.813 16.328 116.875 16.584 115.168C16.7547 114.144 16.968 112.907 17.224 111.456C17.48 109.92 17.736 108.555 17.992 107.36C18.3333 106.08 18.76 104.587 19.272 102.88C19.784 101.088 20.296 99.296 20.808 97.504C21.4053 95.712 22.0027 93.9627 22.6 92.256C23.2827 90.464 23.9227 88.8853 24.52 87.52C25.032 86.3253 25.4587 85.2587 25.8 84.32C26.1413 83.3813 26.2693 82.912 26.184 82.912C26.0987 82.8267 25.8 83.3387 25.288 84.448C24.8613 85.472 24.3067 86.7947 23.624 88.416C23.0267 90.0373 22.3867 91.7867 21.704 93.664C21.0213 95.5413 20.424 97.248 19.912 98.784C18.7173 102.283 17.736 105.739 16.968 109.152C16.2853 112.48 15.944 114.955 15.944 116.576ZM18.376 115.424C18.888 111.499 19.8267 107.189 21.192 102.496C22.6427 97.7173 24.5627 92.4267 26.952 86.624C29.4267 80.736 32.4133 74.208 35.912 67.04C39.496 59.872 43.6773 51.936 48.456 43.232L49.352 41.568L48.328 42.848C47.9867 43.1893 47.432 44.0427 46.664 45.408C45.896 46.688 45.0853 48.0533 44.232 49.504C43.3787 51.1253 42.184 53.4293 40.648 56.416C39.1973 59.3173 37.704 62.304 36.168 65.376C34.632 68.3627 33.224 71.136 31.944 73.696C30.7493 76.1707 29.9387 77.8773 29.512 78.816C25.2453 88.3733 22.1733 96.2667 20.296 102.496C18.4187 108.64 17.5227 113.888 17.608 118.24C17.6933 119.349 17.736 120.16 17.736 120.672C17.736 121.099 17.7787 121.056 17.864 120.544C17.9493 120.117 18.0347 119.392 18.12 118.368C18.2053 117.344 18.2907 116.363 18.376 115.424ZM21.576 110.048C22.2587 106.805 23.3253 103.051 24.776 98.784C26.2267 94.5173 27.8053 90.336 29.512 86.24C30.4507 84.1067 31.6453 81.504 33.096 78.432C34.5467 75.2747 36.168 71.904 37.96 68.32C39.752 64.736 41.6293 61.024 43.592 57.184C45.64 53.2587 47.6453 49.4613 49.608 45.792C51.656 42.0373 53.576 38.5387 55.368 35.296C57.2453 32.0533 58.9093 29.2373 60.36 26.848C60.9573 25.9093 61.4267 25.0987 61.768 24.416C62.1093 23.648 62.2373 23.2213 62.152 23.136C62.152 23.0507 61.896 23.392 61.384 24.16C60.872 24.8427 60.1893 25.8667 59.336 27.232C58.568 28.5973 57.6293 30.176 56.52 31.968C55.496 33.76 54.3867 35.7227 53.192 37.856C52.168 39.648 50.9733 41.824 49.608 44.384C48.2427 46.8587 46.8347 49.504 45.384 52.32C43.9333 55.136 42.44 58.0373 40.904 61.024C39.368 64.0107 37.9173 66.8693 36.552 69.6C35.1867 72.3307 33.9493 74.848 32.84 77.152C31.816 79.456 30.9627 81.3333 30.28 82.784C28.744 86.2827 27.2933 89.824 25.928 93.408C24.648 96.9067 23.5813 100.021 22.728 102.752C22.3013 104.117 21.8747 105.568 21.448 107.104C21.1067 108.64 20.808 110.133 20.552 111.584C20.296 112.949 20.0827 114.187 19.912 115.296C19.7413 116.405 19.656 117.216 19.656 117.728C19.7413 118.411 19.784 118.709 19.784 118.624C19.8693 118.539 19.9973 118.027 20.168 117.088C20.2533 116.405 20.424 115.381 20.68 114.016C21.0213 112.651 21.32 111.328 21.576 110.048ZM25.288 112.736C25.7147 111.029 26.0133 109.749 26.184 108.896C26.3547 107.957 26.4827 107.275 26.568 106.848C26.6533 106.421 26.696 106.208 26.696 106.208C26.696 106.123 26.6533 106.123 26.568 106.208C26.4827 106.379 26.2693 107.104 25.928 108.384C25.5867 109.664 25.2027 111.157 24.776 112.864C24.4347 114.485 24.0933 116.149 23.752 117.856C23.496 119.563 23.3253 120.971 23.24 122.08C23.1547 122.763 23.0693 123.445 22.984 124.128C22.8987 124.811 22.8133 125.365 22.728 125.792C22.5573 126.816 22.6427 127.115 22.984 126.688C23.0693 126.517 23.1547 126.005 23.24 125.152C23.4107 124.384 23.5387 123.531 23.624 122.592C23.7093 121.653 23.88 120.245 24.136 118.368C24.4773 116.405 24.8613 114.528 25.288 112.736ZM29.256 89.824C29.512 89.568 29.64 89.2267 29.64 88.8C29.64 88.544 29.512 88.6293 29.256 89.056C29 89.312 28.872 89.6533 28.872 90.08C28.872 90.2507 29 90.1653 29.256 89.824ZM30.536 86.88C30.792 86.624 30.92 86.2827 30.92 85.856C30.92 85.6 30.792 85.6853 30.536 86.112C30.28 86.4533 30.152 86.7947 30.152 87.136C30.152 87.3067 30.28 87.2213 30.536 86.88ZM32.2 82.912C32.2 82.7413 31.9867 82.9547 31.56 83.552C31.3893 83.8933 31.2187 84.192 31.048 84.448C30.9627 84.704 30.92 84.9173 30.92 85.088C30.92 85.1733 30.9627 85.1733 31.048 85.088C31.2187 84.9173 31.3893 84.704 31.56 84.448C31.9867 83.7653 32.2 83.2533 32.2 82.912ZM34.248 78.304C34.248 78.1333 34.0347 78.3467 33.608 78.944C33.2667 79.7973 33.096 80.3093 33.096 80.48C33.096 80.736 33.2667 80.5227 33.608 79.84C34.0347 79.1573 34.248 78.6453 34.248 78.304ZM36.296 73.952C36.552 73.44 36.68 73.184 36.68 73.184C36.68 73.0987 36.5093 73.2693 36.168 73.696C35.7413 74.2933 35.528 74.72 35.528 74.976C35.528 75.5733 35.784 75.232 36.296 73.952ZM38.088 70.624C38.2587 70.112 38.344 69.856 38.344 69.856C38.344 69.7707 38.1733 69.9413 37.832 70.368C37.6613 70.624 37.4907 70.88 37.32 71.136C37.2347 71.3067 37.192 71.4773 37.192 71.648C37.192 72.16 37.4907 71.8187 38.088 70.624ZM38.856 68.96C39.112 68.5333 39.24 68.192 39.24 67.936C39.24 67.7653 39.112 67.808 38.856 68.064C38.7707 68.2347 38.6853 68.448 38.6 68.704C38.5147 68.8747 38.472 69.0453 38.472 69.216C38.472 69.3013 38.5147 69.344 38.6 69.344C38.6853 69.2587 38.7707 69.1307 38.856 68.96ZM42.312 61.92C42.6533 61.5787 42.7387 61.3227 42.568 61.152C42.3973 60.9813 42.2267 61.152 42.056 61.664C41.8 62.2613 41.8853 62.3467 42.312 61.92ZM54.984 44C55.1547 43.5733 55.0693 43.4453 54.728 43.616C54.472 43.872 54.344 44.0853 54.344 44.256C54.344 44.5973 54.3867 44.768 54.472 44.768C54.6427 44.6827 54.8133 44.4267 54.984 44ZM59.976 34.528C61.1707 32.3093 62.152 30.432 62.92 28.896C63.688 27.36 64.0293 26.5493 63.944 26.464C63.8587 26.464 63.3893 27.2747 62.536 28.896C61.6827 30.5173 60.6587 32.48 59.464 34.784C58.2693 37.088 57.2453 39.0507 56.392 40.672C55.624 42.2933 55.3253 43.0187 55.496 42.848C55.6667 42.6773 56.1787 41.824 57.032 40.288C57.8853 38.6667 58.8667 36.7467 59.976 34.528ZM86.728 11.104C87.1547 11.1893 87.4107 11.232 87.496 11.232C87.6667 11.1467 87.6667 11.0613 87.496 10.976C87.24 10.8053 86.8133 10.8053 86.216 10.976C85.96 11.0613 86.1307 11.104 86.728 11.104ZM90.312 10.72C90.824 10.72 90.9947 10.6773 90.824 10.592C90.4827 10.4213 90.1413 10.4213 89.8 10.592C89.6293 10.6773 89.8 10.72 90.312 10.72ZM58.952 11.744C58.44 11.9147 58.4827 12 59.08 12C59.7627 12.1707 59.976 12.128 59.72 11.872C59.464 11.616 59.208 11.5733 58.952 11.744ZM56.776 12.256C56.6053 12.3413 56.6907 12.4267 57.032 12.512C57.7147 12.512 57.8853 12.4267 57.544 12.256C57.4587 12.0853 57.2027 12.0853 56.776 12.256ZM50.504 10.592C50.3333 10.6773 50.4187 10.7627 50.76 10.848C51.4427 10.848 51.6133 10.7627 51.272 10.592C51.1867 10.4213 50.9307 10.4213 50.504 10.592ZM80.456 9.43999C78.2373 9.696 75.7627 10.0373 73.032 10.464C70.3867 10.8907 67.656 11.36 64.84 11.872C62.1093 12.2987 59.4213 12.768 56.776 13.28C54.1307 13.792 51.784 14.304 49.736 14.816C48.2853 15.1573 46.4933 15.6267 44.36 16.224C42.2267 16.736 40.136 17.2907 38.088 17.888C36.1253 18.4853 34.4187 18.9973 32.968 19.424C31.5173 19.8507 30.7067 20.1493 30.536 20.32C30.3653 20.4907 30.6213 20.4907 31.304 20.32C31.9867 20.1493 33.5653 19.7227 36.04 19.04C39.7093 18.016 43.848 16.992 48.456 15.968C53.1493 14.8587 57.6293 13.92 61.896 13.152C63.2613 12.896 64.968 12.5973 67.016 12.256C69.064 11.9147 71.0693 11.5733 73.032 11.232C75.08 10.8907 76.9147 10.592 78.536 10.336C80.2427 10.08 81.3947 9.90933 81.992 9.824C82.6747 9.65333 83.272 9.56799 83.784 9.56799C84.3813 9.48266 84.808 9.39733 85.064 9.312C85.2347 9.312 86.0027 9.22666 87.368 9.05599C88.7333 8.88533 90.2693 8.71466 91.976 8.54399C95.2187 8.11732 97.2667 7.81866 98.12 7.64799C98.9733 7.39199 98.0347 7.39199 95.304 7.64799C94.6213 7.73333 93.6827 7.86133 92.488 8.032C91.2933 8.11733 89.9707 8.24533 88.52 8.41599C87.1547 8.58666 85.7467 8.75733 84.296 8.92799C82.9307 9.09866 81.6507 9.26933 80.456 9.43999ZM48.456 10.976C47.944 11.1467 48.0293 11.232 48.712 11.232C49.224 11.232 49.3947 11.1467 49.224 10.976C49.0533 10.8053 48.7973 10.8053 48.456 10.976ZM46.792 11.36C46.28 11.5307 46.3653 11.616 47.048 11.616C47.56 11.616 47.7307 11.5307 47.56 11.36C47.3893 11.1893 47.1333 11.1893 46.792 11.36ZM45.128 11.744C44.616 11.9147 44.7013 12 45.384 12C45.5547 12.0853 45.6827 12.128 45.768 12.128C45.9387 12.0427 45.9813 11.9573 45.896 11.872C45.64 11.616 45.384 11.5733 45.128 11.744ZM43.976 12.256C43.8053 12.1707 42.824 12.384 41.032 12.896C39.3253 13.3227 37.448 13.8773 35.4 14.56C33.4373 15.1573 31.6453 15.7547 30.024 16.352C28.4027 16.864 27.592 17.2053 27.592 17.376C27.592 17.5467 27.8053 17.5467 28.232 17.376C28.4027 17.2907 29.1707 17.0347 30.536 16.608C31.9013 16.1813 33.4373 15.6693 35.144 15.072C36.936 14.4747 38.6 13.9627 40.136 13.536C41.672 13.1093 42.6533 12.8107 43.08 12.64C43.5067 12.5547 43.8053 12.4693 43.976 12.384C44.1467 12.2987 44.1467 12.256 43.976 12.256ZM10.696 29.664C9.75733 30.176 9.50133 30.3467 9.928 30.176C10.3547 30.0053 12.1893 29.3227 15.432 28.128C19.8693 26.4213 24.2213 24.8853 28.488 23.52C32.7547 22.1547 37.448 20.8747 42.568 19.68C47.688 18.4 53.448 17.1627 59.848 15.968C66.3333 14.688 73.928 13.28 82.632 11.744L85.064 11.36L82.376 11.488C81.608 11.5733 79.9867 11.7867 77.512 12.128C75.1227 12.4693 72.4347 12.896 69.448 13.408C66.4613 13.92 63.4747 14.432 60.488 14.944C57.5867 15.456 55.2827 15.8827 53.576 16.224C49.8213 16.992 45.768 17.9733 41.416 19.168C37.1493 20.2773 33.0107 21.472 29 22.752C24.9893 23.9467 21.3627 25.184 18.12 26.464C14.8773 27.6587 12.4027 28.7253 10.696 29.664ZM131.22 70.24C132.073 69.8987 132.585 69.728 132.756 69.728C133.012 69.728 133.311 69.8987 133.652 70.24C134.249 70.752 134.292 71.7333 133.78 73.184C133.353 74.5493 132.5 76.0853 131.22 77.792C130.537 78.56 129.428 79.968 127.892 82.016C126.441 84.064 124.905 86.112 123.284 88.16C115.604 98.3147 109.076 106.08 103.7 111.456C98.324 116.747 94.356 119.392 91.796 119.392C91.1133 119.392 90.3453 119.221 89.492 118.88C88.5533 118.368 87.7427 117.728 87.06 116.96C86.3773 116.107 85.908 115.68 85.652 115.68C85.5667 115.68 85.3533 115.595 85.012 115.424C84.6707 115.168 84.2867 114.869 83.86 114.528C82.9213 113.845 81.94 112.736 80.916 111.2C79.9773 109.579 79.2947 108 78.868 106.464L78.228 103.904L76.564 105.952C74.3453 108.427 72.1267 110.645 69.908 112.608C67.6893 114.485 65.8547 115.723 64.404 116.32C63.2093 116.747 62.0573 116.832 60.948 116.576C59.8387 116.32 58.8147 115.765 57.876 114.912C57.5347 114.571 57.1507 114.229 56.724 113.888C56.2973 113.461 55.8707 113.163 55.444 112.992C54.5053 112.565 53.4387 111.669 52.244 110.304C51.0493 108.853 50.1533 107.488 49.556 106.208C47.8493 102.368 47.6787 97.888 49.044 92.768C50.324 87.5627 53.3107 81.1627 58.004 73.568C59.028 71.9467 60.0947 70.4107 61.204 68.96C62.3987 67.424 63.508 66.0587 64.532 64.864C65.6413 63.6693 66.6653 62.688 67.604 61.92C68.628 61.0667 69.4813 60.5547 70.164 60.384C72.5533 59.616 73.9613 60.128 74.388 61.92C74.5587 62.8587 74.9 63.328 75.412 63.328C75.924 63.328 76.18 63.4133 76.18 63.584C76.2653 63.6693 76.1373 64.0107 75.796 64.608C75.54 65.0347 75.412 65.2907 75.412 65.376C75.4973 65.376 75.7533 65.1627 76.18 64.736C76.7773 64.3093 77.076 64.224 77.076 64.48C77.076 64.736 77.204 64.864 77.46 64.864C77.8013 64.6933 78.228 64.992 78.74 65.76C79.3373 66.528 79.636 67.2533 79.636 67.936C79.636 68.704 78.9533 70.4107 77.588 73.056C76.2227 75.7013 74.3027 78.944 71.828 82.784C70.292 85.1733 68.9693 87.392 67.86 89.44C66.836 91.4027 65.8973 93.3227 65.044 95.2C64.276 97.0773 63.5933 98.9547 62.996 100.832C62.484 102.709 62.0147 104.715 61.588 106.848C61.1613 108.469 61.076 109.408 61.332 109.664C61.5027 109.749 61.8867 109.664 62.484 109.408C63.0813 109.067 63.8067 108.597 64.66 108C65.5133 107.403 66.452 106.72 67.476 105.952C68.5 105.099 69.4813 104.203 70.42 103.264C73.3213 100.448 75.54 98.0587 77.076 96.096C78.612 94.1333 79.7213 92.2987 80.404 90.592C80.8307 89.6533 81.428 88.3733 82.196 86.752C82.964 85.1307 83.8173 83.3813 84.756 81.504C85.78 79.5413 86.8467 77.5787 87.956 75.616C89.0653 73.568 90.132 71.6907 91.156 69.984C93.3747 66.2293 95.4653 63.328 97.428 61.28C98.8787 59.744 99.8173 58.848 100.244 58.592C100.756 58.336 101.439 58.2507 102.292 58.336C103.231 58.4213 103.743 58.5493 103.828 58.72C103.999 58.8053 104.084 59.1893 104.084 59.872C103.999 60.8107 104.169 61.1093 104.596 60.768C105.449 59.9147 105.364 60.512 104.34 62.56L103.444 64.352L104.724 62.816C105.577 61.792 106.089 61.4507 106.26 61.792C106.601 62.1333 107.113 62.432 107.796 62.688C108.564 63.1147 108.948 63.4987 108.948 63.84C108.948 64.2667 109.161 64.5653 109.588 64.736C110.015 64.8213 110.185 65.5893 110.1 67.04C109.759 69.6 107.625 74.2933 103.7 81.12C101.481 84.96 99.4333 88.7147 97.556 92.384C95.764 95.968 94.3133 99.1253 93.204 101.856C92.2653 104.331 91.54 106.592 91.028 108.64C90.516 110.688 90.388 111.84 90.644 112.096C90.9 112.352 91.412 112.352 92.18 112.096C92.948 111.84 93.844 111.413 94.868 110.816C95.9773 110.219 97.172 109.493 98.452 108.64C99.732 107.787 100.927 106.891 102.036 105.952C103.316 104.928 104.852 103.435 106.644 101.472C108.521 99.5093 110.399 97.4187 112.276 95.2C114.153 92.9813 115.945 90.72 117.652 88.416C119.359 86.0267 120.767 83.936 121.876 82.144C122.303 81.4613 122.943 80.48 123.796 79.2C124.649 77.8347 125.545 76.5547 126.484 75.36C127.764 73.4827 128.703 72.2453 129.3 71.648C129.897 70.9653 130.537 70.496 131.22 70.24ZM105.492 73.056C104.297 75.2747 103.7 76.5547 103.7 76.896C103.7 77.152 104.297 76.256 105.492 74.208C105.833 73.6107 106.175 72.9707 106.516 72.288C106.857 71.52 107.156 70.8373 107.412 70.24C107.668 69.6427 107.839 69.1733 107.924 68.832C108.095 68.4053 108.095 68.2347 107.924 68.32C107.839 68.4053 107.54 68.9173 107.028 69.856C106.601 70.7947 106.089 71.8613 105.492 73.056ZM76.692 70.112C76.436 70.88 76.436 71.1787 76.692 71.008C76.948 70.752 77.204 70.24 77.46 69.472C77.716 68.704 77.7587 68.4053 77.588 68.576C77.4173 68.6613 77.1187 69.1733 76.692 70.112ZM66.196 82.144C66.5373 81.5467 66.6227 81.248 66.452 81.248C66.3667 81.248 66.1533 81.5467 65.812 82.144C65.4707 82.656 65.3853 82.912 65.556 82.912C65.6413 82.912 65.8547 82.656 66.196 82.144ZM72.34 66.144C71.9133 66.4 71.7 66.656 71.7 66.912C71.7 67.168 71.9987 66.9547 72.596 66.272C73.108 65.6747 73.0227 65.632 72.34 66.144ZM64.148 74.592C63.892 75.104 63.8067 75.36 63.892 75.36C64.0627 75.36 64.276 75.104 64.532 74.592C64.8733 73.9947 64.9587 73.696 64.788 73.696C64.7027 73.696 64.4893 73.9947 64.148 74.592ZM53.268 96.992C53.268 97.248 53.3533 97.12 53.524 96.608C53.78 96.0107 54.0787 95.2427 54.42 94.304C54.8467 93.3653 55.3587 92.128 55.956 90.592C56.6387 88.9707 57.2787 87.5627 57.876 86.368C58.4733 85.1733 59.1133 83.8933 59.796 82.528C60.4787 81.1627 61.0333 80.1387 61.46 79.456C62.6547 77.5787 63.3373 76.512 63.508 76.256C63.6787 75.9147 63.636 75.8293 63.38 76C63.2093 76.0853 62.868 76.5547 62.356 77.408C61.844 78.176 61.2467 79.1147 60.564 80.224C59.8813 81.3333 59.1987 82.528 58.516 83.808C57.8333 85.0027 57.236 86.112 56.724 87.136C55.7853 88.928 54.932 90.848 54.164 92.896C53.4813 94.944 53.1827 96.3093 53.268 96.992ZM54.548 99.936C54.548 100.619 54.5907 100.832 54.676 100.576C54.7613 100.32 55.1453 98.9547 55.828 96.48C56.7667 93.0667 58.3027 89.312 60.436 85.216C62.5693 81.12 65.428 76.4693 69.012 71.264C69.9507 69.8133 70.5053 68.9173 70.676 68.576C70.932 68.1493 70.7613 68.2773 70.164 68.96C69.7373 69.472 69.0973 70.2827 68.244 71.392C67.476 72.416 66.6227 73.6533 65.684 75.104C64.8307 76.4693 63.9347 77.92 62.996 79.456C62.0573 80.9067 61.204 82.272 60.436 83.552C59.5827 85.0027 58.772 86.5387 58.004 88.16C57.3213 89.7813 56.724 91.36 56.212 92.896C55.7 94.3467 55.2733 95.712 54.932 96.992C54.676 98.1867 54.548 99.168 54.548 99.936ZM58.004 94.944C57.9187 95.2853 57.8333 95.5413 57.748 95.712C57.748 95.8827 57.8333 95.84 58.004 95.584C58.1747 95.328 58.4733 94.7307 58.9 93.792C59.3267 92.8533 59.9667 91.488 60.82 89.696C61.4173 88.5013 62.0573 87.2213 62.74 85.856C63.4227 84.4907 63.9773 83.4667 64.404 82.784C64.8307 82.1013 65.5133 80.992 66.452 79.456C67.476 77.92 68.5427 76.2987 69.652 74.592C70.7613 72.8853 71.7427 71.3493 72.596 69.984C73.5347 68.6187 74.0893 67.808 74.26 67.552C74.516 67.2107 74.516 67.04 74.26 67.04C74.1747 67.04 73.6627 67.68 72.724 68.96C71.7853 70.24 70.7187 71.776 69.524 73.568C68.3293 75.36 67.092 77.2373 65.812 79.2C64.6173 81.0773 63.636 82.656 62.868 83.936C61.6733 85.984 60.6067 88.0747 59.668 90.208C58.8147 92.3413 58.26 93.92 58.004 94.944ZM60.308 101.984C60.3933 102.155 60.5213 101.984 60.692 101.472C60.8627 100.96 61.076 100.32 61.332 99.552C61.588 98.6987 61.8867 97.76 62.228 96.736C62.6547 95.712 63.0387 94.8587 63.38 94.176C64.0627 92.64 64.404 91.744 64.404 91.488C64.4893 91.232 64.1907 91.744 63.508 93.024C63.252 93.536 62.9107 94.2613 62.484 95.2C62.1427 96.0533 61.8013 96.9493 61.46 97.888C61.1187 98.8267 60.82 99.68 60.564 100.448C60.3933 101.216 60.308 101.728 60.308 101.984ZM101.012 81.76C101.78 80.3093 101.951 79.84 101.524 80.352C101.268 80.608 100.841 81.2053 100.244 82.144C99.732 83.0827 99.22 84.064 98.708 85.088C98.196 86.0267 97.7267 86.88 97.3 87.648C96.9587 88.416 96.8307 88.8 96.916 88.8C97.0013 88.8 97.172 88.5867 97.428 88.16C97.7693 87.648 98.1107 87.0507 98.452 86.368C98.7933 85.6853 99.1773 84.9173 99.604 84.064C100.116 83.1253 100.585 82.3573 101.012 81.76ZM83.476 98.528C83.476 98.8693 83.5613 98.8267 83.732 98.4C83.988 97.888 84.1587 97.4187 84.244 96.992C84.244 96.8213 84.2013 96.7787 84.116 96.864C84.0307 96.9493 83.9453 97.0773 83.86 97.248C83.6893 97.4187 83.5613 97.632 83.476 97.888C83.3907 98.144 83.3907 98.3573 83.476 98.528ZM85.396 99.936C85.7373 98.912 86.1213 97.76 86.548 96.48C86.9747 95.2 87.3587 94.2187 87.7 93.536C88.3827 91.8293 88.724 90.8907 88.724 90.72C88.8093 90.5493 88.5533 90.8053 87.956 91.488C87.7 91.8293 87.3587 92.4693 86.932 93.408C86.5907 94.2613 86.2067 95.2 85.78 96.224C85.4387 97.248 85.14 98.272 84.884 99.296C84.628 100.32 84.4573 101.173 84.372 101.856C84.2867 102.624 84.2867 102.88 84.372 102.624C84.5427 102.368 84.884 101.472 85.396 99.936ZM87.956 98.272C87.956 98.016 88.3827 96.992 89.236 95.2C90.0893 93.408 91.1133 91.36 92.308 89.056C93.5027 86.752 94.6973 84.4907 95.892 82.272C97.0867 79.968 98.068 78.2613 98.836 77.152C99.1773 76.64 99.348 76.384 99.348 76.384C99.348 76.2987 99.1773 76.384 98.836 76.64C98.4947 76.896 97.8973 77.664 97.044 78.944C96.276 80.224 95.4227 81.76 94.484 83.552C93.5453 85.2587 92.6067 87.0933 91.668 89.056C90.7293 90.9333 89.876 92.64 89.108 94.176C88.4253 95.712 87.9133 96.992 87.572 98.016C87.2307 98.9547 87.2307 99.296 87.572 99.04C87.828 98.8693 87.956 98.6133 87.956 98.272ZM89.876 105.44C90.132 105.184 90.1747 104.928 90.004 104.672C89.8333 104.16 89.748 104.245 89.748 104.928C89.5773 105.525 89.62 105.696 89.876 105.44ZM90.132 103.776C90.132 104.203 90.26 104.117 90.516 103.52C90.772 102.837 91.2413 101.643 91.924 99.936C92.3507 98.8267 92.8627 97.5893 93.46 96.224C94.1427 94.8587 94.6973 93.7067 95.124 92.768C95.5507 91.8293 95.892 91.0613 96.148 90.464C96.4893 89.7813 96.66 89.3973 96.66 89.312C96.5747 89.2267 96.1907 89.8667 95.508 91.232C94.8253 92.5973 94.0573 94.176 93.204 95.968C92.436 97.6747 91.7107 99.3387 91.028 100.96C90.4307 102.496 90.132 103.435 90.132 103.776ZM104.34 107.104C104.937 106.336 105.193 105.952 105.108 105.952C104.937 105.952 104.553 106.336 103.956 107.104C103.615 107.36 103.359 107.616 103.188 107.872C103.103 108.043 103.103 108.128 103.188 108.128C103.273 108.128 103.401 108.043 103.572 107.872C103.828 107.616 104.084 107.36 104.34 107.104ZM112.404 99.808C112.745 99.4667 112.831 99.2107 112.66 99.04C112.489 98.8693 112.319 99.04 112.148 99.552C111.977 99.9787 112.063 100.064 112.404 99.808ZM113.812 96.352C113.727 96.4373 113.641 96.5227 113.556 96.608C113.471 96.608 113.385 96.6507 113.3 96.736C113.3 96.8213 113.257 96.9067 113.172 96.992C113.172 97.248 113.471 97.0773 114.068 96.48C114.324 96.1387 114.452 95.968 114.452 95.968C114.452 95.968 114.239 96.096 113.812 96.352ZM114.196 97.632C114.623 97.0347 114.793 96.736 114.708 96.736C114.537 96.736 114.239 97.0347 113.812 97.632C113.215 98.2293 113.001 98.528 113.172 98.528C113.428 98.528 113.769 98.2293 114.196 97.632ZM119.06 91.36C119.316 90.9333 119.444 90.6347 119.444 90.464C119.529 90.208 119.487 90.1653 119.316 90.336C118.975 90.7627 118.719 90.8907 118.548 90.72C118.463 90.5493 118.164 90.72 117.652 91.232C117.396 91.5733 117.268 91.744 117.268 91.744C117.268 91.744 117.481 91.616 117.908 91.36C118.42 90.9333 118.633 90.8907 118.548 91.232C118.548 91.488 118.207 92.0427 117.524 92.896C117.268 93.3227 117.012 93.664 116.756 93.92C116.585 94.176 116.5 94.3893 116.5 94.56C116.5 94.816 117.353 93.7493 119.06 91.36ZM121.492 86.752C121.833 86.24 122.047 85.9413 122.132 85.856C122.132 85.6853 122.175 85.5573 122.26 85.472C122.089 85.472 121.705 85.8987 121.108 86.752C120.852 87.0933 120.639 87.392 120.468 87.648C120.383 87.904 120.383 88.032 120.468 88.032L121.492 86.752ZM124.948 83.296C125.119 82.8693 125.033 82.6987 124.692 82.784C124.351 82.784 123.967 82.9973 123.54 83.424C123.284 83.68 123.156 83.808 123.156 83.808C123.241 83.808 123.412 83.68 123.668 83.424C124.18 83.0827 124.479 83.0827 124.564 83.424C124.735 83.8507 124.863 83.808 124.948 83.296ZM128.404 76.768C128.745 76.3413 129.001 76 129.172 75.744C129.343 75.488 129.343 75.4453 129.172 75.616C129.087 75.7013 128.916 75.872 128.66 76.128C128.404 76.384 128.148 76.6827 127.892 77.024C127.636 77.3653 127.423 77.664 127.252 77.92C127.081 78.176 127.039 78.304 127.124 78.304C127.209 78.304 127.636 77.792 128.404 76.768ZM133.012 71.52C133.268 71.6907 133.311 71.6053 133.14 71.264C132.969 70.9227 132.713 70.8373 132.372 71.008C132.116 71.1787 131.689 71.6907 131.092 72.544C130.495 73.3973 130.409 73.696 130.836 73.44C131.007 73.2693 131.177 73.184 131.348 73.184C131.519 73.0987 131.604 73.0987 131.604 73.184C131.86 73.184 132.159 72.9707 132.5 72.544C132.756 72.2027 132.884 72.032 132.884 72.032C132.884 72.032 132.713 72.16 132.372 72.416C131.86 72.7573 131.604 72.8 131.604 72.544C131.604 72.2027 131.775 71.904 132.116 71.648C132.543 71.392 132.841 71.3493 133.012 71.52ZM202.066 31.584C202.663 31.84 203.175 32.3947 203.602 33.248C204.029 34.016 204.157 34.528 203.986 34.784C203.901 34.8693 202.962 34.9973 201.17 35.168C199.378 35.2533 197.245 35.3813 194.77 35.552C192.21 35.7227 190.077 35.8933 188.37 36.064C186.663 36.2347 184.999 36.4053 183.378 36.576C181.757 36.7467 180.05 37.0027 178.258 37.344C176.466 37.6 174.247 37.9413 171.602 38.368C168.871 38.7947 166.823 39.136 165.458 39.392C164.093 39.5627 163.026 39.8613 162.258 40.288C161.575 40.6293 161.021 41.1413 160.594 41.824C160.253 42.5067 159.698 43.5733 158.93 45.024C158.589 45.7067 158.077 46.6453 157.394 47.84C156.797 48.9493 156.071 50.2293 155.218 51.68C154.365 53.0453 153.469 54.5387 152.53 56.16C151.677 57.696 150.823 59.232 149.97 60.768C148.349 63.4987 146.685 66.4427 144.978 69.6C143.357 72.672 141.778 75.744 140.242 78.816C138.706 81.8027 137.298 84.6187 136.018 87.264C134.738 89.9093 133.757 92.128 133.074 93.92C132.647 94.944 132.05 96.5653 131.282 98.784C130.599 100.917 129.917 102.965 129.234 104.928C128.295 107.829 127.655 110.048 127.314 111.584C126.973 113.035 126.759 114.485 126.674 115.936C126.503 118.069 126.589 119.264 126.93 119.52C127.271 119.691 128.551 119.221 130.77 118.112C131.367 117.771 131.922 117.429 132.434 117.088C133.031 116.747 133.629 116.32 134.226 115.808C134.823 115.296 135.506 114.699 136.274 114.016C137.042 113.248 137.981 112.309 139.09 111.2C140.882 109.323 142.546 107.573 144.082 105.952C145.618 104.331 147.282 102.411 149.074 100.192C150.951 97.888 153.17 95.1147 155.73 91.872C158.29 88.544 161.533 84.2773 165.458 79.072C167.506 76.3413 168.829 74.6347 169.426 73.952C170.109 73.184 170.45 73.0133 170.45 73.44C170.45 73.7813 170.621 73.8667 170.962 73.696C171.559 73.2693 171.431 73.7813 170.578 75.232C169.81 76.6827 168.018 79.5413 165.202 83.808C163.239 86.7947 161.149 89.9093 158.93 93.152C156.711 96.3093 154.535 99.3387 152.402 102.24C150.269 105.141 148.263 107.787 146.386 110.176C144.509 112.565 142.93 114.485 141.65 115.936C138.066 120.032 134.994 122.72 132.434 124C129.959 125.365 127.741 125.451 125.778 124.256C125.351 124 124.839 123.787 124.242 123.616C123.73 123.36 123.261 123.147 122.834 122.976C122.407 122.805 121.81 122.507 121.042 122.08C120.274 121.568 119.549 121.056 118.866 120.544C115.879 118.24 114.045 114.955 113.362 110.688C112.594 106.421 112.935 101.6 114.386 96.224C114.983 94.0907 115.965 91.4027 117.33 88.16C118.61 84.9173 120.146 81.4187 121.938 77.664C123.73 73.824 125.65 69.8987 127.698 65.888C129.831 61.8773 132.007 57.9947 134.226 54.24C134.994 52.96 135.677 51.808 136.274 50.784C136.957 49.6747 137.511 48.6933 137.938 47.84C138.535 46.9013 139.047 46.0053 139.474 45.152C139.303 45.152 139.133 45.1947 138.962 45.28C138.535 45.28 138.066 45.408 137.554 45.664C136.274 46.0907 135.293 46.304 134.61 46.304C134.013 46.304 133.543 46.0907 133.202 45.664C132.861 45.2373 132.861 44.7253 133.202 44.128C133.458 43.5307 133.543 43.2747 133.458 43.36C133.202 43.616 132.818 43.4453 132.306 42.848C131.794 42.1653 131.495 41.5253 131.41 40.928C131.325 39.7333 131.837 38.88 132.946 38.368C134.055 37.7707 136.573 37.0453 140.498 36.192C142.205 35.8507 143.485 35.5947 144.338 35.424C145.191 35.168 145.917 34.8693 146.514 34.528C147.111 34.1013 147.666 33.504 148.178 32.736C148.775 31.968 149.586 30.8587 150.61 29.408C151.378 28.2133 152.231 27.104 153.17 26.08C154.109 24.9707 155.005 23.9893 155.858 23.136C156.711 22.1973 157.479 21.472 158.162 20.96C158.93 20.3627 159.527 20.0213 159.954 19.936C161.661 19.424 162.599 20.1493 162.77 22.112C162.77 22.7947 162.77 23.1787 162.77 23.264C162.855 23.3493 163.111 23.2213 163.538 22.88C163.879 22.5387 164.05 22.368 164.05 22.368C164.135 22.368 164.178 22.5813 164.178 23.008C164.178 23.4347 164.349 23.5627 164.69 23.392C164.946 23.2213 165.287 23.3493 165.714 23.776C166.141 24.2027 166.354 24.6293 166.354 25.056C166.354 25.4827 166.482 25.6533 166.738 25.568C167.165 25.312 167.378 25.568 167.378 26.336C167.378 27.0187 167.165 27.9573 166.738 29.152C166.482 29.8347 166.269 30.4747 166.098 31.072C166.013 31.584 166.013 31.8827 166.098 31.968C166.183 31.968 167.122 31.968 168.914 31.968C170.791 31.8827 173.01 31.7547 175.57 31.584C183.165 31.1573 189.309 30.944 194.002 30.944C198.695 30.944 201.383 31.1573 202.066 31.584ZM117.97 110.688C118.141 109.92 118.141 109.067 117.97 108.128C117.885 107.701 117.842 108.085 117.842 109.28C117.842 110.645 117.885 111.115 117.97 110.688ZM120.658 103.264C120.743 102.837 120.829 102.453 120.914 102.112C120.999 101.685 121.042 101.387 121.042 101.216C121.042 100.96 120.957 101.003 120.786 101.344C120.701 101.6 120.573 102.027 120.402 102.624C120.231 103.221 120.061 103.904 119.89 104.672C119.719 105.44 119.549 106.208 119.378 106.976C119.207 107.744 119.122 108.597 119.122 109.536C119.037 110.389 119.079 111.2 119.25 111.968C119.421 113.163 119.506 113.675 119.506 113.504C119.591 113.248 119.719 111.925 119.89 109.536C119.975 108.171 120.061 106.891 120.146 105.696C120.317 104.501 120.487 103.691 120.658 103.264ZM124.626 96.736C124.797 96.3947 124.839 96.224 124.754 96.224C124.754 96.224 124.669 96.352 124.498 96.608C124.242 96.9493 123.943 97.7173 123.602 98.912C123.261 100.021 122.919 101.259 122.578 102.624C122.237 103.904 121.938 105.227 121.682 106.592C121.426 107.957 121.298 109.024 121.298 109.792L121.042 113.12L121.554 110.432C121.725 109.664 121.938 108.555 122.194 107.104C122.45 105.568 122.749 104.075 123.09 102.624C123.517 101.173 123.858 99.8933 124.114 98.784C124.37 97.6747 124.541 96.992 124.626 96.736ZM160.466 87.52C160.039 87.6907 159.954 87.904 160.21 88.16C160.381 88.5867 160.594 88.672 160.85 88.416C161.106 88.16 161.191 87.904 161.106 87.648C160.85 87.392 160.637 87.3493 160.466 87.52ZM157.01 93.536C156.754 93.8773 156.754 94.0053 157.01 93.92C157.437 93.4933 157.735 93.1093 157.906 92.768C158.162 92.3413 158.119 92.128 157.778 92.128C157.351 92.128 157.223 92.2133 157.394 92.384C157.479 92.64 157.351 93.024 157.01 93.536ZM153.554 96.864C153.383 97.2053 153.511 97.3333 153.938 97.248C154.365 97.1627 154.749 96.9067 155.09 96.48C155.346 96.224 155.303 96.224 154.962 96.48C154.535 96.8213 154.237 96.9067 154.066 96.736C153.981 96.5653 153.81 96.608 153.554 96.864ZM152.402 99.808C151.719 100.405 151.506 100.704 151.762 100.704C152.018 100.704 152.274 100.491 152.53 100.064C152.786 99.6373 152.914 99.424 152.914 99.424C152.914 99.424 152.743 99.552 152.402 99.808ZM150.738 101.984C150.653 102.069 150.567 102.155 150.482 102.24C150.397 102.24 150.311 102.283 150.226 102.368C150.141 102.453 150.055 102.539 149.97 102.624C149.97 103.051 150.269 102.88 150.866 102.112C151.122 101.771 151.25 101.6 151.25 101.6C151.25 101.6 151.079 101.728 150.738 101.984ZM143.954 52.576C143.271 53.856 143.186 54.112 143.698 53.344C144.295 52.4907 145.405 50.7413 147.026 48.096C147.965 46.6453 148.647 45.536 149.074 44.768C149.586 43.9147 149.927 43.3173 150.098 42.976C150.269 42.6347 150.354 42.464 150.354 42.464C150.354 42.464 150.269 42.5493 150.098 42.72C149.927 42.8053 149.543 43.3173 148.946 44.256C148.434 45.1093 147.837 46.0907 147.154 47.2C146.471 48.224 145.831 49.2907 145.234 50.4C144.637 51.424 144.21 52.1493 143.954 52.576ZM142.674 54.88C142.503 55.136 142.29 55.4773 142.034 55.904C141.778 56.2453 141.522 56.5867 141.266 56.928C141.095 57.2693 140.967 57.568 140.882 57.824C140.797 57.9947 140.839 57.9947 141.01 57.824C141.181 57.6533 141.394 57.3547 141.65 56.928C141.906 56.5013 142.162 56.0747 142.418 55.648C142.674 55.2213 142.802 54.9227 142.802 54.752C142.887 54.5813 142.845 54.624 142.674 54.88ZM134.482 74.464C134.823 74.1227 134.909 73.8667 134.738 73.696C134.653 73.6107 134.482 73.7813 134.226 74.208C134.141 74.6347 134.226 74.72 134.482 74.464ZM136.53 70.624C136.957 69.9413 137.255 69.344 137.426 68.832C137.597 68.32 137.639 68.064 137.554 68.064C137.383 68.32 137.213 68.576 137.042 68.832C136.871 69.0027 136.701 69.2587 136.53 69.6C136.445 69.856 136.317 70.1973 136.146 70.624C135.719 71.3067 135.421 71.904 135.25 72.416C135.079 72.8427 135.037 73.056 135.122 73.056C135.207 73.056 135.378 72.8427 135.634 72.416C135.89 71.904 136.189 71.3067 136.53 70.624ZM138.45 67.04C138.621 66.528 138.535 66.3573 138.194 66.528C137.938 66.784 137.81 67.04 137.81 67.296C137.81 67.808 138.023 67.7227 138.45 67.04ZM153.17 42.208C153.255 41.7813 153.255 41.568 153.17 41.568C153.17 41.568 153.042 41.7813 152.786 42.208C151.506 44.0853 149.458 47.4133 146.642 52.192C145.789 53.6427 144.85 55.2213 143.826 56.928C142.887 58.5493 142.119 59.8293 141.522 60.768C140.327 62.7307 139.517 64.096 139.09 64.864C138.749 65.632 138.663 66.016 138.834 66.016C138.919 66.016 139.261 65.504 139.858 64.48C140.455 63.456 141.181 62.2187 142.034 60.768C142.887 59.3173 143.954 57.4827 145.234 55.264C146.599 53.0453 147.837 51.0827 148.946 49.376C150.055 47.584 150.994 46.0053 151.762 44.64C152.615 43.1893 153.085 42.3787 153.17 42.208ZM156.114 33.248C156.285 33.1627 156.626 32.7787 157.138 32.096C157.65 31.328 158.247 30.4747 158.93 29.536C159.613 28.5973 160.167 27.7867 160.594 27.104C161.021 26.336 161.191 25.9093 161.106 25.824C161.021 25.7387 160.765 25.9947 160.338 26.592C159.911 27.1893 159.357 27.9573 158.674 28.896C157.223 30.944 156.37 32.224 156.114 32.736C155.858 33.1627 155.858 33.3333 156.114 33.248ZM160.978 30.048C162.002 28.4267 162.642 27.3173 162.898 26.72C163.239 26.0373 163.239 25.696 162.898 25.696C162.642 25.696 162.514 25.824 162.514 26.08C162.514 26.1653 162.343 26.5493 162.002 27.232C161.661 27.8293 161.234 28.512 160.722 29.28C160.125 30.1333 159.655 30.8587 159.314 31.456C158.973 32.0533 158.802 32.3947 158.802 32.48C158.802 32.9067 158.93 32.9493 159.186 32.608C159.527 32.1813 160.125 31.328 160.978 30.048ZM163.922 31.84C164.434 31.1573 164.69 30.7307 164.69 30.56C164.69 30.048 164.391 30.3893 163.794 31.584C163.623 32.096 163.538 32.3947 163.538 32.48C163.538 32.48 163.666 32.2667 163.922 31.84ZM165.074 29.536C165.33 29.1093 165.458 28.7253 165.458 28.384C165.458 28.128 165.33 28.2133 165.074 28.64C164.818 28.9813 164.69 29.3227 164.69 29.664C164.69 29.8347 164.818 29.792 165.074 29.536ZM203.067 57.184C203.75 57.6107 204.56 58.3787 205.499 59.488C206.523 60.512 207.163 61.408 207.419 62.176C207.846 63.1147 208.102 64.3947 208.187 66.016C208.272 67.6373 208.23 69.216 208.059 70.752C207.376 76.5547 205.584 82.5707 202.683 88.8C199.782 94.944 196.07 100.576 191.547 105.696C185.147 113.12 179.515 116.832 174.651 116.832C173.456 116.832 172.176 116.533 170.811 115.936C169.531 115.339 168.55 114.528 167.867 113.504C167.526 113.077 167.099 112.651 166.587 112.224C166.075 111.797 165.606 111.456 165.179 111.2C164.24 110.688 163.174 109.664 161.979 108.128C160.784 106.507 159.846 104.885 159.163 103.264C158.48 101.557 158.096 99.5947 158.011 97.376C157.84 95.1573 157.968 92.8533 158.395 90.464C158.736 88.0747 159.334 85.6853 160.187 83.296C161.04 80.8213 162.107 78.5173 163.387 76.384C163.984 75.4453 164.752 74.2933 165.691 72.928C166.63 71.5627 167.654 70.2827 168.763 69.088C169.958 67.808 171.195 66.7413 172.475 65.888C173.755 64.9493 175.078 64.48 176.443 64.48C177.467 64.48 178.534 65.0347 179.643 66.144C180.07 66.5707 180.454 66.9547 180.795 67.296C181.222 67.6373 181.52 67.808 181.691 67.808C182.032 67.808 182.203 68.0213 182.203 68.448C182.203 68.7893 182.331 68.9173 182.587 68.832C183.099 68.4907 183.184 68.8747 182.843 69.984C182.502 71.0933 181.862 72.416 180.923 73.952C179.131 76.8533 177.638 79.4987 176.443 81.888C175.248 84.192 174.224 86.368 173.371 88.416C172.518 90.464 171.878 92.4267 171.451 94.304C171.024 96.1813 170.683 98.144 170.427 100.192C170.171 102.411 170.086 104.16 170.171 105.44C170.342 106.635 170.683 107.232 171.195 107.232C171.792 107.232 172.816 106.848 174.267 106.08C175.803 105.227 177.296 104.288 178.747 103.264C179.942 102.325 181.222 101.088 182.587 99.552C183.952 98.016 185.318 96.352 186.683 94.56C188.048 92.6827 189.328 90.7627 190.523 88.8C191.718 86.752 192.699 84.832 193.467 83.04C193.979 81.9307 194.448 80.6933 194.875 79.328C195.387 77.8773 195.814 76.4267 196.155 74.976C196.582 73.5253 196.923 72.0747 197.179 70.624C197.52 69.1733 197.734 67.8933 197.819 66.784C198.075 65.0773 197.99 64.224 197.563 64.224C197.222 64.224 196.71 64.3947 196.027 64.736C195.43 64.992 194.534 65.4187 193.339 66.016C192.486 66.4427 191.718 66.784 191.035 67.04C190.352 67.296 189.926 67.424 189.755 67.424C189.328 67.424 188.816 67.7227 188.219 68.32C187.536 68.9173 186.939 69.0453 186.427 68.704C185.83 68.3627 185.531 67.9787 185.531 67.552C185.531 67.2107 185.19 66.8693 184.507 66.528C183.568 66.1867 182.928 65.632 182.587 64.864C182.331 64.096 182.203 62.9013 182.203 61.28C182.203 59.9147 182.246 58.976 182.331 58.464C182.502 57.8667 182.928 57.0987 183.611 56.16C184.55 54.7093 185.83 53.5573 187.451 52.704C189.158 51.8507 190.992 51.424 192.955 51.424C196.454 51.424 198.971 52.576 200.507 54.88C201.275 55.7333 202.128 56.5013 203.067 57.184ZM185.275 64.48C185.446 64.48 185.744 64.0107 186.171 63.072L186.811 61.664L185.915 62.816C185.062 63.9253 184.848 64.48 185.275 64.48ZM186.811 64.48C187.152 63.8827 187.195 63.584 186.939 63.584C186.854 63.6693 186.768 63.7547 186.683 63.84C186.598 63.9253 186.47 64.1387 186.299 64.48C186.214 64.5653 186.171 64.6507 186.171 64.736C186.171 64.8213 186.128 64.9067 186.043 64.992C186.043 65.0773 186.043 65.1627 186.043 65.248C186.214 65.248 186.47 64.992 186.811 64.48ZM163.515 88.032C163.43 88.4587 163.472 88.4587 163.643 88.032C163.899 87.52 164.24 86.752 164.667 85.728C165.094 84.7893 165.52 83.808 165.947 82.784C166.459 81.6747 166.8 80.9067 166.971 80.48C167.568 79.2853 167.824 78.688 167.739 78.688C167.568 78.688 167.27 79.072 166.843 79.84C166.416 80.608 165.947 81.504 165.435 82.528C165.008 83.552 164.582 84.6187 164.155 85.728C163.814 86.752 163.6 87.52 163.515 88.032ZM165.563 88.544C165.99 87.3493 166.459 86.0693 166.971 84.704C167.568 83.2533 168.08 82.0587 168.507 81.12C168.934 80.2667 169.36 79.456 169.787 78.688C170.299 77.8347 170.64 77.28 170.811 77.024C170.982 76.6827 171.238 76.256 171.579 75.744C171.92 75.232 172.219 74.7627 172.475 74.336L173.499 72.672L172.219 74.08C171.366 75.0187 170.512 76.2133 169.659 77.664C168.806 79.1147 167.995 80.6507 167.227 82.272C166.544 83.8933 165.904 85.472 165.307 87.008C164.795 88.544 164.454 89.9093 164.283 91.104C164.198 91.5307 164.283 91.5307 164.539 91.104C164.795 90.592 165.136 89.7387 165.563 88.544ZM169.147 82.912C168.123 85.3867 167.654 86.624 167.739 86.624C167.91 86.624 168.422 85.7707 169.275 84.064C170.299 82.1013 171.323 80.224 172.347 78.432C173.456 76.5547 174.608 74.6773 175.803 72.8C176.742 71.52 177.211 70.8373 177.211 70.752C177.211 70.5813 176.827 70.9227 176.059 71.776C175.12 72.8 173.968 74.464 172.603 76.768C171.238 78.9867 170.086 81.0347 169.147 82.912ZM170.171 90.848C169.915 91.7867 169.915 92.0427 170.171 91.616C170.427 91.1893 170.854 90.2507 171.451 88.8C171.707 88.032 171.92 87.392 172.091 86.88C172.347 86.2827 172.432 85.984 172.347 85.984C172.176 85.984 171.835 86.624 171.323 87.904C170.811 89.0987 170.427 90.08 170.171 90.848ZM199.739 75.488C199.739 76.0853 199.824 76.2987 199.995 76.128C200.08 75.872 200.08 75.5733 199.995 75.232C199.91 75.0613 199.824 75.1467 199.739 75.488ZM199.739 76.896C199.739 76.896 199.568 77.28 199.227 78.048C198.886 78.816 198.544 79.6693 198.203 80.608C197.862 81.4613 197.52 82.3147 197.179 83.168C196.923 83.936 196.795 84.3627 196.795 84.448V84.576C197.051 84.576 197.606 83.3813 198.459 80.992C198.886 80.0533 199.184 79.2 199.355 78.432C199.611 77.5787 199.739 77.0667 199.739 76.896ZM190.523 100.192C190.864 99.8507 190.992 99.68 190.907 99.68C190.907 99.68 190.736 99.808 190.395 100.064C190.31 100.149 190.224 100.235 190.139 100.32C190.054 100.32 189.968 100.363 189.883 100.448C189.883 100.533 189.84 100.619 189.755 100.704C189.755 100.96 190.011 100.789 190.523 100.192ZM200.507 83.424C201.104 81.5467 201.36 80.608 201.275 80.608C201.104 80.608 200.72 81.3333 200.123 82.784C199.27 84.9173 198.246 87.0933 197.051 89.312C195.942 91.4453 194.832 93.3653 193.723 95.072C193.126 95.9253 192.571 96.736 192.059 97.504C191.632 98.1867 191.376 98.6133 191.291 98.784C191.12 99.1253 191.12 99.2107 191.291 99.04C191.462 98.784 191.718 98.4427 192.059 98.016C192.486 97.504 192.955 96.9067 193.467 96.224C193.979 95.5413 194.448 94.8587 194.875 94.176C195.984 92.5547 197.008 90.8053 197.947 88.928C198.971 87.0507 199.824 85.216 200.507 83.424ZM200.763 78.176C201.531 75.2747 201.872 73.824 201.787 73.824C201.702 73.824 201.104 75.36 199.995 78.432C199.056 81.248 198.075 83.808 197.051 86.112C196.112 88.3307 195.046 90.464 193.851 92.512C193.424 93.1947 193.168 93.664 193.083 93.92C192.998 94.176 193.126 94.1333 193.467 93.792C193.979 93.1947 194.576 92.2133 195.259 90.848C196.027 89.3973 196.795 87.8613 197.563 86.24C198.331 84.6187 199.014 83.0827 199.611 81.632C200.208 80.096 200.592 78.944 200.763 78.176ZM225.092 52.96C225.775 52.448 226.543 52.3627 227.396 52.704C228.249 53.0453 228.591 53.6 228.42 54.368C228.164 55.136 228.249 55.392 228.676 55.136C229.103 55.0507 229.188 55.3493 228.932 56.032C228.591 56.8 228.42 57.2693 228.42 57.44C228.505 57.5253 228.761 57.2693 229.188 56.672C229.529 56.2453 229.743 56.032 229.828 56.032C229.999 55.9467 230.169 56.032 230.34 56.288C230.681 56.7147 231.151 57.0987 231.748 57.44C232.345 57.696 232.644 58.0373 232.644 58.464C232.644 58.8907 232.772 59.104 233.028 59.104C233.455 59.104 233.583 59.7013 233.412 60.896C233.327 62.0907 232.943 63.456 232.26 64.992C231.919 65.76 231.62 66.4427 231.364 67.04C231.193 67.6373 231.151 67.936 231.236 67.936C231.407 67.7653 231.577 67.6373 231.748 67.552L232.9 66.4C236.74 62.9867 240.324 61.4507 243.652 61.792C244.676 61.8773 246.084 62.3467 247.876 63.2C249.668 64.0533 251.375 65.0347 252.996 66.144C254.703 67.168 256.153 68.192 257.348 69.216C258.628 70.24 259.183 70.9653 259.012 71.392C258.841 71.8187 258.159 72.16 256.964 72.416C256.025 72.7573 255.343 72.8853 254.916 72.8C254.489 72.7147 253.636 72.416 252.356 71.904C250.479 71.2213 249.071 70.7947 248.132 70.624C247.279 70.4533 246.383 70.5387 245.444 70.88C244.164 71.2213 242.799 71.904 241.348 72.928C239.897 73.952 238.148 75.5307 236.1 77.664C232.857 80.9067 229.657 84.6613 226.5 88.928C223.428 93.1093 220.399 97.7173 217.412 102.752C216.815 103.861 216.132 105.141 215.364 106.592C214.596 107.957 213.871 109.28 213.188 110.56C212.505 111.84 211.951 112.949 211.524 113.888C211.097 114.827 210.884 115.381 210.884 115.552C210.884 115.893 210.585 116.277 209.988 116.704C209.476 117.216 209.22 117.301 209.22 116.96C209.22 116.619 209.007 116.619 208.58 116.96C208.239 117.216 207.855 117.088 207.428 116.576C206.916 116.064 206.66 115.595 206.66 115.168C206.66 114.4 205.892 114.016 204.356 114.016C203.673 114.016 202.991 113.504 202.308 112.48C201.625 111.371 201.284 110.219 201.284 109.024C201.284 105.781 202.223 101.387 204.1 95.84C205.892 90.208 208.793 82.912 212.804 73.952C213.657 72.16 214.681 70.112 215.876 67.808C217.156 65.504 218.393 63.328 219.588 61.28C220.783 59.1467 221.892 57.312 222.916 55.776C223.94 54.24 224.665 53.3013 225.092 52.96ZM231.876 75.616C230.852 76.64 230.468 77.152 230.724 77.152L232.132 75.744L233.284 74.464L231.876 75.616ZM207.684 100.32C208.537 97.76 209.604 94.816 210.884 91.488C212.249 88.16 213.7 84.7467 215.236 81.248C216.772 77.664 218.393 74.1653 220.1 70.752C221.807 67.3387 223.428 64.2667 224.964 61.536C225.476 60.5973 225.903 59.7867 226.244 59.104C226.585 58.4213 226.713 58.0373 226.628 57.952C226.543 57.8667 226.201 58.336 225.604 59.36C225.007 60.2987 224.281 61.6213 223.428 63.328C222.575 64.9493 221.593 66.8267 220.484 68.96C219.46 71.008 218.436 73.1413 217.412 75.36C216.388 77.4933 215.407 79.584 214.468 81.632C213.529 83.5947 212.761 85.3013 212.164 86.752C211.311 88.8 210.5 90.848 209.732 92.896C208.964 94.944 208.324 96.8213 207.812 98.528C207.215 100.149 206.788 101.472 206.532 102.496C206.191 103.435 206.105 103.861 206.276 103.776C206.447 103.691 206.66 103.349 206.916 102.752C207.172 102.069 207.428 101.259 207.684 100.32ZM210.756 95.712C211.012 95.1147 211.524 93.8773 212.292 92C213.145 90.1227 213.999 88.1173 214.852 85.984C215.279 84.8747 215.791 83.5947 216.388 82.144C217.071 80.6933 217.753 79.2 218.436 77.664C219.204 76.128 219.972 74.592 220.74 73.056C221.508 71.52 222.233 70.112 222.916 68.832C224.196 66.272 225.263 64.096 226.116 62.304C226.969 60.512 227.311 59.616 227.14 59.616C227.055 59.7013 226.585 60.512 225.732 62.048C224.879 63.4987 223.897 65.3333 222.788 67.552C221.679 69.6853 220.527 71.9467 219.332 74.336C218.137 76.7253 217.156 78.816 216.388 80.608C215.449 82.7413 214.511 84.8747 213.572 87.008C212.719 89.056 211.951 90.9333 211.268 92.64C210.671 94.2613 210.201 95.584 209.86 96.608C209.519 97.5467 209.433 97.9733 209.604 97.888C209.689 97.888 209.86 97.6747 210.116 97.248C210.287 96.8213 210.5 96.3093 210.756 95.712ZM223.044 87.008L222.02 88.288C221.337 88.9707 220.996 89.5253 220.996 89.952C220.996 90.1227 221.039 90.1653 221.124 90.08C221.209 89.9093 221.551 89.3547 222.148 88.416L223.044 87.008ZM226.372 82.784C227.652 81.0773 227.908 80.608 227.14 81.376C226.799 81.8027 226.372 82.3573 225.86 83.04C225.348 83.7227 224.836 84.3627 224.324 84.96C223.897 85.5573 223.599 86.0267 223.428 86.368C223.257 86.624 223.3 86.624 223.556 86.368C223.727 86.1973 224.068 85.7707 224.58 85.088C225.092 84.4053 225.689 83.6373 226.372 82.784ZM229.828 78.56C230.084 78.1333 230.212 77.92 230.212 77.92C230.212 77.92 229.999 78.048 229.572 78.304C229.145 78.7307 228.932 78.9867 228.932 79.072C228.932 79.328 229.231 79.1573 229.828 78.56ZM228.676 68.064C228.249 69.0027 227.823 69.8987 227.396 70.752C227.055 71.52 226.841 72.032 226.756 72.288C226.5 72.7147 226.457 72.928 226.628 72.928C226.713 72.928 226.927 72.544 227.268 71.776C227.695 71.008 228.207 70.0693 228.804 68.96C229.316 67.8507 229.743 66.912 230.084 66.144C230.425 65.2907 230.553 64.8213 230.468 64.736C230.383 64.6507 230.169 64.9493 229.828 65.632C229.487 66.3147 229.103 67.1253 228.676 68.064ZM223.428 71.904C224.879 68.7467 226.073 66.1867 227.012 64.224C228.036 62.176 228.463 61.2373 228.292 61.408C228.036 61.7493 227.481 62.7307 226.628 64.352C225.775 65.9733 224.793 67.8933 223.684 70.112C222.66 72.2453 221.593 74.4213 220.484 76.64C219.375 78.8587 218.479 80.736 217.796 82.272C216.601 85.0027 215.833 86.8373 215.492 87.776C215.236 88.6293 215.663 87.9467 216.772 85.728C216.943 85.3867 217.241 84.7893 217.668 83.936C218.095 82.9973 218.607 81.9307 219.204 80.736C219.801 79.456 220.441 78.048 221.124 76.512C221.892 74.976 222.66 73.44 223.428 71.904ZM304.306 74.848C304.647 75.1893 304.69 75.5733 304.434 76C304.263 76.4267 303.581 77.5787 302.386 79.456C299.741 83.4667 296.925 87.3493 293.938 91.104C291.037 94.8587 288.221 98.272 285.49 101.344C282.759 104.416 280.199 107.019 277.81 109.152C275.506 111.285 273.586 112.736 272.05 113.504C270.599 114.187 269.362 114.613 268.338 114.784C267.399 114.955 266.418 114.827 265.394 114.4C264.967 114.229 264.498 114.016 263.986 113.76C263.474 113.419 263.047 113.077 262.706 112.736C262.365 112.48 261.938 112.181 261.426 111.84C260.914 111.413 260.445 111.072 260.018 110.816C258.311 109.792 256.861 108.085 255.666 105.696C254.386 103.221 253.661 100.619 253.49 97.888C253.319 94.56 253.703 91.1893 254.642 87.776C255.495 84.3627 257.117 80.3093 259.506 75.616C263.175 68.192 266.546 63.072 269.618 60.256C272.69 57.3547 274.823 57.312 276.018 60.128C276.445 60.896 276.871 61.28 277.298 61.28C277.81 61.1093 277.981 61.28 277.81 61.792C277.725 62.3893 277.938 62.56 278.45 62.304C278.791 62.2187 278.919 62.2613 278.834 62.432C278.749 62.688 278.919 62.7733 279.346 62.688C279.943 62.6027 280.242 62.7733 280.242 63.2C280.242 63.6267 280.455 63.84 280.882 63.84C281.223 63.84 281.394 64.0533 281.394 64.48C281.479 64.9067 281.309 65.632 280.882 66.656C280.541 67.68 279.943 69.088 279.09 70.88C278.322 72.672 277.255 74.9333 275.89 77.664C273.842 81.76 272.135 85.344 270.77 88.416C269.405 91.4027 268.295 94.048 267.442 96.352C266.674 98.5707 266.077 100.533 265.65 102.24C265.309 103.861 265.138 105.355 265.138 106.72V108.768L266.802 108.512C267.826 108.341 269.063 107.915 270.514 107.232C271.965 106.549 273.543 105.653 275.25 104.544C276.957 103.349 279.175 101.301 281.906 98.4C284.637 95.4987 288.178 91.5307 292.53 86.496C293.639 85.1307 294.919 83.6373 296.37 82.016C297.906 80.3093 299.143 78.944 300.082 77.92C301.789 76.128 302.813 75.104 303.154 74.848C303.581 74.5067 303.965 74.5067 304.306 74.848ZM266.802 92.768C267.058 92.3413 267.186 92 267.186 91.744C267.186 91.5733 267.058 91.616 266.802 91.872C266.546 92.2133 266.418 92.5973 266.418 93.024C266.418 93.1947 266.546 93.1093 266.802 92.768ZM268.594 88.672C268.935 87.904 269.191 87.264 269.362 86.752C269.618 86.1547 269.703 85.8133 269.618 85.728C269.618 85.728 269.49 85.984 269.234 86.496C268.978 86.9227 268.679 87.4773 268.338 88.16C268.082 88.7573 267.826 89.3547 267.57 89.952C267.399 90.5493 267.314 90.8907 267.314 90.976C267.314 91.1467 267.399 90.976 267.57 90.464C267.826 89.952 268.167 89.3547 268.594 88.672ZM270.77 83.68C270.855 83.5093 270.855 83.3813 270.77 83.296C270.77 83.2107 270.727 83.2107 270.642 83.296C270.301 83.4667 270.13 83.68 270.13 83.936C270.13 84.2773 270.173 84.448 270.258 84.448C270.429 84.3627 270.599 84.1067 270.77 83.68ZM273.33 72.416C273.501 71.9893 273.415 71.8613 273.074 72.032C272.818 72.1173 272.69 72.3307 272.69 72.672C272.69 73.3547 272.903 73.2693 273.33 72.416ZM266.802 73.056C266.205 74.1653 265.991 74.72 266.162 74.72C266.247 74.72 266.375 74.5493 266.546 74.208C266.802 73.8667 267.015 73.4827 267.186 73.056C267.783 71.9467 267.997 71.392 267.826 71.392C267.741 71.5627 267.655 71.7333 267.57 71.904C267.314 72.16 267.058 72.544 266.802 73.056ZM258.098 93.792C258.098 94.048 258.269 93.792 258.61 93.024C258.866 92.256 259.207 91.1893 259.634 89.824C260.061 88.4587 260.615 87.008 261.298 85.472C261.981 83.8507 262.535 82.5707 262.962 81.632C263.901 79.6693 264.626 78.0907 265.138 76.896C265.735 75.7013 265.949 75.104 265.778 75.104C265.693 75.104 265.351 75.6587 264.754 76.768C264.242 77.8773 263.602 79.2 262.834 80.736C261.469 83.552 260.317 86.24 259.378 88.8C258.439 91.2747 258.013 92.9387 258.098 93.792ZM258.866 98.272C258.866 98.528 258.994 98.3147 259.25 97.632C259.506 96.9493 259.762 96.0107 260.018 94.816C260.359 93.6213 260.743 92.2987 261.17 90.848C261.682 89.3973 262.109 88.2027 262.45 87.264C262.962 85.984 263.602 84.448 264.37 82.656C265.223 80.864 266.162 79.0293 267.186 77.152C268.21 75.1893 269.277 73.184 270.386 71.136C271.495 69.088 272.605 67.168 273.714 65.376L274.482 64.096L273.586 65.12C272.903 65.888 272.007 67.168 270.898 68.96C269.874 70.6667 268.765 72.6293 267.57 74.848C266.375 76.9813 265.223 79.1573 264.114 81.376C263.09 83.5947 262.237 85.5573 261.554 87.264C261.213 88.1173 260.871 89.0987 260.53 90.208C260.189 91.3173 259.89 92.384 259.634 93.408C259.378 94.432 259.207 95.4133 259.122 96.352C258.951 97.2053 258.866 97.8453 258.866 98.272ZM262.194 94.176C262.194 93.5787 262.663 92.1707 263.602 89.952C264.541 87.7333 265.693 85.216 267.058 82.4C268.423 79.4987 269.917 76.512 271.538 73.44C273.159 70.368 274.653 67.68 276.018 65.376C276.871 63.9253 277.085 63.456 276.658 63.968C276.231 64.3947 275.463 65.4187 274.354 67.04C273.671 68.1493 272.775 69.6853 271.666 71.648C270.642 73.6107 269.575 75.7013 268.466 77.92C267.357 80.0533 266.333 82.144 265.394 84.192C264.455 86.1547 263.773 87.776 263.346 89.056C262.578 91.1893 262.023 92.896 261.682 94.176C261.341 95.456 261.383 95.84 261.81 95.328C262.066 94.9013 262.194 94.5173 262.194 94.176ZM263.858 101.088C263.943 101.259 264.071 101.045 264.242 100.448C264.498 99.7653 264.797 98.8693 265.138 97.76C265.479 96.6507 265.735 95.712 265.906 94.944C266.162 94.176 266.247 93.7493 266.162 93.664C266.162 93.5787 266.034 93.8773 265.778 94.56C265.522 95.2427 265.223 96.0533 264.882 96.992C264.626 97.8453 264.37 98.6987 264.114 99.552C263.943 100.32 263.858 100.832 263.858 101.088ZM288.69 94.176C288.946 93.7493 289.074 93.536 289.074 93.536C289.074 93.536 288.903 93.664 288.562 93.92C288.05 94.2613 287.794 94.5173 287.794 94.688C287.794 95.1147 288.093 94.944 288.69 94.176ZM290.482 93.152C290.994 92.64 291.165 92.384 290.994 92.384L290.738 92.64C290.567 92.7253 290.354 92.896 290.098 93.152C289.671 93.7493 289.501 94.048 289.586 94.048C289.757 94.048 290.055 93.7493 290.482 93.152ZM290.738 91.616C290.994 91.2747 291.122 91.104 291.122 91.104C291.122 91.104 290.951 91.232 290.61 91.488C290.525 91.5733 290.439 91.6587 290.354 91.744C290.269 91.744 290.183 91.7867 290.098 91.872C290.013 91.9573 289.927 92.0427 289.842 92.128C289.842 92.5547 290.141 92.384 290.738 91.616ZM292.402 89.568C292.658 89.1413 292.786 88.928 292.786 88.928C292.786 88.928 292.615 89.056 292.274 89.312C291.762 89.824 291.506 90.08 291.506 90.08C291.506 90.5067 291.805 90.336 292.402 89.568ZM294.066 88.672C294.322 88.3307 294.45 88.16 294.45 88.16C294.45 88.16 294.279 88.288 293.938 88.544C293.426 88.8853 293.17 89.1413 293.17 89.312C293.17 89.7387 293.469 89.5253 294.066 88.672ZM295.986 85.984C296.327 85.984 296.413 85.9413 296.242 85.856C295.815 85.6853 295.73 85.472 295.986 85.216C296.327 84.704 296.285 84.6187 295.858 84.96C295.517 85.216 295.047 85.7707 294.45 86.624C294.023 87.0507 293.725 87.4347 293.554 87.776C293.469 88.032 293.511 88.0747 293.682 87.904C294.109 87.4773 294.407 87.3493 294.578 87.52C294.749 87.6907 295.005 87.52 295.346 87.008C295.858 86.496 295.858 86.368 295.346 86.624C295.005 86.88 294.877 86.8373 294.962 86.496C295.133 85.984 295.474 85.8133 295.986 85.984ZM298.418 83.168C298.845 82.656 298.845 82.4 298.418 82.4C297.991 82.4 297.479 82.784 296.882 83.552C296.626 83.808 296.455 84.0213 296.37 84.192C296.37 84.2773 296.455 84.2347 296.626 84.064C297.053 83.7227 297.351 83.6373 297.522 83.808C297.693 83.9787 297.991 83.7653 298.418 83.168ZM299.698 81.376C299.869 81.2053 299.826 81.0347 299.57 80.864C299.229 80.6933 298.93 80.8213 298.674 81.248C298.333 81.5893 298.375 81.76 298.802 81.76C299.314 81.5893 299.613 81.4613 299.698 81.376ZM300.978 79.2C301.063 78.7733 301.063 78.56 300.978 78.56C300.893 78.56 300.637 78.816 300.21 79.328C299.783 79.7547 299.57 80.0107 299.57 80.096C299.57 80.096 299.783 80.0533 300.21 79.968C300.722 79.968 300.978 79.712 300.978 79.2ZM303.026 77.152C303.197 77.0667 303.197 77.024 303.026 77.024C302.941 76.9387 302.813 76.9387 302.642 77.024C302.301 77.024 301.917 77.2373 301.49 77.664C301.234 78.0053 301.277 78.048 301.618 77.792C302.13 77.6213 302.429 77.536 302.514 77.536C302.599 77.4507 302.685 77.408 302.77 77.408C302.855 77.3227 302.941 77.2373 303.026 77.152ZM304.178 75.744C304.178 75.5733 304.007 75.4453 303.666 75.36C303.41 75.2747 303.239 75.3173 303.154 75.488C303.069 75.744 303.197 75.872 303.538 75.872C303.965 75.872 304.178 75.8293 304.178 75.744ZM279.218 49.632C278.706 49.4613 278.109 48.9067 277.426 47.968C276.743 47.0293 276.402 46.304 276.402 45.792C276.402 45.6213 276.487 45.3653 276.658 45.024C276.829 44.6827 276.999 44.2987 277.17 43.872C277.426 43.2747 278.066 42.592 279.09 41.824C280.199 41.056 281.394 40.288 282.674 39.52C284.039 38.752 285.447 38.112 286.898 37.6C288.349 37.0027 289.629 36.6187 290.738 36.448C291.591 36.2773 292.189 36.2773 292.53 36.448C292.871 36.5333 293.426 36.9173 294.194 37.6C295.218 38.4533 295.73 39.136 295.73 39.648C295.73 39.8187 295.517 40.1173 295.09 40.544C294.663 40.8853 294.109 41.2693 293.426 41.696C291.975 42.6347 290.525 43.744 289.074 45.024C287.709 46.304 286.642 47.5413 285.874 48.736C285.191 49.76 284.551 50.656 283.954 51.424C283.357 52.192 282.973 52.5333 282.802 52.448C282.631 52.448 282.29 52.3627 281.778 52.192C281.607 52.192 281.394 52.064 281.138 51.808C280.967 51.552 280.797 51.296 280.626 51.04C280.37 50.3573 279.901 49.888 279.218 49.632ZM283.442 45.408C282.93 45.8347 282.375 46.432 281.778 47.2C281.266 47.968 281.138 48.352 281.394 48.352C281.479 48.352 281.65 48.1813 281.906 47.84C282.247 47.4133 282.589 46.9867 282.93 46.56C283.613 45.4507 283.783 45.0667 283.442 45.408ZM280.882 46.176C280.455 46.6027 280.242 46.9013 280.242 47.072C280.242 47.9253 280.541 47.7547 281.138 46.56C281.309 46.1333 281.394 45.92 281.394 45.92C281.394 45.8347 281.223 45.92 280.882 46.176ZM291.273 104.672C291.017 103.989 290.761 103.221 290.505 102.368C290.249 101.515 290.078 100.747 289.993 100.064C289.822 98.3573 290.036 96.352 290.633 94.048C291.23 91.6587 292.084 89.1413 293.193 86.496C294.302 83.7653 295.625 80.992 297.161 78.176C298.697 75.36 300.318 72.672 302.025 70.112C303.817 67.4667 305.652 65.0773 307.529 62.944C309.406 60.8107 311.241 59.104 313.033 57.824C314.91 56.4587 316.83 55.392 318.793 54.624C320.841 53.856 322.718 53.472 324.425 53.472C325.876 53.472 326.985 53.728 327.753 54.24C328.521 54.752 329.374 55.4773 330.313 56.416C330.996 57.0987 331.678 57.696 332.361 58.208C333.129 58.72 333.641 59.0187 333.897 59.104C334.494 59.2747 334.793 59.488 334.793 59.744C334.793 60.6827 335.476 60.128 336.841 58.08C337.865 56.4587 338.932 55.648 340.041 55.648C340.468 55.648 340.809 55.6907 341.065 55.776C341.918 56.032 342.046 56.8427 341.449 58.208C341.193 58.6347 341.065 58.8907 341.065 58.976C341.15 58.976 341.406 58.7627 341.833 58.336C342.26 57.9093 342.516 57.696 342.601 57.696C342.686 57.696 342.729 57.8667 342.729 58.208C342.729 58.6347 342.942 58.7627 343.369 58.592C343.796 58.4213 344.094 58.592 344.265 59.104C344.436 59.5307 344.606 59.6587 344.777 59.488C345.033 59.4027 345.673 59.7867 346.697 60.64C347.38 61.2373 347.764 61.7067 347.849 62.048C348.02 62.3893 348.105 63.0293 348.105 63.968C348.105 65.3333 347.721 67.3387 346.953 69.984C346.185 72.6293 344.862 76.2987 342.985 80.992C342.132 83.2107 341.278 85.472 340.425 87.776C339.572 90.08 338.974 91.8293 338.633 93.024C337.95 95.1573 337.396 97.1627 336.969 99.04C336.628 100.832 336.542 101.813 336.713 101.984C336.969 101.984 337.438 101.728 338.121 101.216C338.889 100.704 339.742 100.064 340.681 99.296C341.62 98.4427 342.644 97.504 343.753 96.48C344.862 95.456 345.929 94.432 346.953 93.408C348.062 92.2987 349.129 91.104 350.153 89.824C351.262 88.544 352.457 87.136 353.737 85.6C355.017 83.9787 356.425 82.144 357.961 80.096C359.497 78.048 361.246 75.6587 363.209 72.928C363.892 71.9893 364.489 71.1787 365.001 70.496C365.513 69.8133 365.854 69.472 366.025 69.472C366.11 69.5573 366.025 69.856 365.769 70.368C365.513 70.7947 365.172 71.3067 364.745 71.904C364.318 72.5013 363.934 73.0133 363.593 73.44C363.337 73.8667 363.209 74.1653 363.209 74.336C363.209 74.4213 363.38 74.2507 363.721 73.824C364.148 73.3973 364.574 72.8427 365.001 72.16C366.025 70.7093 366.622 69.984 366.793 69.984C366.964 69.984 366.793 70.496 366.281 71.52C365.854 72.544 365.129 73.9093 364.105 75.616C360.948 80.8213 358.089 85.3867 355.529 89.312C353.054 93.152 350.793 96.4373 348.745 99.168C346.782 101.813 345.033 103.947 343.497 105.568C342.046 107.189 340.681 108.427 339.401 109.28C338.889 109.707 337.95 109.92 336.585 109.92C335.646 109.92 334.75 109.792 333.897 109.536C333.129 109.195 332.66 108.768 332.489 108.256C332.318 107.829 331.636 107.317 330.441 106.72C328.734 105.867 327.284 104.373 326.089 102.24C324.98 100.107 324.254 97.5893 323.913 94.688L323.657 91.488L321.609 94.56C320.841 95.584 319.902 96.864 318.793 98.4C317.684 99.8507 316.532 101.344 315.337 102.88C314.228 104.331 313.161 105.696 312.137 106.976C311.113 108.171 310.302 109.109 309.705 109.792C306.804 112.693 304.628 114.144 303.177 114.144C302.153 114.144 300.958 113.547 299.593 112.352C298.996 111.84 298.398 111.413 297.801 111.072C297.289 110.645 296.905 110.432 296.649 110.432C296.052 110.432 295.198 109.835 294.089 108.64C292.894 107.36 291.956 106.037 291.273 104.672ZM360.393 78.688C360.137 78.688 360.052 78.816 360.137 79.072C360.308 79.4133 360.521 79.456 360.777 79.2C361.118 78.8587 361.332 78.3467 361.417 77.664C361.588 77.152 361.545 76.9387 361.289 77.024C361.204 77.1093 361.118 77.28 361.033 77.536C361.033 77.7067 360.99 77.8773 360.905 78.048C360.905 78.6453 360.734 78.8587 360.393 78.688ZM358.601 82.272C358.089 82.6133 357.833 82.8693 357.833 83.04C357.833 83.296 358.132 83.1253 358.729 82.528C358.985 82.1013 359.113 81.888 359.113 81.888C359.113 81.888 358.942 82.016 358.601 82.272ZM356.809 83.552C356.724 83.808 356.852 83.936 357.193 83.936C357.449 83.936 357.62 83.8933 357.705 83.808C357.705 83.808 357.748 83.808 357.833 83.808C357.833 83.6373 357.662 83.5093 357.321 83.424C357.065 83.3387 356.894 83.3813 356.809 83.552ZM352.713 89.312C352.372 89.7387 352.414 89.9093 352.841 89.824C353.268 89.7387 353.694 89.5253 354.121 89.184C354.548 88.7573 354.974 88.16 355.401 87.392C355.828 86.624 355.956 86.1547 355.785 85.984C355.444 85.8133 355.102 85.984 354.761 86.496C354.249 87.1787 354.249 87.264 354.761 86.752C355.273 86.496 355.444 86.5813 355.273 87.008C355.102 87.4347 354.846 87.648 354.505 87.648C354.249 87.648 353.993 87.776 353.737 88.032C353.652 88.1173 353.609 88.2027 353.609 88.288C353.694 88.288 353.822 88.2027 353.993 88.032C354.42 87.776 354.548 87.8613 354.377 88.288C354.206 88.7147 353.993 88.928 353.737 88.928C353.31 88.928 352.969 89.056 352.713 89.312ZM351.817 90.976C352.158 90.8053 352.329 90.848 352.329 91.104C352.329 91.1893 352.158 91.488 351.817 92C351.305 92.512 351.305 92.5973 351.817 92.256C352.244 92 352.542 91.6587 352.713 91.232C353.054 90.72 353.012 90.464 352.585 90.464C352.073 90.6347 351.774 90.8053 351.689 90.976C351.518 91.0613 351.433 91.1467 351.433 91.232C351.518 91.232 351.646 91.1467 351.817 90.976ZM350.025 92.896C349.513 93.408 349.342 93.664 349.513 93.664C349.598 93.664 349.897 93.408 350.409 92.896C351.006 92.2987 351.22 92 351.049 92C350.793 92 350.452 92.2987 350.025 92.896ZM348.105 95.328C347.593 95.584 347.337 95.84 347.337 96.096C347.337 96.5227 347.636 96.3093 348.233 95.456C348.489 95.1147 348.617 94.944 348.617 94.944C348.617 94.944 348.446 95.072 348.105 95.328ZM304.201 98.144L303.561 99.296C303.39 99.7227 303.22 100.235 303.049 100.832C302.964 101.429 302.878 101.984 302.793 102.496L302.537 104.416L303.049 102.624C303.22 102.197 303.348 101.685 303.433 101.088C303.604 100.491 303.774 99.9787 303.945 99.552L304.201 98.144ZM320.201 92.128C320.713 91.5307 320.628 91.488 319.945 92C319.86 92.0853 319.774 92.1707 319.689 92.256C319.604 92.256 319.518 92.2987 319.433 92.384C319.433 92.4693 319.39 92.5547 319.305 92.64C319.305 92.896 319.604 92.7253 320.201 92.128ZM321.353 90.464C321.609 90.1227 321.737 89.952 321.737 89.952C321.737 89.8667 321.566 89.9947 321.225 90.336C321.14 90.4213 321.054 90.5067 320.969 90.592C320.884 90.592 320.798 90.6347 320.713 90.72C320.628 90.8053 320.542 90.8907 320.457 90.976C320.457 91.4027 320.756 91.232 321.353 90.464ZM345.289 68.704C345.033 69.3013 344.478 70.6667 343.625 72.8C342.772 74.9333 341.876 77.2373 340.937 79.712C339.998 82.1013 339.102 84.3627 338.249 86.496C337.481 88.544 337.012 89.9093 336.841 90.592C336.244 92.7253 335.988 93.792 336.073 93.792C336.244 93.792 336.969 91.872 338.249 88.032C338.932 86.3253 339.7 84.32 340.553 82.016C341.406 79.6267 342.174 77.664 342.857 76.128C343.71 74.08 344.436 72.2453 345.033 70.624C345.63 68.9173 345.844 68.064 345.673 68.064L345.545 68.192C345.545 68.192 345.46 68.3627 345.289 68.704ZM342.089 66.912C342.004 66.912 341.705 67.3813 341.193 68.32C340.681 69.2587 340.084 70.496 339.401 72.032C338.804 73.4827 338.164 75.0613 337.481 76.768C336.798 78.4747 336.158 80.1387 335.561 81.76C334.964 83.296 334.452 84.6613 334.025 85.856C333.684 86.9653 333.513 87.648 333.513 87.904C333.598 87.904 333.726 87.6053 333.897 87.008C334.153 86.3253 334.708 84.9173 335.561 82.784C335.988 81.8453 336.5 80.608 337.097 79.072C337.78 77.536 338.377 76.1707 338.889 74.976C341.278 69.6 342.345 66.912 342.089 66.912ZM336.329 74.08C335.817 74.6773 335.22 75.7013 334.537 77.152C333.94 78.6027 333.342 80.224 332.745 82.016C332.233 83.7227 331.721 85.472 331.209 87.264C330.782 88.9707 330.484 90.464 330.313 91.744C330.228 92.512 330.27 92.7253 330.441 92.384C330.612 92.0427 330.91 91.0187 331.337 89.312C331.678 88.032 332.19 86.368 332.873 84.32C333.556 82.272 334.238 80.4373 334.921 78.816C336.286 75.488 336.841 73.824 336.585 73.824L336.329 74.08ZM332.489 79.84C332.66 79.584 332.702 79.456 332.617 79.456C332.617 79.456 332.446 79.584 332.105 79.84C331.934 79.9253 331.721 80.2667 331.465 80.864C331.209 81.376 330.953 82.016 330.697 82.784C330.441 83.4667 330.185 84.192 329.929 84.96C329.758 85.728 329.63 86.4533 329.545 87.136C329.46 87.648 329.502 87.648 329.673 87.136C329.929 86.624 330.27 85.7707 330.697 84.576C331.124 83.3813 331.465 82.3573 331.721 81.504C332.062 80.5653 332.318 80.0107 332.489 79.84ZM327.241 67.936C325.705 68.96 324.169 70.24 322.633 71.776C321.097 73.312 319.561 75.0613 318.025 77.024C316.489 78.9013 315.038 80.9493 313.673 83.168C312.308 85.3867 311.028 87.6907 309.833 90.08C309.236 91.36 308.638 92.7253 308.041 94.176C307.444 95.5413 306.932 96.8213 306.505 98.016C306.078 99.2107 305.737 100.192 305.481 100.96C305.31 101.728 305.268 102.112 305.353 102.112C305.524 102.112 305.822 101.941 306.249 101.6C306.676 101.173 307.188 100.704 307.785 100.192C309.15 98.9973 310.857 97.1627 312.905 94.688C315.038 92.128 317.172 89.44 319.305 86.624C321.524 83.7227 323.572 80.9067 325.449 78.176C327.326 75.36 328.692 73.056 329.545 71.264C331.678 67.0827 332.062 65.248 330.697 65.76C330.526 65.8453 330.1 66.1013 329.417 66.528C328.734 66.9547 328.009 67.424 327.241 67.936ZM313.417 71.008C312.137 72.4587 310.644 74.5067 308.937 77.152C307.23 79.712 305.652 82.4 304.201 85.216C303.604 86.4107 303.006 87.7333 302.409 89.184C301.812 90.6347 301.257 92.0427 300.745 93.408C300.233 94.688 299.849 95.8827 299.593 96.992C299.337 98.016 299.209 98.784 299.209 99.296V99.424C299.294 99.424 299.465 99.1253 299.721 98.528C299.977 97.8453 300.276 96.992 300.617 95.968C302.068 91.5307 303.86 87.3493 305.993 83.424C308.126 79.4133 310.558 75.488 313.289 71.648L315.081 69.216L313.417 71.008ZM308.553 73.952C308.468 73.952 308.169 74.336 307.657 75.104C307.23 75.7867 306.718 76.5973 306.121 77.536C304.756 79.584 303.476 81.76 302.281 84.064C301.172 86.2827 300.19 88.416 299.337 90.464C298.484 92.512 297.801 94.432 297.289 96.224C296.862 97.9307 296.649 99.3813 296.649 100.576C296.649 101.259 296.734 101.387 296.905 100.96C297.076 100.533 297.374 99.424 297.801 97.632C298.74 93.792 300.02 90.0373 301.641 86.368C303.348 82.6133 305.31 79.1147 307.529 75.872C307.956 75.36 308.254 74.9333 308.425 74.592C308.596 74.1653 308.638 73.952 308.553 73.952ZM295.113 98.272C294.857 99.552 294.9 99.8933 295.241 99.296C295.497 98.6133 296.009 97.0773 296.777 94.688C297.204 93.408 297.545 92.256 297.801 91.232C298.142 90.1227 298.356 89.4827 298.441 89.312C298.526 88.9707 298.356 89.184 297.929 89.952C297.502 90.72 296.99 92 296.393 93.792C295.796 95.584 295.369 97.0773 295.113 98.272ZM396.674 15.584C397.015 16.2667 397.186 16.8213 397.186 17.248C397.186 17.4187 397.442 17.4613 397.954 17.376C398.893 16.9493 399.021 17.4613 398.338 18.912C398.082 19.3387 397.954 19.5947 397.954 19.68C398.039 19.68 398.295 19.4667 398.722 19.04C399.49 18.272 400.557 18.6133 401.922 20.064C402.349 20.576 402.519 21.216 402.434 21.984C402.434 22.752 402.178 23.776 401.666 25.056C401.239 26.336 400.514 27.9573 399.49 29.92C398.551 31.7973 397.314 34.1013 395.778 36.832C394.839 38.4533 393.73 40.5013 392.45 42.976C391.17 45.3653 389.89 47.8827 388.61 50.528C387.33 53.088 386.05 55.648 384.77 58.208C383.575 60.768 382.594 62.944 381.826 64.736C380.29 68.064 378.797 71.5627 377.346 75.232C375.981 78.816 374.701 82.3147 373.506 85.728C372.397 89.056 371.415 92.2133 370.562 95.2C369.794 98.1867 369.197 100.704 368.77 102.752C368.599 103.947 368.429 105.312 368.258 106.848C368.087 108.299 367.959 109.664 367.874 110.944C367.874 112.224 367.874 113.333 367.874 114.272C367.874 115.125 367.959 115.552 368.13 115.552C368.301 115.552 368.599 115.381 369.026 115.04C369.538 114.613 370.093 114.101 370.69 113.504C371.117 113.077 371.714 112.395 372.482 111.456C373.25 110.517 374.359 109.024 375.81 106.976C377.346 104.843 379.351 102.027 381.826 98.528C384.386 95.0293 387.629 90.464 391.554 84.832C393.943 81.5893 395.906 79.072 397.442 77.28C398.978 75.4027 400.045 74.464 400.642 74.464C401.154 74.464 401.325 74.6773 401.154 75.104C401.154 75.36 401.367 75.488 401.794 75.488C402.135 75.488 402.349 75.616 402.434 75.872C402.519 76.0427 402.434 76.4267 402.178 77.024C401.922 77.6213 401.453 78.4747 400.77 79.584C400.173 80.6933 399.362 82.1013 398.338 83.808C397.741 84.7467 397.015 85.8987 396.162 87.264C395.394 88.544 394.541 89.952 393.602 91.488C392.749 92.9387 391.895 94.432 391.042 95.968C390.189 97.4187 389.378 98.784 388.61 100.064C387.159 102.709 385.666 105.312 384.13 107.872C382.679 110.347 381.613 112.096 380.93 113.12C380.333 114.059 379.607 115.04 378.754 116.064C377.901 117.088 377.047 118.069 376.194 119.008C375.341 119.947 374.53 120.8 373.762 121.568C372.994 122.251 372.354 122.72 371.842 122.976C371.245 123.317 370.349 123.531 369.154 123.616C368.045 123.616 367.149 123.488 366.466 123.232C366.295 123.147 366.039 123.019 365.698 122.848C365.357 122.592 365.015 122.336 364.674 122.08C364.418 121.824 364.034 121.611 363.522 121.44C363.095 121.184 362.711 120.971 362.37 120.8C361.858 120.715 361.261 120.459 360.578 120.032C359.895 119.52 359.213 118.923 358.53 118.24C357.847 117.557 357.207 116.832 356.61 116.064C356.013 115.296 355.543 114.528 355.202 113.76C354.434 112.224 353.879 110.773 353.538 109.408C353.111 108.043 352.898 106.592 352.898 105.056C352.813 103.52 352.898 101.813 353.154 99.936C353.41 97.9733 353.794 95.712 354.306 93.152C356.013 85.216 359.042 76.0427 363.394 65.632C367.746 55.2213 373.335 43.744 380.162 31.2C381.271 29.0667 382.381 27.0187 383.49 25.056C384.685 23.008 385.538 21.6 386.05 20.832C387.159 19.2107 388.269 17.8453 389.378 16.736C390.487 15.6267 391.511 14.8587 392.45 14.432C393.389 13.92 394.242 13.7493 395.01 13.92C395.778 14.0907 396.333 14.6453 396.674 15.584ZM400.258 76.128C400.173 76.384 400.301 76.512 400.642 76.512C400.898 76.512 401.069 76.4693 401.154 76.384C401.154 76.384 401.197 76.384 401.282 76.384C401.282 76.2133 401.154 76.0853 400.898 76C400.642 75.9147 400.429 75.9573 400.258 76.128ZM399.106 77.792C398.594 78.304 398.338 78.56 398.338 78.56C398.338 78.9867 398.637 78.7733 399.234 77.92C399.49 77.5787 399.618 77.408 399.618 77.408C399.618 77.408 399.447 77.536 399.106 77.792ZM394.754 83.68C394.669 84.1067 394.754 84.1493 395.01 83.808C395.437 83.552 395.565 83.3387 395.394 83.168C395.223 82.9973 395.01 83.168 394.754 83.68ZM358.786 101.728C359.213 98.656 360.023 94.9013 361.218 90.464C362.498 85.9413 364.077 81.12 365.954 76C367.831 70.88 369.922 65.632 372.226 60.256C374.615 54.88 377.09 49.8027 379.65 45.024C381.101 42.208 382.509 39.4773 383.874 36.832C385.325 34.1867 386.519 31.968 387.458 30.176C388.482 28.2987 389.207 27.0613 389.634 26.464C390.231 25.5253 390.445 25.056 390.274 25.056C390.103 25.056 389.378 26.1653 388.098 28.384C386.818 30.5173 385.325 33.1627 383.618 36.32C381.997 39.392 380.29 42.6347 378.498 46.048C376.791 49.4613 375.341 52.4053 374.146 54.88C372.013 59.5733 370.007 64.2667 368.13 68.96C366.253 73.6533 364.589 78.1333 363.138 82.4C361.687 86.6667 360.493 90.592 359.554 94.176C358.701 97.6747 358.146 100.576 357.89 102.88C357.719 104.416 357.762 105.056 358.018 104.8C358.274 104.459 358.53 103.435 358.786 101.728ZM361.73 96.224C363.01 90.336 365.058 83.68 367.874 76.256C370.69 68.7467 374.061 60.8533 377.986 52.576C378.754 50.8693 379.821 48.6933 381.186 46.048C382.637 43.3173 384.087 40.544 385.538 37.728C387.074 34.912 388.482 32.3093 389.762 29.92C391.127 27.5307 392.151 25.7813 392.834 24.672C394.199 22.5387 394.925 21.3013 395.01 20.96C395.181 20.5333 394.925 20.7467 394.242 21.6C393.474 22.4533 392.237 24.3733 390.53 27.36C388.823 30.2613 386.946 33.632 384.898 37.472C382.85 41.2267 380.759 45.1947 378.626 49.376C376.578 53.472 374.829 57.184 373.378 60.512C372.439 62.6453 371.458 64.992 370.434 67.552C369.41 70.112 368.386 72.672 367.362 75.232C366.423 77.792 365.527 80.2667 364.674 82.656C363.906 85.0453 363.266 87.0933 362.754 88.8C362.157 90.848 361.602 92.896 361.09 94.944C360.663 96.9067 360.322 98.784 360.066 100.576C359.81 102.283 359.639 103.776 359.554 105.056C359.469 106.336 359.511 107.232 359.682 107.744C359.853 108.512 360.066 107.573 360.322 104.928C360.407 103.819 360.578 102.453 360.834 100.832C361.09 99.1253 361.389 97.5893 361.73 96.224ZM367.746 98.528C368.087 97.3333 368.173 96.6507 368.002 96.48C367.917 96.3947 367.789 96.6507 367.618 97.248C367.533 97.76 367.362 98.4427 367.106 99.296C366.935 100.149 366.765 101.088 366.594 102.112C366.423 103.136 366.253 104.075 366.082 104.928C365.741 107.403 365.613 108.683 365.698 108.768C365.783 108.853 366.039 107.659 366.466 105.184C366.637 103.904 366.85 102.624 367.106 101.344C367.362 100.064 367.575 99.1253 367.746 98.528ZM368.386 95.84C368.557 95.4987 368.599 95.2 368.514 94.944C368.343 94.6027 368.258 94.688 368.258 95.2C368.087 95.8827 368.13 96.096 368.386 95.84ZM370.05 89.952C370.306 89.8667 370.349 89.568 370.178 89.056C370.007 88.7147 369.922 88.8 369.922 89.312C369.922 89.824 369.965 90.0373 370.05 89.952ZM369.794 80.352C370.135 80.0107 370.306 79.6693 370.306 79.328C370.306 78.9867 370.135 79.072 369.794 79.584C369.709 79.7547 369.623 79.9253 369.538 80.096C369.453 80.2667 369.41 80.4373 369.41 80.608C369.41 80.7787 369.453 80.8213 369.538 80.736C369.623 80.6507 369.709 80.5227 369.794 80.352ZM371.074 77.024C371.33 76.5973 371.458 76.256 371.458 76C371.458 75.744 371.33 75.8293 371.074 76.256C370.989 76.4267 370.903 76.5973 370.818 76.768C370.733 76.9387 370.69 77.1093 370.69 77.28C370.69 77.4507 370.733 77.4933 370.818 77.408C370.903 77.3227 370.989 77.1947 371.074 77.024ZM379.01 65.888C379.01 65.632 378.839 65.8453 378.498 66.528C378.071 67.2107 377.858 67.7227 377.858 68.064C377.858 68.2347 378.071 68.0213 378.498 67.424C378.839 66.5707 379.01 66.0587 379.01 65.888ZM381.57 60.256C381.826 59.8293 381.954 59.488 381.954 59.232C381.954 58.976 381.826 59.0613 381.57 59.488C381.314 59.744 381.186 60.0853 381.186 60.512C381.186 60.6827 381.314 60.5973 381.57 60.256ZM389.122 45.152C390.146 43.104 390.957 41.4827 391.554 40.288C392.237 39.0933 392.706 38.24 392.962 37.728C393.218 37.216 393.303 36.96 393.218 36.96C393.218 36.96 393.09 37.1307 392.834 37.472C392.578 37.728 391.938 38.8373 390.914 40.8C389.89 42.6773 388.781 44.7253 387.586 46.944C386.477 49.1627 385.453 51.168 384.514 52.96C383.661 54.752 383.234 55.7333 383.234 55.904C383.234 56.0747 383.319 56.032 383.49 55.776C383.746 55.4347 383.959 55.0507 384.13 54.624C384.386 54.1973 384.983 53.088 385.922 51.296C386.861 49.4187 387.927 47.3707 389.122 45.152ZM395.01 28C395.351 27.4027 395.437 27.104 395.266 27.104C395.181 27.104 394.967 27.4027 394.626 28C394.37 28.5973 394.285 28.896 394.37 28.896C394.541 28.896 394.754 28.5973 395.01 28ZM394.498 26.592C395.095 25.6533 395.522 24.928 395.778 24.416C396.119 23.8187 396.333 23.392 396.418 23.136C396.589 22.88 396.631 22.7093 396.546 22.624C396.546 22.5387 396.461 22.496 396.29 22.496C396.205 22.496 395.821 23.0507 395.138 24.16C394.455 25.184 393.687 26.4213 392.834 27.872C389.165 34.1013 385.581 40.7573 382.082 47.84C378.583 54.9227 375.426 61.792 372.61 68.448C369.879 75.104 367.575 81.248 365.698 86.88C363.906 92.512 362.839 97.0347 362.498 100.448C362.413 101.387 362.413 101.771 362.498 101.6C362.583 101.344 362.839 100.363 363.266 98.656C363.607 97.4613 363.991 95.968 364.418 94.176C364.93 92.384 365.399 90.8053 365.826 89.44C367.191 84.9173 368.898 80.0107 370.946 74.72C372.994 69.344 375.298 63.8827 377.858 58.336C380.418 52.7893 383.106 47.2853 385.922 41.824C388.738 36.3627 391.597 31.2853 394.498 26.592ZM400.642 22.624C400.557 22.7093 400.343 23.136 400.002 23.904C399.661 24.5867 399.319 25.3547 398.978 26.208C398.637 26.976 398.338 27.7013 398.082 28.384C397.826 28.9813 397.698 29.28 397.698 29.28C397.783 29.28 397.954 29.0667 398.21 28.64C398.466 28.128 398.765 27.5307 399.106 26.848C399.789 25.568 400.258 24.5013 400.514 23.648C400.855 22.7093 400.898 22.368 400.642 22.624ZM422.145 54.112C422.486 54.5387 422.956 55.136 423.553 55.904C424.15 56.672 424.705 57.312 425.217 57.824C426.582 59.2747 427.521 60.5973 428.033 61.792C428.545 62.9867 428.716 64.224 428.545 65.504C428.374 66.6987 427.948 67.9787 427.265 69.344C426.582 70.624 425.857 71.4773 425.089 71.904C424.577 72.2453 424.065 72.416 423.553 72.416C423.041 72.3307 422.785 72.0747 422.785 71.648C422.785 71.3067 422.401 70.752 421.633 69.984C421.121 69.3867 420.78 68.9173 420.609 68.576C420.524 68.1493 420.481 67.3813 420.481 66.272C420.481 64.8213 420.31 64.0533 419.969 63.968C419.628 63.8827 418.433 64.3947 416.385 65.504C415.276 66.1013 414.166 66.912 413.057 67.936C412.033 68.8747 411.094 69.9413 410.241 71.136C409.388 72.2453 408.662 73.44 408.065 74.72C407.553 75.9147 407.212 77.0667 407.041 78.176C406.87 79.6267 407.041 80.9493 407.553 82.144C408.065 83.2533 409.26 84.7467 411.137 86.624C412.929 88.5867 414.465 90.5067 415.745 92.384C417.025 94.2613 417.836 95.7973 418.177 96.992C418.86 99.6373 418.646 102.539 417.537 105.696C416.428 108.768 414.593 111.584 412.033 114.144C410.924 115.339 409.9 116.277 408.961 116.96C408.022 117.557 406.657 118.283 404.865 119.136C403.841 119.648 402.988 120.075 402.305 120.416C401.708 120.672 401.153 120.885 400.641 121.056C400.129 121.227 399.617 121.355 399.105 121.44C398.593 121.44 397.996 121.44 397.313 121.44C396.374 121.525 395.478 121.568 394.625 121.568C393.857 121.483 393.345 121.355 393.089 121.184C392.748 121.013 392.15 120.544 391.297 119.776C390.358 119.008 389.377 118.155 388.353 117.216C387.329 116.192 386.348 115.211 385.409 114.272C384.47 113.333 383.83 112.608 383.489 112.096C382.806 111.243 382.55 110.475 382.721 109.792C382.806 109.024 383.19 108.555 383.873 108.384C384.129 108.213 384.684 108.128 385.537 108.128C386.305 108.043 387.116 108 387.969 108C389.42 108 390.486 107.915 391.169 107.744C391.852 107.488 392.918 107.019 394.369 106.336C397.356 104.885 399.873 102.88 401.921 100.32C404.054 97.6747 405.249 95.1147 405.505 92.64C405.59 92.0427 405.59 91.5307 405.505 91.104C405.42 90.592 405.206 90.08 404.865 89.568C404.609 89.056 404.14 88.4587 403.457 87.776C402.86 87.0933 402.006 86.1973 400.897 85.088C397.996 82.1867 396.033 79.1147 395.009 75.872C394.07 72.544 394.07 69.2587 395.009 66.016C395.521 64.3093 396.289 62.6453 397.313 61.024C398.337 59.4027 399.489 57.9093 400.769 56.544C402.049 55.0933 403.414 53.856 404.865 52.832C406.401 51.808 407.894 51.04 409.345 50.528C411.649 49.76 414.038 49.7173 416.513 50.4C419.073 51.0827 420.95 52.32 422.145 54.112ZM415.489 105.312C415.404 105.312 415.233 105.483 414.977 105.824C414.806 106.165 414.593 106.549 414.337 106.976C414.166 107.317 413.996 107.701 413.825 108.128C413.654 108.469 413.569 108.725 413.569 108.896C413.569 109.152 413.782 108.939 414.209 108.256C414.636 107.573 414.977 106.933 415.233 106.336C415.404 105.824 415.489 105.568 415.489 105.568C415.489 105.483 415.489 105.397 415.489 105.312ZM400.129 67.04C400.129 67.2107 400.129 67.3387 400.129 67.424C400.129 67.5093 400.214 67.4667 400.385 67.296C400.556 67.1253 400.812 66.784 401.153 66.272C401.494 65.76 401.964 65.0347 402.561 64.096C403.158 63.1573 403.628 62.3893 403.969 61.792C404.31 61.1947 404.396 60.9387 404.225 61.024C404.054 61.1093 403.756 61.4507 403.329 62.048C402.902 62.6453 402.433 63.2853 401.921 63.968C401.494 64.6507 401.068 65.2907 400.641 65.888C400.3 66.4853 400.129 66.8693 400.129 67.04ZM401.153 68.96C401.068 69.3867 401.11 69.472 401.281 69.216C401.537 68.96 402.006 68.32 402.689 67.296C403.116 66.528 403.628 65.6747 404.225 64.736C404.908 63.7973 405.462 63.072 405.889 62.56C406.913 61.3653 407.34 60.7253 407.169 60.64C406.998 60.5547 406.358 61.152 405.249 62.432C404.14 63.6267 403.201 64.8213 402.433 66.016C401.75 67.1253 401.324 68.1067 401.153 68.96ZM411.905 103.392C411.905 103.136 411.82 103.136 411.649 103.392C411.478 103.563 410.753 104.501 409.473 106.208C408.022 108 407.638 108.725 408.321 108.384C408.577 108.213 408.918 107.872 409.345 107.36C409.772 106.848 410.198 106.336 410.625 105.824C410.966 105.227 411.265 104.715 411.521 104.288C411.777 103.861 411.905 103.563 411.905 103.392ZM411.009 98.912C410.753 98.912 410.54 99.2533 410.369 99.936C410.284 100.277 410.028 100.832 409.601 101.6C409.26 102.283 408.833 103.008 408.321 103.776C408.065 104.203 407.809 104.587 407.553 104.928C407.382 105.269 407.212 105.568 407.041 105.824C406.785 106.165 406.572 106.464 406.401 106.72C406.401 106.976 406.742 106.72 407.425 105.952C408.193 105.184 408.833 104.373 409.345 103.52C410.028 102.411 410.54 101.387 410.881 100.448C411.308 99.424 411.35 98.912 411.009 98.912ZM409.345 99.168C409.345 98.9973 409.217 99.0827 408.961 99.424C408.705 99.68 408.406 100.064 408.065 100.576C407.809 101.088 407.553 101.643 407.297 102.24C407.041 102.752 406.913 103.093 406.913 103.264C406.828 103.605 406.913 103.691 407.169 103.52C407.425 103.264 407.809 102.667 408.321 101.728C408.577 101.216 408.79 100.704 408.961 100.192C409.217 99.68 409.345 99.3387 409.345 99.168ZM407.425 71.776C407.766 71.3493 408.022 70.9653 408.193 70.624C408.364 70.1973 408.406 69.984 408.321 69.984C408.236 69.984 408.065 70.1547 407.809 70.496C407.553 70.8373 407.297 71.2213 407.041 71.648C406.785 71.9893 406.529 72.3733 406.273 72.8C406.102 73.1413 406.017 73.3973 406.017 73.568C406.017 73.824 406.06 73.8667 406.145 73.696C406.316 73.5253 406.742 72.8853 407.425 71.776ZM407.041 66.272C406.614 66.8693 406.444 67.168 406.529 67.168C406.7 67.168 406.998 66.8693 407.425 66.272C408.022 65.6747 408.236 65.376 408.065 65.376C407.809 65.376 407.468 65.6747 407.041 66.272ZM408.961 62.816C409.814 61.8773 410.284 61.28 410.369 61.024C410.54 60.768 410.412 60.8107 409.985 61.152C409.046 61.8347 408.022 62.816 406.913 64.096C405.804 65.376 404.908 66.656 404.225 67.936C403.457 69.3867 403.158 70.0693 403.329 69.984C403.5 69.8987 404.054 69.1307 404.993 67.68C405.42 66.9973 406.017 66.1867 406.785 65.248C407.553 64.3093 408.278 63.4987 408.961 62.816Z" fill="white"/>
</svg>
