<?xml version="1.0" standalone="no"?>
<!DOCTYPE svg PUBLIC "-//W3C//DTD SVG 20010904//EN"
 "http://www.w3.org/TR/2001/REC-SVG-20010904/DTD/svg10.dtd">
<svg version="1.0" xmlns="http://www.w3.org/2000/svg"
 width="1080.000000pt" height="1080.000000pt" viewBox="0 0 1080.000000 1080.000000"
 preserveAspectRatio="xMidYMid meet">
<metadata>
Created by potrace 1.14, written by Peter Selinger 2001-2017
</metadata>
<g transform="translate(0.000000,1080.000000) scale(0.100000,-0.100000)"
fill="#000000" stroke="none">
<path d="M5235 6730 c-512 -46 -877 -304 -976 -691 -9 -34 -14 -107 -14 -199
0 -124 4 -156 24 -220 42 -134 89 -211 204 -328 117 -120 279 -223 554 -351
423 -197 539 -266 654 -389 84 -90 113 -149 130 -267 14 -93 0 -186 -41 -271
-142 -292 -631 -363 -1056 -154 l-101 50 -74 236 c-40 129 -76 239 -79 243 -3
5 -56 4 -117 -2 l-113 -10 1 -71 c0 -39 6 -197 12 -351 l12 -280 113 -48 c116
-50 316 -106 482 -134 117 -20 430 -23 545 -4 280 44 514 154 679 317 163 163
236 335 236 555 0 207 -49 344 -174 487 -131 148 -290 252 -631 411 -355 164
-468 228 -583 329 -153 133 -217 294 -191 479 26 183 184 340 390 386 197 45
443 21 601 -59 l46 -23 72 -218 c40 -120 76 -222 81 -227 7 -8 217 9 227 18 5
6 -37 656 -43 667 -7 10 -140 54 -225 74 -176 42 -459 61 -645 45z"/>
<path d="M2425 6715 c-229 -32 -388 -81 -590 -181 -387 -191 -662 -509 -793
-914 -63 -196 -83 -328 -83 -552 0 -170 12 -286 41 -418 124 -555 540 -966
1128 -1115 155 -39 275 -55 452 -62 269 -9 488 25 765 121 119 41 285 110 285
119 0 3 133 605 145 653 5 21 -1 22 -110 34 -63 7 -120 10 -127 7 -7 -2 -65
-116 -128 -252 l-115 -248 -90 -43 c-146 -70 -261 -95 -455 -101 -129 -4 -184
-2 -253 11 -486 92 -829 452 -936 984 -88 437 -23 917 166 1220 57 92 170 213
263 282 257 190 668 248 1063 149 81 -21 198 -70 215 -92 8 -10 123 -364 154
-476 l10 -34 116 7 c64 4 120 11 123 14 3 4 -2 158 -12 342 -10 184 -18 349
-18 365 -1 29 -5 32 -93 62 -122 42 -228 68 -407 100 -123 21 -184 26 -381 29
-165 2 -265 -1 -335 -11z"/>
<path d="M6765 6584 c-4 -52 -4 -98 0 -102 3 -4 77 -23 163 -43 152 -34 156
-36 164 -65 36 -124 30 -2535 -5 -2571 -3 -2 -76 -21 -164 -40 -87 -20 -160
-37 -162 -39 -2 -2 0 -48 4 -104 l7 -101 812 4 c778 4 816 5 923 25 393 75
679 218 923 462 299 298 449 674 450 1126 0 362 -94 681 -273 924 -191 259
-513 459 -876 546 -293 70 -359 74 -1222 74 l-737 0 -7 -96z m1557 -178 c317
-58 569 -204 736 -425 197 -261 294 -629 279 -1060 -8 -246 -47 -421 -129
-586 -146 -291 -390 -459 -756 -520 -84 -14 -145 -16 -340 -12 -189 4 -497 29
-509 41 -2 1 -8 70 -15 152 -19 222 -19 2381 0 2393 8 5 59 13 115 20 56 6
116 13 132 15 70 10 405 -3 487 -18z"/>
</g>
</svg>
