<?xml version="1.0" encoding="UTF-8"?>
<svg version="1.1" xmlns="http://www.w3.org/2000/svg" width="500" height="500">
<path d="M0 0 C165 0 330 0 500 0 C500 165 500 330 500 500 C335 500 170 500 0 500 C0 335 0 170 0 0 Z " fill="#786EF1" transform="translate(0,0)"/>
<path d="M0 0 C14.85 0 29.7 0 45 0 C45 5.94 45 11.88 45 18 C50.61 18 56.22 18 62 18 C62 75.42 62 132.84 62 192 C100.28 192 138.56 192 178 192 C178 128.64 178 65.28 178 0 C192.85 0 207.7 0 223 0 C223 5.94 223 11.88 223 18 C228.61 18 234.22 18 240 18 C240.88513422 30.85279117 241.13805232 43.60288193 241.11352539 56.48266602 C241.11321832 58.61735755 241.11335379 60.75204919 241.11389065 62.88674068 C241.11411444 68.55229755 241.10836044 74.21783288 241.10128021 79.8833847 C241.0955433 85.2190914 241.09531482 90.55479311 241.09460449 95.89050293 C241.08937779 111.44783809 241.07541653 127.00516932 241.0625 142.5625 C241.041875 177.356875 241.02125 212.15125 241 248 C167.41 248 93.82 248 18 248 C18 242.39 18 236.78 18 231 C12.06 231 6.12 231 0 231 C0 154.77 0 78.54 0 0 Z " fill="#000000" transform="translate(96,141)"/>
<path d="M0 0 C14.52 0 29.04 0 44 0 C44 76.56 44 153.12 44 232 C29.48 232 14.96 232 0 232 C0 155.44 0 78.88 0 0 Z " fill="#000001" transform="translate(360,140)"/>
<path d="M0 0 C5.94 0 11.88 0 18 0 C18 5.94 18 11.88 18 18 C23.61 18 29.22 18 35 18 C35 94.23 35 170.46 35 249 C20.48 249 5.96 249 -9 249 C-9 243.39 -9 237.78 -9 232 C-14.61 232 -20.22 232 -26 232 C-26 226.06 -26 220.12 -26 214 C-17.42 214 -8.84 214 0 214 C0 143.38 0 72.76 0 0 Z " fill="#2E1B50" transform="translate(404,158)"/>
<path d="M0 0 C5.61 0 11.22 0 17 0 C17.88513422 12.85279117 18.13805232 25.60288193 18.11352539 38.48266602 C18.11321832 40.61735755 18.11335379 42.75204919 18.11389065 44.88674068 C18.11411444 50.55229755 18.10836044 56.21783288 18.10128021 61.8833847 C18.0955433 67.2190914 18.09531482 72.55479311 18.09460449 77.89050293 C18.08937779 93.44783809 18.07541653 109.00516932 18.0625 124.5625 C18.041875 159.356875 18.02125 194.15125 18 230 C-55.59 230 -129.18 230 -205 230 C-205 224.39 -205 218.78 -205 213 C-210.94 213 -216.88 213 -223 213 C-223 212.67 -223 212.34 -223 212 C-186.23092134 211.94145902 -149.46373435 211.97786965 -112.6953125 212.21875 C-111.93486932 212.22371176 -111.17442615 212.22867352 -110.39093924 212.23378563 C-97.63558914 212.31738354 -84.88030315 212.40940399 -72.125 212.5 C-48.32375 212.665 -24.5225 212.83 0 213 C0 142.71 0 72.42 0 0 Z " fill="#2B2453" transform="translate(319,159)"/>
<path d="M0 0 C5.61 0 11.22 0 17 0 C17 76.23 17 152.46 17 231 C-56.59 231 -130.18 231 -206 231 C-206 225.06 -206 219.12 -206 213 C-138.02 213 -70.04 213 0 213 C0 142.71 0 72.42 0 0 Z " fill="#5746A6" transform="translate(337,176)"/>
<path d="M0 0 C5.61 0 11.22 0 17 0 C17 76.23 17 152.46 17 231 C2.48 231 -12.04 231 -27 231 C-27 225.39 -27 219.78 -27 214 C-18.09 214 -9.18 214 0 214 C0 143.38 0 72.76 0 0 Z " fill="#5F34A2" transform="translate(422,176)"/>
<path d="M0 0 C14.85 0 29.7 0 45 0 C45 5.94 45 11.88 45 18 C50.61 18 56.22 18 62 18 C62 75.42 62 132.84 62 192 C56.06 192 50.12 192 44 192 C44 128.97 44 65.94 44 1 C29.48 1 14.96 1 0 1 C0 0.67 0 0.34 0 0 Z " fill="#252B52" transform="translate(96,141)"/>
<path d="M0 0 C5.94 0 11.88 0 18 0 C18 51.48 18 102.96 18 156 C50.34 156 82.68 156 116 156 C116 156.33 116 156.66 116 157 C77.72 157 39.44 157 0 157 C0 105.19 0 53.38 0 0 Z " fill="#4F57AB" transform="translate(158,176)"/>
<path d="M0 0 C5.94 0 11.88 0 18 0 C18 76.56 18 153.12 18 232 C17.67 232 17.34 232 17 232 C17 161.38 17 90.76 17 18 C11.39 18 5.78 18 0 18 C0 12.06 0 6.12 0 0 Z " fill="#422673" transform="translate(404,158)"/>
<path d="M0 0 C5.61 0 11.22 0 17 0 C18.0952647 14.98125037 18.12882928 29.89379414 18.09765625 44.91015625 C18.09578741 47.5762897 18.0943164 50.24242045 18.09336853 52.90855408 C18.09028702 59.16245633 18.0821175 65.41634066 18.07201904 71.6702351 C18.06075786 78.80229281 18.0553225 85.93435148 18.05032361 93.06641591 C18.03993142 107.71095302 18.02239503 122.35547619 18 137 C17.67 137 17.34 137 17 137 C17 97.73 17 58.46 17 18 C11.39 18 5.78 18 0 18 C0 12.06 0 6.12 0 0 Z " fill="#402F78" transform="translate(319,159)"/>
<path d="M0 0 C14.85 0 29.7 0 45 0 C45 5.94 45 11.88 45 18 C50.61 18 56.22 18 62 18 C62 23.94 62 29.88 62 36 C56.06 36 50.12 36 44 36 C44 24.45 44 12.9 44 1 C29.48 1 14.96 1 0 1 C0 0.67 0 0.34 0 0 Z " fill="#333A70" transform="translate(96,141)"/>
<path d="M0 0 C1.505625 -0.020625 3.01125 -0.04125 4.5625 -0.0625 C5.40941406 -0.07410156 6.25632812 -0.08570313 7.12890625 -0.09765625 C10.43763796 0.01488565 13.72262852 0.53180407 17 1 C17 6.61 17 12.22 17 18 C11.39 18 5.78 18 0 18 C0 12.06 0 6.12 0 0 Z " fill="#422975" transform="translate(378,372)"/>
<path d="M0 0 C5.61 0 11.22 0 17 0 C17 5.61 17 11.22 17 17 C11.39 17 5.78 17 0 17 C0 11.39 0 5.78 0 0 Z " fill="#36417A" transform="translate(114,372)"/>
</svg>
