<svg width="1024" height="1023" viewBox="0 0 1024 1023" fill="none" xmlns="http://www.w3.org/2000/svg">
<rect width="1024" height="1023" rx="100" fill="#4A3A5C"/>
<path d="M527.976 916C517.325 916 508.45 912.452 501.349 905.355C459.337 906.538 427.385 897.076 405.491 876.969C384.189 856.863 371.172 831.138 366.438 799.795C364.071 805.117 360.817 810.144 356.675 814.875C353.124 819.606 348.391 823.746 342.473 827.294C343.657 833.799 341.586 839.713 336.26 845.035C330.935 850.949 323.834 853.906 314.959 853.906C310.225 853.906 305.195 853.019 299.87 851.245C295.136 849.47 288.627 845.035 280.343 837.939C272.059 830.842 267.03 822.859 265.254 813.988C267.621 815.171 270.58 816.945 274.13 819.31C278.272 822.267 282.71 823.746 287.444 823.746H289.219C292.178 823.746 295.432 822.859 298.982 821.084C302.533 819.31 305.491 817.241 307.858 814.875C309.633 813.692 311.704 812.51 314.071 811.327C317.03 810.144 319.692 809.553 322.059 809.553C325.609 809.553 329.456 811.031 333.598 813.988C335.965 815.171 338.331 817.536 340.698 821.084C351.349 813.397 359.337 801.569 364.663 785.602C364.071 777.914 363.775 769.931 363.775 761.651C364.367 753.963 365.254 745.98 366.438 737.701C312 733.561 272.651 718.777 248.391 693.348C224.13 667.918 212 638.35 212 604.641C212 563.837 222.059 528.65 242.178 499.081C262.296 468.921 288.331 444.083 320.284 424.568C352.828 404.461 387.74 389.086 425.018 378.441C462.888 367.205 499.278 359.812 534.189 356.264C532.414 351.533 530.639 346.802 528.864 342.071C527.681 336.749 526.793 331.722 526.201 326.991C495.432 326.991 466.142 324.921 438.331 320.782C410.521 316.642 387.148 310.137 368.213 301.266C364.663 300.084 360.817 299.197 356.675 298.605C353.124 298.014 349.278 297.718 345.136 297.718C333.894 297.718 324.426 300.971 316.734 307.476C325.609 312.798 330.047 321.373 330.047 333.201C330.047 336.749 329.16 340.889 327.385 345.62C325.018 352.125 321.763 357.151 317.621 360.7C314.071 364.248 310.817 367.5 307.858 370.457C305.491 372.823 303.124 376.075 300.757 380.215C298.391 384.355 297.207 388.494 297.207 392.634C297.207 397.365 299.278 401.504 303.42 405.053C302.237 406.235 300.462 406.827 298.095 406.827C289.219 406.827 282.118 400.913 276.793 389.086C272.059 377.258 269.692 365.135 269.692 352.716C269.692 336.749 274.426 324.33 283.893 315.459C293.953 306.589 303.124 303.336 311.408 305.702C318.509 297.422 327.089 292.396 337.148 290.622C338.923 290.03 340.698 289.735 342.473 289.735C344.249 289.735 346.024 289.735 347.799 289.735C321.763 272.585 302.828 254.844 290.994 236.511C279.16 217.587 273.243 199.846 273.243 183.287C273.243 161.406 281.527 143.369 298.095 129.177C314.663 114.392 335.669 107 361.112 107C370.58 107 380.639 108.183 391.29 110.548C401.941 112.914 412.888 116.758 424.13 122.08C428.864 124.446 433.302 127.107 437.444 130.064C441.586 132.429 445.432 135.09 448.982 138.047C456.083 139.23 464.959 138.047 475.61 134.499C486.26 130.951 491.586 125.628 491.586 118.532V116.758C491.586 112.618 492.769 110.253 495.136 109.661C498.095 108.478 500.462 109.07 502.237 111.435C506.379 115.575 508.45 120.602 508.45 126.515C508.45 135.386 502.828 142.778 491.586 148.692C488.036 150.466 483.598 151.353 478.272 151.353C471.763 151.353 466.142 150.466 461.408 148.692C471.467 158.745 480.343 170.868 488.036 185.061C498.686 185.061 505.787 189.201 509.337 197.48C513.479 205.76 515.55 215.813 515.55 227.64C515.55 238.285 512 250.408 504.899 264.01C497.799 277.02 489.811 284.412 480.935 286.186C480.343 286.186 479.456 286.482 478.272 287.073C477.681 287.073 477.089 287.073 476.497 287.073C472.947 287.073 470.58 285.891 469.396 283.525C475.905 281.16 479.16 276.133 479.16 268.445C479.16 262.531 477.385 256.618 473.834 250.704C471.467 246.564 468.805 242.129 465.846 237.398C463.479 232.076 462.296 225.275 462.296 216.996C462.296 208.716 464.663 201.916 469.396 196.593C474.13 191.271 478.568 188.018 482.71 186.836C476.201 175.008 466.734 164.068 454.308 154.014C442.473 143.369 430.343 135.09 417.917 129.177C410.225 125.628 402.533 123.263 394.84 122.08C387.74 120.306 380.935 119.419 374.426 119.419C353.716 119.419 336.556 125.924 322.947 138.934C309.337 151.944 302.533 167.912 302.533 186.836C302.533 201.62 307.266 216.996 316.734 232.963C326.793 248.93 342.769 264.01 364.663 278.203C385.373 291.213 409.633 301.266 437.444 308.363C465.254 314.868 494.544 318.416 525.314 319.008C524.13 305.406 525.314 293.283 528.864 282.638C537.148 250.704 551.941 224.979 573.243 205.464C594.544 185.357 618.509 170.573 645.136 161.111C671.763 151.649 697.207 146.918 721.467 146.918C747.503 146.918 769.101 151.649 786.26 161.111C803.42 170.573 812 183.879 812 201.029C812 214.039 807.266 227.345 797.799 240.946C788.923 254.548 775.61 266.375 757.858 276.429C732.414 291.213 701.349 302.745 664.663 311.024C627.976 319.303 590.698 324.33 552.828 326.104C552.828 334.975 554.308 344.437 557.266 354.49H558.154C565.254 354.49 574.722 355.081 586.556 356.264C598.982 357.447 610.817 359.812 622.059 363.361C633.302 366.318 641.29 371.049 646.024 377.554C648.391 381.102 649.574 384.059 649.574 386.424C649.574 391.747 646.32 396.773 639.811 401.504C633.894 405.644 625.018 407.714 613.183 407.714C604.899 407.714 596.911 406.531 589.219 404.166C579.16 401.209 570.284 396.773 562.592 390.86C554.899 384.946 548.095 378.145 542.178 370.457C510.817 372.823 479.16 379.919 447.207 391.747C415.254 403.574 385.965 419.837 359.337 440.535C333.302 460.642 312 484.888 295.432 513.274C279.456 541.66 271.467 573.299 271.467 608.19C271.467 635.393 279.16 659.935 294.544 681.816C310.521 703.105 335.077 717.003 368.213 723.508C371.172 707.541 375.314 691.278 380.639 674.719C385.965 658.161 392.473 641.898 400.166 625.931C399.574 626.522 398.686 627.114 397.503 627.705C396.911 628.296 396.32 629.183 395.728 630.366C388.036 636.28 377.385 639.237 363.775 639.237C353.716 639.237 346.615 636.576 342.473 631.253C338.331 625.34 336.26 619.426 336.26 613.512C336.26 605.824 338.036 599.91 341.586 595.771C343.361 593.997 344.84 593.11 346.024 593.11C347.799 593.11 348.686 596.362 348.686 602.867C348.686 608.781 353.42 613.808 362.888 617.947C372.355 621.496 381.231 623.27 389.515 623.27C393.657 623.27 396.615 622.974 398.391 622.383C399.574 621.791 400.462 621.496 401.053 621.496C401.645 621.496 402.237 621.2 402.828 620.609C421.763 582.761 446.024 548.461 475.61 517.709C505.195 486.958 538.036 465.077 574.13 452.067C593.065 444.97 611.408 441.422 629.16 441.422C658.746 441.422 683.894 449.701 704.604 466.26C725.314 482.227 735.669 504.108 735.669 531.902C735.669 544.913 732.414 559.401 725.905 575.368C719.396 591.336 709.337 607.894 695.728 625.044C673.834 652.247 646.024 674.424 612.296 691.573C579.16 708.132 543.953 720.255 506.675 727.943C469.396 735.631 433.598 739.475 399.278 739.475H386.852C385.077 751.894 384.189 764.312 384.189 776.731C384.189 811.031 393.065 840.008 410.817 863.663C428.568 887.91 457.562 899.737 497.799 899.146C495.432 895.006 494.249 889.98 494.249 884.066C494.249 874.012 497.799 864.255 504.899 854.793C512.592 845.922 523.538 840.895 537.74 839.713C561.408 837.939 578.272 831.433 588.331 820.197C598.391 809.553 604.604 801.273 606.97 795.36C608.746 798.317 609.929 801.569 610.521 805.117C611.112 809.257 611.408 813.101 611.408 816.649C611.408 827.885 609.041 838.826 604.308 849.47C600.166 860.707 596.32 868.986 592.769 874.308C583.302 889.092 572.651 899.737 560.817 906.242C548.982 912.747 538.036 916 527.976 916ZM552.828 318.121C593.065 316.346 631.527 309.546 668.213 297.718C705.491 285.299 735.965 268.741 759.633 248.043C780.935 229.119 791.586 211.673 791.586 195.706C790.994 183.879 784.781 175.008 772.947 169.094C761.704 163.181 747.503 160.224 730.343 160.224C710.225 160.224 688.331 164.659 664.663 173.53C640.994 182.4 619.396 196.297 599.87 215.221C580.343 233.554 566.438 257.209 558.154 286.186C555.787 296.831 554.012 307.476 552.828 318.121ZM616.734 395.295C625.018 395.295 629.16 393.225 629.16 389.086C629.16 384.946 624.13 380.806 614.071 376.667C604.012 371.936 587.74 369.57 565.254 369.57C573.538 380.806 585.965 388.79 602.533 393.521C605.491 394.112 607.858 394.704 609.633 395.295C612 395.295 614.367 395.295 616.734 395.295ZM388.627 726.169C399.278 727.352 410.521 727.352 422.355 726.169C463.183 723.212 498.391 716.116 527.976 704.879C558.154 694.235 583.598 680.633 604.308 664.075C625.61 647.516 643.657 630.071 658.45 611.738C673.243 593.405 683.894 576.255 690.402 560.288C697.503 544.321 701.053 529.833 701.053 516.822C701.053 497.307 694.544 481.931 681.527 470.695C668.509 459.459 651.349 453.841 630.047 453.841C622.355 453.841 614.071 454.728 605.195 456.502C596.32 457.685 587.148 460.05 577.681 463.599C546.911 474.835 518.213 494.646 491.586 523.032C465.55 550.826 443.361 582.761 425.018 618.834C407.266 654.908 395.136 690.686 388.627 726.169Z" fill="#D4C5FF"/>
</svg>
